<?xml version="1.0" encoding="UTF-8" standalone="no"?>
<svg width="74px" height="370px" viewBox="0 0 74 370" version="1.1" xmlns="http://www.w3.org/2000/svg" xmlns:xlink="http://www.w3.org/1999/xlink">
    <!-- Generator: Sketch 3.6.1 (26313) - http://www.bohemiancoding.com/sketch -->
    <title>icons</title>
    <desc>Created with Sketch.</desc>
    <defs></defs>
    <g id="Page-1" stroke="none" stroke-width="1" fill="none" fill-rule="evenodd">
        <g id="icons">
            <g id="Group-2" transform="translate(15.000000, 22.000000)">
                <g id="1">
                    <g id="Group" transform="translate(3.000000, 14.000000)" fill="#D5D4D4">
                        <path d="M16.003,6 C16.003,9.313 13.189,12 8.5,12 L7.562,12 C2.873,12 0.997,9.312 0.997,6 L0.997,6 C0.997,2.686 1.435,0 8,0 L9,0 C15.565,0 16.003,2.686 16.003,6 L16.003,6 L16.003,6 Z" id="Shape"></path>
                        <path d="M37.003,6 C37.003,9.313 34.19,12 29.5,12 L28.562,12 C23.873,12 21.997,9.312 21.997,6 L21.997,6 C21.997,2.686 22.435,0 29,0 L30,0 C36.564,0 37.003,2.686 37.003,6 L37.003,6 L37.003,6 Z" id="Shape"></path>
                    </g>
                    <g id="Group" transform="translate(2.000000, 0.000000)" stroke="#A6A6A6" stroke-width="2">
                        <path d="M40,15.307 L30,1.307 C30,1.307 27,-2.693 24,3.307" id="Shape"></path>
                        <path d="M0,15.307 L10,1.307 C10,1.307 13,-2.693 16,3.307" id="Shape"></path>
                    </g>
                    <g id="Group" transform="translate(0.000000, 13.000000)">
                        <path d="M11.5,14 L10.562,14 C5.825,14 2.997,11.383 2.997,7 C2.997,3.458 3.615,0 11,0 L12,0 C19.385,0 20.003,3.458 20.003,7 C20.003,11.121 16.507,14 11.5,14 L11.5,14 Z M11,1.999 C4.997,1.999 4.997,4.206 4.997,7 C4.997,9.281 5.962,12 10.562,12 L11.5,12 C15.329,12 18.003,9.944 18.003,7 C18.003,4.206 18.003,1.999 12,1.999 L11,1.999 L11,1.999 Z" id="Shape" fill="#A6A6A6"></path>
                        <path d="M32.5,14 L31.562,14 C26.825,14 23.997,11.383 23.997,7 C23.997,3.458 24.615,0 32,0 L33,0 C40.385,0 41.003,3.458 41.003,7 C41.003,11.121 37.507,14 32.5,14 L32.5,14 Z M32,1.999 C25.997,1.999 25.997,4.206 25.997,7 C25.997,9.281 26.963,12 31.562,12 L32.5,12 C36.329,12 39.003,9.944 39.003,7 C39.003,4.206 39.003,1.999 33,1.999 L32,1.999 L32,1.999 Z" id="Shape" fill="#A6A6A6"></path>
                        <path d="M1.969,4.381 L0.602,2.983 L1,2 C1.234,1.766 3.794,0 11,0 C17.042,0 18.321,0.642 20.257,1.612 L20.447,1.708 C21.796,2.384 23.607,1.685 23.625,1.677 L24.552,1.302 L25.303,3.156 L24.375,3.531 C24.268,3.574 21.719,4.58 19.553,3.498 L19.36,3.4 C17.56,2.496 16.569,2 11,2 C4.654,2 2.709,3.705 2.69,3.723 L1.969,4.381 L1.969,4.381 Z" id="Shape" fill="#A6A6A6"></path>
                        <path d="M42,4.414 L41.305,3.719 C41.205,3.633 39.209,2 33,2 C28.327,2 26.389,2.525 24.447,3.496 C22.28,4.578 19.731,3.572 19.625,3.529 L18.698,3.154 L19.448,1.3 L20.375,1.675 C20.39,1.679 22.201,2.384 23.553,1.706 C25.769,0.6 27.93,0 33,0 C40.206,0 42.766,1.766 43,2 L43.414,3 L42,4.414 L42,4.414 Z" id="Shape" fill="#A6A6A6"></path>
                        <path id="Shape" stroke="#A6A6A6" stroke-width="2" d="M20,4.396 C21.789,3.501 24,4.396 24,4.396"></path>
                        <path id="Shape" stroke="#A6A6A6" stroke-width="2" d="M24,4.396 C22.211,3.501 20,4.396 20,4.396"></path>
                        <path d="M40,3 C40,2.447 40.447,2 41,2 L43,2 C43.553,2 44,2.447 44,3 L44,4 C44,4.553 43.553,5 43,5 C43,5 41,5 41,6 C41,7 40,4.553 40,4 L40,3 L40,3 Z" id="Shape" fill="#A6A6A6"></path>
                        <path d="M4,3 C4,2.447 3.552,2 3,2 L1,2 C0.448,2 0,2.447 0,3 L0,4 C0,4.553 0.448,5 1,5 C1,5 3,5 3,6 C3,7 4,4.553 4,4 L4,3 L4,3 Z" id="Shape" fill="#A6A6A6"></path>
                    </g>
                    <g id="Group" transform="translate(8.000000, 18.000000)" stroke="#FFFFFF" stroke-width="2">
                        <path d="M0,2 C0,2 0,0 3,0" id="Shape"></path>
                        <path d="M21,2 C21,2 21,0 24,0" id="Shape"></path>
                    </g>
                </g>
                <g id="2" transform="translate(3.000000, 68.000000)">
                    <path d="M35,36 C28.1,36 19,40 19,40 L19,18 C19,18 28,14 37,14 L35,36 L35,36 Z" id="Shape" fill="#C1C1C1"></path>
                    <path d="M3,36 C9.9,36 19,40 19,40 L19,18 C19,18 10,14 1,14 L3,36 L3,36 Z" id="Shape" fill="#D6D4D4"></path>
                    <g id="Group" fill="#A6A6A6">
                        <circle id="Oval" cx="19" cy="8" r="8"></circle>
                        <path d="M36,28 L37,28 C37.6,28 38,27.6 38,27 L38,23 C38,22.4 37.6,22 37,22 L36,22 C34.3,22 33,23.3 33,25 L33,25 C33,26.7 34.3,28 36,28 L36,28 Z" id="Shape"></path>
                        <path d="M2,22 L1,22 C0.4,22 0,22.4 0,23 L0,27 C0,27.6 0.4,28 1,28 L2,28 C3.7,28 5,26.7 5,25 L5,25 C5,23.3 3.7,22 2,22 L2,22 Z" id="Shape"></path>
                    </g>
                </g>
                <g id="3" transform="translate(4.000000, 144.000000)">
                    <rect id="Rectangle-path" fill="#A6A6A6" x="0" y="0" width="36" height="26"></rect>
                    <rect id="Rectangle-path" fill="#C1C1C1" x="2" y="2" width="32" height="21"></rect>
                    <g id="Group" transform="translate(6.000000, 8.000000)" fill="#FFFFFF">
                        <rect id="Rectangle-path" x="4.034" y="3" width="6.966" height="4"></rect>
                        <path d="M0,5 L6,0 L6,10 L0,5 Z" id="Shape"></path>
                        <rect id="Rectangle-path" x="13" y="3" width="6.966" height="4"></rect>
                        <path d="M24,5 L18,0 L18,10 L24,5 Z" id="Shape"></path>
                    </g>
                    <g id="Group" transform="translate(0.000000, 26.000000)" fill="#D5D4D4">
                        <rect id="Rectangle-path" x="17" y="0" width="2" height="5"></rect>
                        <rect id="Rectangle-path" x="0" y="6" width="36" height="2"></rect>
                    </g>
                    <path d="M27,34 C27,35.104 26.104,36 25,36 L11,36 C9.896,36 9,35.104 9,34 L9,32 C9,30.896 9.896,30 11,30 L25,30 C26.104,30 27,30.896 27,32 L27,34 L27,34 Z" id="Shape" fill="#C1C1C1"></path>
                </g>
                <g id="4" transform="translate(4.000000, 218.000000)">
                    <rect id="Rectangle-path" fill="#D5D4D4" x="0" y="5" width="36" height="31"></rect>
                    <circle id="Oval" fill="#FFFFFF" cx="18" cy="20" r="8"></circle>
                    <g id="Group" transform="translate(10.000000, 12.000000)" stroke="#A6A6A6" stroke-width="4">
                        <circle id="Oval" cx="8" cy="8" r="8"></circle>
                        <path d="M14.5,1.5 L1.5,14.5" id="Shape"></path>
                    </g>
                    <path d="M36,5 L36,1 C36,0.447 35.553,0 35,0 L1,0 C0.448,0 0,0.447 0,1 L0,5 L36,5 L36,5 Z" id="Shape" fill="#A6A6A6"></path>
                </g>
                <g id="5" transform="translate(4.000000, 290.000000)">
                    <path d="M18,33.1 L7,20 L29,20 L18,33.1 Z" id="Shape" fill="#C1C1C1"></path>
                    <rect id="Rectangle-path" fill="#C1C1C1" x="14" y="0" width="8" height="4"></rect>
                    <rect id="Rectangle-path" fill="#C1C1C1" x="14" y="6" width="8" height="4"></rect>
                    <rect id="Rectangle-path" fill="#C1C1C1" x="14" y="12" width="8" height="11"></rect>
                    <rect id="Rectangle-path" fill="#A6A6A6" x="0" y="36" width="36" height="4"></rect>
                </g>
            </g>
        </g>
    </g>
</svg>