<?xml version="1.0" encoding="UTF-8" standalone="no"?>
<svg width="42px" height="168px" viewBox="0 0 42 168" version="1.1" xmlns="http://www.w3.org/2000/svg" xmlns:xlink="http://www.w3.org/1999/xlink">
    <!-- Generator: Sketch 3.6.1 (26313) - http://www.bohemiancoding.com/sketch -->
    <title>icons2</title>
    <desc>Created with Sketch.</desc>
    <defs></defs>
    <g id="Page-1" stroke="none" stroke-width="1" fill="none" fill-rule="evenodd">
        <g id="icons2">
            <g transform="translate(9.000000, 11.000000)" id="Page-1">
                <g>
                    <g id="icons2">
                        <g id="Group">
                            <path d="M13.3193806,18 L9.77331544,18 L9.77331544,8.99910924 L8,8.99910924 L8,5.89746298 L9.77331544,5.89746298 L9.77331544,4.03576261 C9.77331544,1.50539407 10.7739518,0 13.6163473,0 L15.9830305,0 L15.9830305,3.10224012 L14.5044191,3.10224012 C13.3974404,3.10224012 13.3239058,3.53574612 13.3239058,4.34456138 L13.3193806,5.89746298 L16,5.89746298 L15.6860638,8.99910924 L13.3193806,8.99910924 L13.3193806,18" id="Icons-/-fb_icon" fill="#FAFAFA"></path>
                            <path d="M10.7639704,57.9496751 L12.0789332,57.9496751 C12.0789332,57.9496751 12.4760407,57.9078263 12.6790874,57.6989519 C12.865711,57.5069651 12.8597458,57.146694 12.8597458,57.146694 C12.8597458,57.146694 12.8340259,55.4597004 13.6527984,55.2112732 C14.4602605,54.9664013 15.4968763,56.8416781 16.5955453,57.5628132 C17.4264033,58.1083308 18.0577775,57.9889317 18.0577775,57.9889317 L20.9957989,57.9496751 C20.9957989,57.9496751 22.5326336,57.8590147 21.8038804,56.7036879 C21.7442291,56.6093239 21.3793489,55.8490807 19.6193253,54.2871152 C17.7769515,52.6522659 18.0239235,52.9167659 20.2430302,50.0888887 C21.594481,48.3667126 22.1346742,47.3153782 21.9658686,46.8651134 C21.8050424,46.4361061 20.8109572,46.5494316 20.8109572,46.5494316 L17.5030203,46.5689858 C17.5030203,46.5689858 17.2575977,46.5370621 17.0758548,46.6410546 C16.8980625,46.7427513 16.7839506,46.9803644 16.7839506,46.9803644 C16.7839506,46.9803644 16.260181,48.3129384 15.562183,49.4464152 C14.0891827,51.8378041 13.5001066,51.9643879 13.2593322,51.8156576 C12.6991519,51.4695335 12.8391388,50.4254579 12.8391388,49.6835096 C12.8391388,47.3658931 13.2068081,46.39959 12.1231683,46.1494594 C11.7636334,46.0665022 11.4987662,46.0116172 10.5791287,46.0026549 C9.3987297,45.9911742 8.3999186,46.006136 7.83423823,46.2710804 C7.45789272,46.4472906 7.16753795,46.8398558 7.34447765,46.8624468 C7.56317336,46.8902967 8.05820196,46.9902158 8.32066759,47.3316735 C8.65975057,47.7727538 8.64789784,48.7629071 8.64789784,48.7629071 C8.64789784,48.7629071 8.84273281,51.4910874 8.19299821,51.8298788 C7.74716289,52.062307 7.13546573,51.5878215 5.82220699,49.4181948 C5.14946418,48.3068646 4.64134323,47.0782837 4.64134323,47.0782837 C4.64134323,47.0782837 4.54349946,46.8487441 4.368729,46.7258637 C4.15677333,46.5769851 3.86060836,46.5298034 3.86060836,46.5298034 L0.717062379,46.5494316 C0.717062379,46.5494316 0.245273402,46.5620233 0.0718972856,46.7582317 C-0.082343947,46.9328863 0.0595807647,47.293676 0.0595807647,47.293676 C0.0595807647,47.293676 2.5204691,52.7986261 5.3071916,55.5728035 C7.86266949,58.1166265 10.7639704,57.9496751 10.7639704,57.9496751" id="path2442" fill="#FAFAFA"></path>
                            <path d="M23,88.0529352 C22.2642523,88.4013844 21.4735904,88.6368306 20.6433693,88.7415042 C21.4907674,88.2003667 22.1414109,87.3424319 22.4477338,86.3201291 C21.6549898,86.8215628 20.7768813,87.185838 19.8420368,87.3824133 C19.0932763,86.5316974 18.0267414,86 16.8469947,86 C14.5806733,86 12.7435163,87.9602005 12.7435163,90.3776885 C12.7435163,90.7205848 12.7799524,91.0545963 12.8499616,91.375003 C9.43980897,91.1925877 6.41639882,89.4495086 4.39289758,86.8012944 C4.03920778,87.4479384 3.83724804,88.1998114 3.83724804,89.0019387 C3.83724804,90.5215106 4.56154437,91.861166 5.66243315,92.6452462 C4.98966778,92.6233119 4.35698206,92.4261813 3.80367483,92.0980004 C3.80341458,92.1168805 3.80341458,92.1349277 3.80341458,92.1532525 C3.80341458,94.273934 5.21791352,96.0431121 7.0951501,96.4457028 C6.75082957,96.5451011 6.38829102,96.598965 6.01404089,96.598965 C5.74961937,96.598965 5.49274533,96.5714778 5.2418572,96.520668 C5.76419379,98.2593048 7.2796726,99.5251056 9.07518836,99.5600893 C7.67083946,100.734266 5.90134943,101.434219 3.97908832,101.434219 C3.64778066,101.434219 3.32115762,101.413673 3,101.372858 C4.8160761,102.615337 6.97282913,103.34 9.29016097,103.34 C16.8373652,103.34 20.9645269,96.6692101 20.9645269,90.8846752 C20.9645269,90.6953187 20.9606231,90.5067952 20.9525551,90.318827 C21.7544081,89.702169 22.4500761,88.930583 23,88.0529352 L23,88.0529352 L23,88.0529352 Z" id="Shape-3" fill="#FFFFFF"></path>
                            <path d="M12.1875388,136.096977 C15.5280039,136.096977 18.2358644,133.388465 18.2358644,130.048326 C18.2358644,126.708512 15.5280039,124 12.1875388,124 C8.84707367,124 6.13953879,126.708512 6.13953879,130.048326 C6.13921321,133.38814 8.84674809,136.096977 12.1875388,136.096977 L12.1875388,136.096977 L12.1875388,136.096977 Z M12.1875388,127.072837 C13.8310737,127.072837 15.1630272,128.404791 15.1630272,130.048326 C15.1630272,131.69186 13.8310737,133.02414 12.1875388,133.02414 C10.5440039,133.02414 9.21205041,131.69186 9.21205041,130.048326 C9.21205041,128.404791 10.5440039,127.072837 12.1875388,127.072837 L12.1875388,127.072837 L12.1875388,127.072837 Z M19.1592132,136.833767 C18.8180039,136.148744 17.8721899,135.578 16.6151202,136.568093 C14.916562,137.906558 12.1875388,137.906558 12.1875388,137.906558 C12.1875388,137.906558 9.45884111,137.906558 7.75963181,136.568093 C6.50288762,135.578 5.55707367,136.148744 5.21553879,136.833767 C4.62005041,138.029953 5.29270158,138.608186 6.81088762,139.582326 C8.10735274,140.415163 9.88860855,140.725442 11.0388876,140.842 L10.0787481,141.80214 C8.72628297,143.154605 7.42005041,144.459535 6.51428297,145.365628 C5.97284111,145.907395 5.97284111,146.785163 6.51428297,147.32693 L6.67772483,147.490372 C7.21949227,148.031814 8.09725972,148.031814 8.63902716,147.490372 L12.2031667,143.926558 C13.5556318,145.279023 14.8612132,146.584279 15.7669806,147.490372 C16.3087481,148.031814 17.1871667,148.031814 17.728283,147.490372 L17.8920504,147.32693 C18.4331667,146.785163 18.4331667,145.907395 17.8920504,145.365628 L14.3275853,141.80214 L13.3641899,140.838744 C14.5157713,140.719907 16.2778179,140.407349 17.5635388,139.582326 C19.0817248,138.608186 19.754376,138.029953 19.1592132,136.833767 L19.1592132,136.833767 L19.1592132,136.833767 Z" id="Shape" fill="#FFFFFF"></path>
                        </g>
                    </g>
                </g>
            </g>
        </g>
    </g>
</svg>