<?xml version="1.0" encoding="UTF-8" standalone="no"?>
<svg width="239px" height="46px" viewBox="0 0 239 46" version="1.1" xmlns="http://www.w3.org/2000/svg" xmlns:xlink="http://www.w3.org/1999/xlink">
    <!-- Generator: Sketch 3.6.1 (26313) - http://www.bohemiancoding.com/sketch -->
    <title>logo</title>
    <desc>Created with Sketch.</desc>
    <defs>
        <path d="M79.8895614,0.37245102 L68.7027458,0.37245102 C66.9210215,0.37245102 66,1.36565374 66,3.35205918 L66,43.2043183 C66,43.9492203 66.2435951,44.6320472 66.8003839,45.1907237 C67.3525329,45.7471012 67.9673205,46 68.7027458,46 C70.6097475,46 71.5307691,45.1286485 71.5307691,43.3284686 L71.5307691,28.8051779 L80.6273066,28.8051779 C84.499309,28.8051779 87.7565237,27.4372251 90.4012706,24.6438425 C93.0436976,21.8504598 94.3962305,18.4363255 94.3962305,14.5255898 C94.3962305,10.242403 93.0436976,6.76619352 90.3409518,4.22111156 C87.6335661,1.67602959 84.1304364,0.37245102 79.8895614,0.37245102 L79.8895614,0.37245102 Z M79.3977313,23.9610156 L71.5284491,23.9610156 L71.5284491,5.21431427 L79.6413264,5.21431427 C82.4067109,5.21431427 84.6199466,6.02129148 86.341352,7.69732107 C88.0024387,9.37335066 88.8608215,11.6080568 88.8608215,14.4014394 C88.8608215,20.0502799 84.9888192,23.9610156 79.3977313,23.9610156 L79.3977313,23.9610156 Z M117.540086,40.4730108 L106.230313,40.4730108 L106.230313,3.22790884 C106.230313,1.05527789 105.309292,2.27373675e-13 103.527567,2.27373675e-13 C101.622886,2.27373675e-13 100.699544,0.993202719 100.699544,2.97960816 L100.699544,42.3352659 C100.699544,44.5722711 101.560247,45.6873251 103.279332,45.6873251 L118.400789,45.6873251 C119.936598,45.6873251 120.736982,44.7561975 120.736982,42.9560176 C120.736982,41.279988 119.690683,40.4730108 117.540086,40.4730108 L117.540086,40.4730108 Z M157.417767,1.30687588e-13 C155.696361,1.30687588e-13 154.837978,0.931127549 154.837978,2.85545782 L154.837978,30.0443822 C154.837978,33.4562175 153.729041,36.1277489 151.580764,38.1762295 C149.427847,40.2247101 146.602143,41.2156138 143.219651,41.2156138 C139.716522,41.2156138 136.888498,40.222411 134.80054,38.2383047 C132.647623,36.3116753 131.603644,33.5826669 131.603644,30.0443822 L131.603644,2.85545782 C131.603644,0.931127549 130.682623,0 128.775621,0 C126.993897,0 126.072875,0.931127549 126.072875,2.85545782 L126.072875,30.0443822 C126.072875,35.1345462 127.669003,39.105058 130.928538,41.9628149 C134.000156,44.6320472 138.120394,46 143.219651,46 C148.26091,46 152.316189,44.6320472 155.390127,41.9007397 C158.647342,38.9832067 160.24579,35.072471 160.24579,30.0466813 L160.24579,2.8577569 C160.24579,0.931127549 159.322448,1.30687588e-13 157.417767,1.30687588e-13 L157.417767,1.30687588e-13 Z M181.239049,18.622551 C175.70596,16.8223711 172.942895,14.5255898 172.942895,11.7942823 C172.942895,7.57317073 176.014514,4.84186325 180.19507,4.84186325 C181.239049,4.84186325 182.837497,5.33846461 184.988094,6.33166733 C187.13869,7.32487005 188.428585,7.82147141 188.799777,7.82147141 C190.089671,7.82147141 191.379565,6.64204318 191.379565,5.33846461 C191.379565,4.22111156 190.764778,3.22790884 189.535202,2.35885646 C187.263968,0.806977209 184.310667,2.27373675e-13 180.563942,2.27373675e-13 C176.998174,2.27373675e-13 173.926555,0.931127549 171.404766,2.85545782 C168.576743,4.96601359 167.166211,7.75939624 167.166211,11.2356058 C167.166211,16.3878449 169.68568,20.0502799 174.784938,22.2229108 C178.659261,23.7127149 181.547603,24.7679928 183.452284,25.4508197 C186.832457,27.1268493 188.491223,29.4236305 188.491223,32.4032387 C188.491223,34.7620952 187.690839,36.8128749 186.032073,38.5509796 C184.370986,40.3511595 182.343347,41.2179128 180.072112,41.2179128 C177.306728,41.2179128 174.784938,40.5971611 172.451065,39.2958816 C171.898916,38.9832067 171.281808,38.6728309 170.72966,38.3003798 C170.114872,37.9279288 169.562723,37.7417033 169.133532,37.7417033 C167.535084,37.7417033 166.73702,38.6107557 166.73702,40.2867853 C166.73702,42.2708916 168.395786,43.82507 171.775959,44.8803479 C174.235109,45.6252499 176.754579,45.9977009 179.336687,45.9977009 C183.700519,45.9977009 187.326607,44.7538984 190.15463,42.2111156 C192.917695,39.6660336 194.332866,36.2496002 194.332866,31.9066373 C194.332866,27.9959016 193.042972,25.0162935 190.400545,22.9057377 C188.67682,21.4780088 185.602881,20.0502799 181.239049,18.622551 L181.239049,18.622551 Z M233.913592,7.0144942 C230.287505,2.35885646 225.431842,2.27373675e-13 219.223647,2.27373675e-13 C213.07809,2.27373675e-13 208.159789,2.35885646 204.533702,7.07656937 C201.213848,11.3597561 199.555081,16.6982207 199.555081,23.0919632 C199.555081,29.3638545 201.274167,34.6379448 204.656659,38.9832067 C208.343065,43.6365454 213.198728,46 219.221327,46 C225.306565,46 230.162228,43.6388445 233.785995,38.9832067 C237.166167,34.7023191 238.887573,29.3615554 238.887573,23.0919632 C238.892212,16.6982207 237.231126,11.2976809 233.913592,7.0144942 L233.913592,7.0144942 Z M232.254826,29.7363055 C231.394123,33.1481407 229.858314,35.8196721 227.707717,37.8060776 C225.371524,39.9787085 222.5435,41.0339864 219.225967,41.0339864 C214.616219,41.0339864 211.052771,39.1073571 208.59362,35.2586965 C206.503342,31.9687125 205.457043,27.8717513 205.457043,22.9678129 C205.457043,17.9397241 206.501022,13.8427629 208.530981,10.6769292 C210.927493,6.89034386 214.490942,5.02808876 219.223647,5.02808876 C223.956352,5.02808876 227.519801,6.89034386 229.916312,10.6769292 C231.943952,13.8427629 232.990251,17.9397241 232.990251,22.9678129 C232.992571,25.5128948 232.746656,27.8096761 232.254826,29.7363055 L232.254826,29.7363055 Z" id="path-1"></path>
    </defs>
    <g id="Page-1" stroke="none" stroke-width="1" fill="none" fill-rule="evenodd">
        <g id="screens/landing" transform="translate(-640.000000, -104.000000)">
            <g id="cta" transform="translate(640.000000, 104.000000)">
                <g id="logo">
                    <rect id="Rectangle-2" fill="#E86340" x="0" y="0" width="46.1033553" height="46" rx="74.8799866"></rect>
                    <path d="M25.292813,25.2361111 L25.292813,31.9444444 C25.292813,33.1787778 24.2887843,34.1805556 23.0516776,34.1805556 C21.8145709,34.1805556 20.8105423,33.1787778 20.8105423,31.9444444 L20.8105423,25.2361111 L14.0871363,25.2361111 C12.8500296,25.2361111 11.846001,24.2343333 11.846001,23 C11.846001,21.7656667 12.8500296,20.7638889 14.0871363,20.7638889 L20.8105423,20.7638889 L20.8105423,14.0555556 C20.8105423,12.8212222 21.8145709,11.8194444 23.0516776,11.8194444 C24.2887843,11.8194444 25.292813,12.8212222 25.292813,14.0555556 L25.292813,20.7638889 L32.0162189,20.7638889 C33.2533256,20.7638889 34.2573543,21.7656667 34.2573543,23 C34.2573543,24.2343333 33.2533256,25.2361111 32.0162189,25.2361111 L25.292813,25.2361111 Z" id="Shape" fill="#FFFFFF"></path>
                    <g id="Shape">
                        <use fill-opacity="0.87" fill="#000000" fill-rule="evenodd" xlink:href="#path-1"></use>
                        <use fill="none" xlink:href="#path-1"></use>
                    </g>
                </g>
            </g>
        </g>
    </g>
</svg>