<?xml version="1.0" encoding="utf-8"?>
<!-- Generator: Adobe Illustrator 19.2.1, SVG Export Plug-In . SVG Version: 6.00 Build 0)  -->
<svg version="1.1" id="Layer_1" xmlns="http://www.w3.org/2000/svg" xmlns:xlink="http://www.w3.org/1999/xlink" x="0px" y="0px"
	 width="183px" height="42px" viewBox="0 0 183 42" style="enable-background:new 0 0 183 42;" xml:space="preserve">
<style type="text/css">
	.st0{fill:#002661;}
	.st1{fill:#FFFFFF;}
</style>
<path class="st0" d="M6.5,12.3c0.1,0.1,0.2,0.1,0.3,0.2c0.4,0.2,0.8,0.5,1.1,0.8c-0.1-0.5-0.6-0.7-0.9-1c-0.2-0.1-0.3-0.2-0.5-0.4
	C6,11.5,5.6,11,5.4,10.2C5.2,9.7,5.2,9.1,5.2,8.4c0-0.4,0.1-0.7,0.1-1.1C5.1,7.5,5,8,5,8.4c-0.1,0.7-0.1,1.4,0.2,2
	C5.4,11.3,5.9,11.8,6.5,12.3z"/>
<path class="st0" d="M3.8,28C3.9,28,3.9,28,3.8,28C4,28,4.1,27.8,4,27.7l-0.1-0.1l-0.2,0.1l-0.2,0.1l0.1,0.1C3.6,28,3.7,28.1,3.8,28
	z"/>
<path class="st0" d="M7.3,9.7c-0.2-0.1-0.5-0.5-0.7-1c-0.2-0.4-0.4-1-0.4-1.6c-0.1-0.7,0.1-1.5,0.4-2C6.8,4.8,7,4.5,7.2,4.3
	C7,4.4,6.7,4.5,6.5,4.7C6,5.2,5.7,6.2,5.8,7.1c0,0.9,0.4,1.7,0.7,2.2C6.8,9.6,7,9.7,7.3,9.7z"/>
<path class="st0" d="M17.6,39.5h-0.1l-0.1,0.4h0.2c0,0.1,0,0.1,0,0.1c0.1,0,0.2-0.1,0.2-0.2C17.9,39.6,17.8,39.5,17.6,39.5z"/>
<polygon class="st0" points="4.7,29.1 4.4,29.2 4.1,29.3 4.2,29.6 4.4,29.4 "/>
<path class="st1" d="M9.7,18.9c0.1,6.7,4.5,12.4,10.5,14.4h0.1c6.1-2,10.5-7.7,10.6-14.4v-0.2v-10H20.3H9.7v10h0.1v0.2H9.7z
	 M11.9,15.2V15h0.3v0.2c0,0.1,0.1,0.2,0.1,0.2h2.1V15h0.3v0.4h2c0.1,0,0.2-0.1,0.2-0.2V15h0.3v0.2c0,0.3-0.2,0.5-0.5,0.5
	c-1.8,0-2.6,0-4.4,0C12.1,15.7,11.9,15.5,11.9,15.2z M18.7,19c0.1,0,0.1,0,0.2,0c0.1-0.1,0.2-0.1,0.4-0.1c0.1-0.1,0.2-0.2,0.3-0.3
	c0,0.2-0.1,0.4,0,0.7c0.1,0.2,0.2,0.3,0.2,0.6c-0.2-0.2-0.4-0.2-0.5-0.6c-0.1,0-0.1-0.1-0.1-0.1c-0.1,0.3-0.1,0.5-0.2,0.7
	c-0.1-0.1-0.1-0.2-0.1-0.4c-0.1-0.1-0.1-0.2-0.2-0.3c-0.1,0.2-0.2,0.3-0.5,0.2c0.1-0.1,0.2-0.3,0.2-0.6c-0.4,0.2-0.8-0.2-0.6-0.6
	c0.1,0.2,0.2,0.2,0.4,0.2c0.2,0,0.3-0.1,0.5-0.2C18.7,18.5,18.8,18.6,18.7,19z M19.7,20c-0.2-0.1-0.3-0.1-0.5-0.1
	c-0.1,0-0.1,0-0.2,0c0.1-0.1,0.1-0.2,0.1-0.3l0.1,0.1C19.3,19.8,19.5,19.9,19.7,20z M18,19.2c-0.1,0.1-0.1,0.2-0.2,0.3
	c0.3,0.2,0.6,0.1,0.8,0c0,0.2,0.1,0.3,0.1,0.4C18.3,20,18,20,17.8,20.1c-0.3,0.1-1.1,0.3-1.2,0.4c0.1-0.2,0.3-0.4,0.2-0.7
	c-0.1,0.1-0.3,0.3-0.6,0.3c0.1-0.2,0.3-0.4,0.2-0.6c-0.2,0.2-0.4,0.2-0.6,0.2c0.1-0.2,0.4-0.6,0.1-0.8c-0.1,0.1-0.2,0.4-0.4,0.4
	c0.2-0.6-0.2-0.7-0.2-1H16l0.1-0.6c-0.5-0.1-1.1,0.1-1.2-0.5v-0.8l-0.4-0.1c0.1-0.1,0.1-0.2,0-0.4c0.2-0.1,0.4,0,0.4,0.1
	c0.2,0.2,0.4,0.6,0.6,0.7c0.3,0.4,0.7,0.3,0.9,0.7c0.2,0.2,0.2,0.6,0.3,0.9C17.1,18.7,17.7,19,18,19.2z M14.5,16.9
	c0.2-0.1,0.2-0.3,0.1-0.5l0.4,0.1v0.9h-0.3C14.8,17.3,14.7,17.1,14.5,16.9z M14.5,17.3c-0.1,0.2-0.2,0.2-0.4,0.2
	c-0.2-0.1-0.3-0.2-0.2-0.3c0-0.1,0.2-0.2,0.4-0.2C14.4,17,14.5,17.1,14.5,17.3z M14.1,16.3c-0.2,0-0.3-0.1-0.2-0.3
	c0-0.1,0.2-0.2,0.4-0.1c0.2,0,0.3,0.2,0.3,0.3C14.5,16.3,14.3,16.3,14.1,16.3z M14.2,16.4c0.2,0.1,0.3,0.2,0.3,0.3
	c-0.1,0.1-0.2,0.2-0.4,0.2c-0.2-0.1-0.4-0.2-0.3-0.3C13.8,16.5,14,16.3,14.2,16.4z M13.9,17.9c0-0.2,0.1-0.3,0.2-0.3h0.7
	c0.1,0,0.2,0.1,0.2,0.3h0.8v0.3H13v-0.3H13.9z M20.5,26.9c-0.3,0.1-0.6,0.1-0.7-0.1c0.1,0.3,0.2,0.4,0.4,0.4
	c-0.7,0.6-0.1,0.9-0.1,1.6c0,0.2-0.2,0.4-0.1,0.6c-0.2,0-0.2-0.1-0.4-0.2c-0.1,0.2-0.1,0.5,0,0.8c-0.2-0.1-0.3-0.1-0.4-0.2
	c-0.1,0.1-0.1,0.3,0,0.4c-0.1-0.1-0.2-0.1-0.4-0.2c0.1,0.5,0,0.9-0.1,1c-0.4,0.1-1.1-0.1-1.5,0.5c-0.4-0.2-0.2-0.5,0.1-0.7
	c-0.2,0-0.4,0-0.6,0.3c-0.5-0.2-0.1-0.6,0.1-0.7c-0.2-0.1-0.5,0.1-0.5,0.3c-0.4-0.2-0.2-1,0.5-0.8c0.4,0.1,0.5,0.3,0.8,0.2
	c0.6-0.1,0.1-0.8,0.6-1.2c0.2-0.2,0.3-0.2,0.6-0.4c-0.1-0.1-0.4,0-0.5,0.1c0-0.2,0.1-0.4,0.2-0.4c-0.2,0-0.4,0.1-0.6,0.3
	c-0.1-0.6,0.3-0.6,0.2-0.8c-0.2,0.2-0.4,0.2-0.6,0.2c0.1-0.2,0.3-0.4,0.3-0.5c-0.2,0-0.4,0-0.6,0.1c0.2-0.4,0.4-0.4,0.7-0.6
	c-0.4,0.1-0.6,0.1-0.9,0c0.7-0.2,0.4-1.2,1.1-1.4c0.7-0.3,1.5-0.4,2.1-1.2c0.1,0.1,0.7,0.2,0.6,0.7c-0.1-0.1-0.2-0.2-0.5-0.2
	c0.2,0.3-0.3,0.9,0.1,1.5c-0.2,0.1-0.2,0.3-0.2,0.6c-0.3,0-0.6-0.2-0.7-0.2C20.1,26.5,20.2,26.7,20.5,26.9z M20.9,24.8
	c0.1,0.1,0.2,0.1,0.4,0.2c0,0.3-0.1,0.6-0.2,0.9C20.7,25.5,21,25.1,20.9,24.8z M23.8,17.8c0.6-0.4,1.4-0.4,2,0.1
	c0.2,0.2,0.4,0.5,0.4,0.9c0,0.9-0.8,1.7-0.9,2.3c0.2-0.4,0.5-0.4,0.6-0.7c0.1,0.5-0.2,0.8-0.4,1c0.2-0.1,0.3-0.1,0.5-0.2
	c0,0.4-0.6,0.7-0.6,0.9c0.1-0.1,0.4-0.1,0.4-0.3c0.1,0.5-0.4,0.7-0.2,1.2c0,0,0.2-0.3,0.4-0.2c-0.2,0.3-0.2,0.9-0.1,1.4
	c0.1,0.7,0.1,1.7-1,1.8c-0.5-0.1-1-0.3-1.3-0.7c0-0.1,0.1-0.7,0-0.8c-0.1,0.7-0.6,0.8-0.1,1.8c-0.3,0.1-0.5-0.1-0.6-0.2
	c-0.1,0.5,0.4,0.9,0.9,1c0.4,0.1,0.9,0.3,0.6,1c0.1,0,0.2,0.1,0.3,0c-0.1,0.2-0.2,0.3-0.4,0.4c0.1,0.2,0.2,0.2,0.5,0.2
	c-0.1,0.2-0.6,0.2-0.7,0.1c0.1,0.1,0.4,0.3,0.5,0.7c0,0-0.3-0.2-0.5-0.1c0.2,0.1,0.4,0.3,0.5,0.6c-0.1-0.1-0.2-0.1-0.3-0.1
	c0.1,0.2,0.1,0.6,0.1,1c-0.4,0.4-1.2,0.6-1.5,0.5c-0.1-0.2,0-0.5,0.2-0.6c-0.4-0.1-0.4,0.3-0.4,0.5c-0.4-0.2-0.3-0.6,0-0.7
	c-0.2-0.1-0.4,0.1-0.4,0.4c-0.4-0.2-0.2-0.6-0.1-0.7c0.2-0.2,0.6-0.1,0.8,0c0.2,0.2,0.4,0.5,0.6,0.2c-0.2-0.2-0.6-1.2-0.3-2.1
	C23.1,28.1,23,28,23,27.8c-0.2,0.1-0.3,0.2-0.4,0.4c-0.3-0.3-0.4-0.7-0.4-0.7c-0.2,0.1-0.4,0.3-0.4,0.6c-0.1-0.2-0.2-0.4-0.2-0.7
	c-0.1,0.2-0.3,0.5-0.6,0.5c0.2-0.3-0.1-0.6-0.2-0.9c-0.1-0.4-0.1-0.7,0.3-0.9c0.1-0.1,0.2-0.3,0.2-0.7c0.1-0.9,0.1-0.9-0.7-1.5
	c-0.7-0.5-1.1-0.8-1-1.7c-0.2,0.1-0.4,0.4-0.5,0.6C19,22.4,19,22.2,19,21.9c-0.2,0.2-0.3,0.4-0.4,0.7c-0.2-0.2-0.2-0.4-0.3-0.7
	c-0.1,0.3-0.2,0.4-0.1,0.9c-0.1-0.1-0.3-0.1-0.4-0.4c-0.1,0.2-0.2,0.4-0.4,0.4c0.1-0.3,0.1-0.6-0.1-0.9c-0.6,0.1-1.4-0.1-2.1-0.3
	c-0.2,0.4-0.8,0.1-0.9-0.2c0.2,0,0.4,0,0.5-0.1c0.2-0.1,0.1-0.3-0.1-0.3c-0.2,0-0.4,0.1-0.5,0.2c-0.3,0.1-0.6,0.1-0.8-0.2
	c-0.1-0.1-0.1-0.3-0.4-0.4c0.1-0.1,0.2-0.2,0.4-0.2c0.2-0.1,0.4,0.1,0.7,0.4c-0.1-0.4-0.6-0.7-0.9-0.6c0.1-0.6,0.7-0.4,0.9-0.1
	c0-0.4-0.3-0.5-0.7-0.4c0.2-0.6,0.7-0.4,1-0.1c0.5,0.7,1.1,0.9,2,0.9c1-0.1,1.8-0.6,3-0.4c0.3,0.1,0.4,0.3,0.4,0.7
	c0.2-0.1,0.4-0.3,0.5-0.5c0.1,0.1,0.2,0.2,0.3,0.5c0.4-0.5,0.4-0.6,0.5-0.9c0.1,0.1,0.2,0.2,0.4,0.5c0.3-0.2,0.4-0.4,0.4-0.8
	c0.4,0.4,0.4,0.7,0.3,1.1c-0.1,0.7,0.1,1.5,0.6,2.1c0.3,0.4,0.7,0.7,0.9,1.4c0.2,0.6,0.4,1.3,1.1,1.2c1.2-0.1,0.6-1.8,0.4-2.4
	c-0.2-0.4-0.4-0.9-0.5-1.4s0.1-0.9,0.3-1.2c0.2-0.4,0.8-1,0.7-1.7c-0.1-1.1-1.5-0.9-1.2-0.1c0.1,0.2,0.2,0.3,0.4,0.3
	c-0.1,0.2-0.4,0.2-0.6,0.1c-0.1-0.1-0.1-0.2-0.2-0.4c-0.1,0.6,0.1,0.6,0.3,0.7c0.1,0.1,0.1,0.1,0.1,0.1c0.2,0.2,0.4,0.6,0.1,1
	c0-0.5-0.1-0.6-0.5-0.9c0.2,0.4,0.4,0.7,0.1,1c0.1-0.2-0.1-0.4-0.3-0.6c-0.2-0.2-0.3-0.5-0.4-0.7s0-0.6,0.1-0.9
	c-0.2,0.2-0.3,0.7-0.3,0.9c0.1,0.2,0.2,0.5,0.4,0.9c0.2,0.3,0.2,0.9-0.3,1c0.3-0.7-0.2-1.1-0.4-1.7C22.8,18.9,23.2,18.1,23.8,17.8z
	 M19.9,19.5c0.2,0,0.6,0.1,0.7,0.3c0.1-0.3,0.2-0.6,0.1-0.9c0,0,0.1,0.1,0.2,0.1c0.1,0.1,0.2,0.2,0.4,0.3c0.2-0.4,0.2-0.7,0.1-0.9
	c0.3,0.1,0.3,0.2,0.4,0.4c0.1-0.2,0.1-0.4,0.2-0.5s0.1-0.1,0.2-0.1c0.2,0.2,0.2,0.6,0.5,0.9c-0.2,0-0.4-0.1-0.7-0.3
	c0,0.1,0,0.1,0,0.1c0.1,0.3,0.5,0.4,0.4,0.9c-0.1-0.1-0.2-0.2-0.4-0.3c-0.1-0.1-0.2-0.1-0.3-0.1c0.1,0.3,0.1,0.6-0.1,0.8
	c-0.2-0.2-0.2-0.4-0.6-0.6c0,0.1-0.1,0.3-0.1,0.4c-0.1,0.2-0.2,0.4-0.2,0.4c-0.1-0.2-0.2-0.2-0.4-0.4c-0.1,0.2-0.1,0.4-0.2,0.5
	c-0.1-0.1-0.1-0.2-0.3-0.4C20,19.8,19.9,19.6,19.9,19.5z M23,20.7c0.1-0.3,0-0.7,0.1-0.9c0.1,0.2,0.1,0.2,0.2,0.5
	C23.3,20.4,23.2,20.6,23,20.7z M22.5,17.9c0.1-0.4,0-0.7-0.3-0.9c0,0.3,0.3,0.6,0,1.1c0-0.1-0.1-0.1-0.1-0.1
	c-0.1-0.1-0.2-0.2-0.2-0.4c-0.2,0.4,0.4,0.5,0.1,1c-0.2-0.3-0.3-0.4-0.7-0.5c0.1,0.3,0.2,0.6,0.1,0.9c-0.1-0.1-0.2-0.1-0.3-0.2
	c-0.1-0.1-0.2-0.1-0.4-0.1c0.1,0.2,0.1,0.5,0,0.8c-0.1-0.1-0.4-0.2-0.6-0.2c0.1-0.3,0.5-0.4,0.2-0.9c0.2,0.1,0.5,0,0.7,0
	c-0.1-0.3-0.1-0.5-0.1-0.7H21c0.2,0.1,0.3,0.2,0.6,0.2c-0.1-0.2,0.1-0.4,0.1-0.6c0.1,0.1,0.4,0.2,0.5,0.1c-0.2-0.1-0.4-0.3-0.6-0.5
	c-0.1,0.3-0.2,0.3-0.2,0.7c-0.1-0.1-0.1-0.1-0.3-0.2L21,17.3c0,0-0.3,0.4-0.2,0.9c-0.2,0.1-0.8-0.1-0.8-0.1c0.3,0.4,0,0.7-0.1,1.2
	v0.1c-0.1-0.2-0.1-0.4-0.1-0.6c0.1-0.2,0-0.6,0-0.6c-0.1,0.1-0.2,0.3-0.4,0.4c-0.1,0.1-0.2,0.1-0.4,0.2c0-0.4,0-0.6,0.1-0.8
	c0.1-0.1,0.1-0.1,0.2-0.2c0.1,0,0.2-0.1,0.3-0.1c-0.2,0.2-0.2,0.4-0.2,0.6c0,0,0.2-0.3,0.4-0.4l0.1-0.1c0.1,0.1,0.2,0.1,0.4,0.1
	c-0.1-0.4-0.1-0.6,0.1-0.8c0.1,0.1,0.2,0.2,0.2,0.5c0.1-0.4,0.2-0.6,0.4-0.9c0,0.1,0.1,0.1,0.1,0.1c0.1,0.1,0.1,0.2,0.1,0.2
	s0.2-0.4,0.2-0.7c0.1,0.2,0.2,0.3,0.5,0.4c0.1-0.2,0.2-0.3,0.2-0.4c0,0,0.1,0,0.1,0.1c0.3,0.1,0.5,0.3,0.7,0.7
	c0.2,0.4,0.2,0.6,0.5,0.9C23,18.1,22.6,18,22.5,17.9z M22,15.3c0.2,0.1,0.4,0.3,0.6,0.3c-0.2,0.2-0.4,0.2-0.6,0.1l0,0
	c-0.1-0.1-0.3-0.2-0.6-0.2C21.7,15.3,21.9,15.2,22,15.3L22,15.3z M18.3,15c0.2-0.1,0.4-0.1,0.6-0.1c0.1,0,0.2-0.1,0.3-0.1h0.1
	c0.2-0.1,0.4-0.1,0.6-0.2c0.2-0.1,0.5-0.1,0.7,0.1c0.2-0.1,0.3-0.1,0.5-0.2c0.1,0,0.3,0,0.4,0.1c0.2,0.2,0.2,0.5,0.1,0.7
	c-0.3,0.1-0.4,0.5-0.5,0.6c0,0.1,0,0.1-0.1,0.1h0.1c0.3-0.1,0.3-0.4,0.5-0.4c0.2,0.2,0.1,0.4,0.1,0.4c0.1-0.1,0.1-0.2,0.2-0.3
	c0.1,0.1,0.2,0.1,0.3,0.2c0.2,0.1,0.6,0.2,0.8,0.2c-0.2,0.3-0.6,0.2-0.8,0.1C22.1,16.1,22,16,22,16c0,0.2-0.1,0.3-0.1,0.5
	c-0.3-0.1-0.4-0.4-0.4-0.5c-0.2,0.3-0.1,0.4-0.2,0.7c-0.1-0.1-0.1-0.1-0.2-0.2s-0.1-0.1-0.2-0.2c-0.1,0.1-0.2,0.4-0.2,0.7
	c-0.1-0.1-0.2-0.2-0.2-0.2c-0.1,0.1-0.4,0.4-0.3,0.8c-0.1-0.1-0.1-0.1-0.2-0.1s-0.2-0.1-0.2-0.1c-0.2,0.1-0.2,0.1-0.3,0.1
	c-0.1,0.1-0.2,0.1-0.3,0.1h-0.1c-0.4-0.1-0.5-0.4-0.4-0.7c0.1,0.1,0.2,0.1,0.4,0.2c0.1,0,0.2,0.1,0.4,0.1c0.2,0,0.4,0,0.4-0.1
	C20,17,20,17,20,16.9c0.1-0.1,0.1-0.3,0-0.4c-0.1-0.2-0.3-0.4-0.6-0.4c-0.1,0-0.2,0-0.4,0c-0.1,0-0.2,0-0.3,0.1
	c-0.1-0.2-0.1-0.2-0.2-0.4C18.1,15.4,17.9,15.3,18.3,15z M18.7,16.5h0.1c0.1,0,0.2,0,0.4,0.1c0.1,0.1,0.2,0.2,0.3,0.4
	c-0.1-0.1-0.2-0.1-0.3-0.1c-0.1,0-0.1,0-0.2-0.1c-0.1,0-0.1,0-0.2,0c-0.4,0.1-0.6,0.3-0.9,0.4c-0.5,0.2-1,0-0.9-0.6
	c0.2,0.2,0.6,0.3,0.8,0.2C18,16.8,18.4,16.6,18.7,16.5z M16.7,10.5c0.1-0.2,0.2-0.4,0.3-0.5c0.1,0.1,0.3,0.4,0.4,0.6
	c0,0.2-0.1,0.4-0.3,0.5c0.1-0.1,0.1-0.4-0.1-0.6c-0.1,0.2-0.1,0.4-0.1,0.6C16.7,11,16.7,10.8,16.7,10.5z M17.2,11.3v0.9h-0.4v-0.9
	H17.2z M16.8,12.3h0.6c-0.1,0.9,0.2,1.1,0.2,2.1h-0.9C16.6,13.4,16.9,13.2,16.8,12.3z M17.7,14.6c0,0.1-0.1,0.2-0.3,0.2h-0.7
	c-0.1,0-0.2-0.1-0.2-0.2H17.7z M14.2,9.7c0.1-0.2,0.2-0.4,0.4-0.5c0.1,0.1,0.3,0.4,0.3,0.6c0.1,0.2,0,0.4-0.3,0.5
	c0.1-0.1,0.1-0.4-0.1-0.6c-0.1,0.2-0.1,0.4-0.1,0.6C14.2,10.2,14.2,9.9,14.2,9.7z M14.8,10.4v1.4h-0.4v-1.4H14.8z M14.2,12h0.6
	c-0.1,0.9,0.3,1.5,0.2,2.5h-0.9C14,13.4,14.4,12.8,14.2,12z M15.3,14.6c0,0.1-0.2,0.2-0.3,0.2h-0.8c-0.2,0-0.3-0.1-0.3-0.2H15.3z
	 M12.1,10c0.1,0.1,0.2,0.4,0.3,0.6c0.1,0.2,0,0.4-0.3,0.5c0.1-0.1,0.1-0.4,0-0.6c-0.2,0.2-0.2,0.4-0.1,0.6c-0.3-0.1-0.3-0.3-0.3-0.6
	C11.8,10.3,11.9,10.1,12.1,10z M12.3,11.3v0.9h-0.4v-0.9H12.3z M11.8,12.3h0.6c-0.1,0.9,0.2,1.1,0.2,2.1h-0.9
	C11.5,13.4,11.9,13.2,11.8,12.3z M12.7,14.6c0,0.1-0.1,0.2-0.2,0.2h-0.7c-0.2,0-0.3-0.1-0.3-0.2H12.7z"/>
<path class="st1" d="M11,36h1.1l2.2-0.1c-0.7-0.2-1.5-0.6-2.2-1c-1.8-1-3.3-2.3-4.6-3.8l-0.2-0.2c-1.8-2.2-3-4.7-4-7.6
	c-0.4,0.6-0.7,1.2-1,1.8c-0.6-0.3-1.1-0.7-1.7-1c0.4,1.4,0.9,2.8,1.5,4.1c1.3,2.7,3.1,5,5.3,7c0.9,0.7,1.8,1.5,2.8,2.1L11,36z
	 M2.6,27.9l1.2-0.6L4,27.2l0.2,0.4c0.2,0.3,0.2,0.6-0.1,0.7c-0.1,0.1-0.2,0.1-0.3,0.1c-0.2,0-0.3-0.1-0.4-0.3L3.3,28l-0.5,0.2
	L2.6,27.9z M3.8,30L4,29.7l-0.2-0.4l-0.3,0.1l-0.2-0.3L3.8,29l0.6-0.2l0.4-0.1l0.1-0.1l0.2,0.3l-0.4,0.4l-0.4,0.4L4,30.3L3.8,30z
	 M4.6,31.2l-0.2-0.3l0.4-0.2l0.7-0.5L5.3,30l0.2-0.2L5.6,30l0.5,0.6l-0.2,0.2l-0.2-0.2H5.6L4.7,31L4.6,31.2z M5.8,32.8l-0.2-0.3
	L6,31.9l-0.1-0.1L5.6,32l-0.2,0.2l-0.2-0.3l0.4-0.4L6.3,31l0.1-0.1l0.2,0.2l0.1,0.1C6.9,31.5,7,31.8,6.6,32c0,0,0,0-0.1,0.1
	s-0.2,0.1-0.3,0.1l-0.1-0.1L5.8,32.8z M6.5,33.5l-0.2-0.2L6.6,33l0.9-0.9l0.2,0.2v0.1L6.5,33.5L6.5,33.5z M7.9,34.9l-0.2-0.2
	l-0.1-0.1l0.1-0.2l0.1-0.1l-0.1-0.1L7.4,34l-0.2,0.2L7,33.9l0.7-0.4L8,33.3l0.4-0.2l0.1,0.1l0.2,0.2l-0.2,0.2l-0.5,1L7.9,34.9z
	 M10,34.8l-0.5-0.4l-0.2,0.3L9.6,35l-0.2,0.2L9,34.9l-0.2,0.3l0.5,0.4l-0.2,0.2l-0.6-0.5l-0.1-0.1L8.5,35l0.9-1l0.7,0.6L10,34.8z"/>
<path class="st0" d="M11.8,37.8L11.7,38l-0.3,0.8c0.1,0.1,0.2,0,0.3,0c0.1-0.1,0.2-0.2,0.2-0.4C12.1,38.1,12.1,37.9,11.8,37.8z"/>
<path class="st0" d="M6.5,31.7c0.1-0.1,0.1-0.2,0-0.3l-0.1-0.1l-0.1,0.1L6,31.6l0.1,0.1c0.1,0.1,0.1,0.1,0.1,0.1
	C6.3,31.8,6.4,31.8,6.5,31.7z"/>
<path class="st1" d="M16.1,39.2c-0.1,0-0.1,0-0.1,0c-0.1,0.1-0.2,0.4-0.2,0.5c-0.1,0.1-0.1,0.5,0.1,0.6c0.1,0,0.1,0,0.1,0
	c0.2-0.1,0.2-0.4,0.2-0.5C16.3,39.7,16.4,39.3,16.1,39.2z"/>
<polygon class="st0" points="7.7,33.8 7.9,34.1 8,33.9 8.2,33.4 8,33.6 "/>
<path class="st0" d="M11.8,36.4c0.1,0.1,0.2,0.1,0.3,0.1c0.7,0.3,1.4,0.6,2.1,0.9l0.2-1h-2.3H11.8z"/>
<path class="st0" d="M20.1,15.8c0.1,0,0.2-0.2,0.1-0.2c-0.2-0.1-0.3-0.2-0.4-0.3s-0.2-0.2-0.4-0.4c-0.1,0.1-0.1,0.2,0.1,0.3
	c-0.1,0.1-0.1,0.2-0.1,0.4c-0.1,0.1-0.2,0.1-0.2,0.2c0.1-0.1,0.4-0.1,0.6-0.1C19.9,15.8,20,15.8,20.1,15.8z M19.6,15.4
	c0,0.1,0.1,0.1,0.1,0.1c0.1,0.1,0.1,0.1,0.2,0.1c-0.1,0-0.1,0-0.2,0c-0.1-0.1-0.2-0.1-0.2-0.1C19.6,15.5,19.6,15.5,19.6,15.4z"/>
<path class="st0" d="M34.1,5.1c0.3,0.6,0.4,1.3,0.4,2c0,0.6-0.2,1.2-0.4,1.6c-0.3,0.5-0.6,0.9-0.7,1c0.2,0,0.5-0.2,0.7-0.4
	c0.4-0.5,0.7-1.3,0.7-2.2s-0.2-1.8-0.7-2.4c-0.2-0.2-0.4-0.3-0.7-0.4C33.7,4.6,33.9,4.8,34.1,5.1z"/>
<path class="st0" d="M20.6,1.4h-0.2h-0.2h-0.6h-0.7v3.1c0,0.2,0.1,0.4,0.2,0.4c0.1,0.1,0.3,0.2,0.5,0.3c0.2,0.1,0.4,0.2,0.6,0.4
	c0.1,0.1,0.2,0.1,0.2,0.1c0.1,0,0.2-0.1,0.2-0.1c0.2-0.1,0.4-0.2,0.7-0.4c0.2-0.1,0.3-0.2,0.4-0.3c0.1-0.1,0.2-0.2,0.2-0.4V1.4h-0.6
	H20.6z M21.5,1.7v2.8h-0.3h-0.4c-0.1,0.2-0.1,0.4-0.3,0.6c-0.1,0.1-0.1,0.1-0.2,0.1s-0.2-0.1-0.2-0.1c-0.1-0.2-0.2-0.4-0.3-0.6h-0.3
	h-0.4V1.7c0.1,0,0.2,0.1,0.4,0.2c0.2,0.2,0.3,0.7,0.3,1v0.4c-0.2,0.1-0.2,0.1-0.2,0.2c0,0.2,0.1,0.2,0.2,0.2C19.9,3.6,20,3.5,20,3.3
	c0.1-0.2,0.2-0.4,0.2-0.6c0-0.2-0.1-0.6-0.1-0.8c0-0.1,0-0.4,0.1-0.6c0.2,0.2,0.2,0.5,0.2,0.6c0,0.2-0.1,0.6-0.1,0.8
	c0,0.2,0.1,0.4,0.1,0.6c0.1,0.2,0.2,0.3,0.2,0.4c0.1-0.1,0.3-0.1,0.3-0.2c0-0.1-0.1-0.2-0.2-0.2V3c0-0.3,0.1-0.8,0.4-1
	C21.3,1.8,21.4,1.7,21.5,1.7z"/>
<path class="st0" d="M19.4,3.8h-0.1v0.6h0.2h0.3c0-0.1,0-0.2,0-0.2C19.6,4,19.5,4,19.5,3.9C19.4,3.8,19.4,3.8,19.4,3.8z"/>
<path class="st0" d="M34.1,11.9c-0.2,0.1-0.3,0.2-0.5,0.4c-0.4,0.2-0.9,0.5-0.9,1c0.3-0.3,0.7-0.6,1-0.8c0.1-0.1,0.2-0.1,0.4-0.2
	c0.6-0.5,1.1-1,1.4-1.8c0.2-0.7,0.3-1.4,0.2-2c-0.1-0.4-0.1-1-0.4-1.1c0.1,0.4,0.1,0.7,0.1,1.1c0,0.6,0,1.2-0.2,1.8
	C35,11,34.6,11.5,34.1,11.9z"/>
<path class="st0" d="M20,4.5c0,0.1,0,0.2,0.1,0.2c0.1,0.1,0.1,0.1,0.1,0.1l0.1-0.1V4.5H20L20,4.5z"/>
<path class="st0" d="M19.5,3.5c0-0.1,0.1-0.1,0.1-0.2V3c0-0.2-0.1-0.6-0.1-0.7C19.4,2.2,19.3,2,19.3,2v1.5h0.1
	C19.4,3.5,19.4,3.5,19.5,3.5z"/>
<path class="st0" d="M20.4,4.2L20.4,4.2l0.1,0.1h0.1c0-0.1,0-0.2,0-0.2c-0.1,0-0.1,0.1-0.1,0.1C20.5,4.1,20.4,4.2,20.4,4.2z"/>
<path class="st0" d="M21.2,3.9C21.1,4,21,4,20.9,4.1c0,0.1,0.1,0.2,0.1,0.2h0.3h0.1V3.8h-0.1C21.2,3.8,21.2,3.8,21.2,3.9z"/>
<path class="st0" d="M21.1,3v0.2c0.1,0.1,0.1,0.1,0.2,0.2c0,0,0,0.1,0.1,0.1h0.1V2c-0.1,0-0.1,0.1-0.1,0.2C21.1,2.5,21.1,2.8,21.1,3
	z"/>
<path class="st0" d="M20.6,4c0-0.1-0.1-0.1-0.1-0.1c-0.1-0.1-0.2-0.2-0.2-0.4h-0.1C20.1,3.6,20,3.7,20,3.9C20,4,20,4,20,4
	c0.1,0,0.2,0.1,0.2,0.1C20.4,4,20.5,4,20.6,4L20.6,4z"/>
<path class="st0" d="M20.4,4.5v0.3l0.1,0.1c0-0.1,0.1-0.1,0.1-0.1c0.1-0.1,0.1-0.1,0.1-0.2h-0.1h-0.2V4.5z"/>
<path class="st0" d="M20,4.1c-0.1,0.1-0.1,0.2-0.1,0.2H20h0.2V4.2C20.2,4.2,20.1,4.1,20,4.1L20,4.1z"/>
<path class="st0" d="M20.9,15.5c0.1-0.2,0.4-0.4,0.3-0.7c-0.1,0-0.2,0-0.3,0c-0.1,0-0.2,0-0.4,0C20.5,15.1,20.7,15.4,20.9,15.5z
	 M20.9,15c0.1,0,0.1,0,0.2,0c0,0.1-0.1,0.2-0.2,0.2c-0.1-0.1-0.2-0.2-0.2-0.2C20.8,15,20.9,15,20.9,15z"/>
<path class="st0" d="M28.9,36.4h-1.4h-1.4l0.3,1c0.4-0.1,0.7-0.3,1-0.4C27.9,36.8,28.4,36.6,28.9,36.4z"/>
<path class="st1" d="M27.5,37.4C22.3,39.3,17.3,39.2,12,37c-0.3-0.1-0.6-0.2-0.9-0.4c-0.4,0.8-0.8,1.5-1.2,2.3
	c0.7,0.4,1.4,0.8,2.2,1.1c2.6,1.2,5.4,1.7,8.2,1.7c2.5,0,4.9-0.4,7.2-1.2c1.1-0.4,2.2-0.9,3.2-1.5c-0.4-0.8-0.9-1.5-1.2-2.3
	C28.8,36.8,28.2,37.1,27.5,37.4z M12.3,38.6C12.2,38.8,12,39,11.7,39c-0.1,0-0.2,0-0.4-0.1L11,38.8l0.7-1.4h0.1l0.2,0.1
	C12.4,37.8,12.5,38.1,12.3,38.6z M13.5,38.9l-0.1,0.2L13,39l-0.1,0.4l0.6,0.2l-0.1,0.2l-0.9-0.3L13,38l0.9,0.3l-0.1,0.2l-0.6-0.2
	l-0.1,0.3L13.5,38.9z M15.1,39.3l-0.3-0.1c0.1-0.2,0-0.4-0.1-0.4c-0.2-0.1-0.4,0.3-0.4,0.4c-0.1,0.2-0.2,0.5,0.1,0.6
	c0.1,0.1,0.2,0,0.3-0.2l0.3,0.1c-0.1,0.3-0.4,0.5-0.7,0.4c-0.4-0.1-0.4-0.6-0.3-1c0.1-0.4,0.4-0.7,0.8-0.6
	C15.1,38.7,15.2,38.9,15.1,39.3z M16.6,39.8c-0.1,0.5-0.3,0.7-0.6,0.7c-0.1,0-0.1,0-0.2-0.1c-0.4-0.1-0.4-0.6-0.4-0.9
	c0.1-0.4,0.3-0.7,0.6-0.7c0.1,0,0.1,0,0.2,0C16.6,39,16.7,39.5,16.6,39.8z M17.9,40.2l0.2,0.7l-0.4-0.1l-0.1-0.3l-0.1-0.3l-0.1-0.1
	l-0.1,0.6h-0.4l0.2-1.6l0.4,0.1h0.1c0.3,0.1,0.6,0.2,0.5,0.6C18.2,40,18,40.1,17.9,40.2z M18.9,41h-0.4l0.2-1.6l0.3,0.1L18.9,41z
	 M21.1,40.6c0.1,0.1,0.1,0.1,0.2,0.1s0.2-0.1,0.2-0.3h0.3c0,0.1,0,0.3-0.1,0.4c-0.1,0.1-0.2,0.1-0.4,0.2c-0.2,0-0.4-0.1-0.4-0.2
	c-0.1-0.2-0.2-0.4-0.2-0.6c0-0.2,0.1-0.5,0.1-0.6c0.1-0.1,0.2-0.2,0.4-0.2c0.4,0,0.6,0.2,0.6,0.6h-0.3c-0.1-0.2-0.1-0.4-0.2-0.3
	c-0.1,0-0.1,0-0.2,0.1C21,39.9,21,40,21,40.3C21.1,40.5,21.1,40.6,21.1,40.6z M22.3,41l-0.2-1.6l0.4-0.1l0.2,1.6L22.3,41z
	 M23.9,40.7l-0.4,0.1l-0.7-1.5l0.4-0.1l0.4,1.2l0.1-1.2L24,39L23.9,40.7z M24.7,40.5L24.3,39l0.4-0.1l0.4,1.6H24.7z M26.2,40.2H26
	l-0.4,0.1l-0.4-1.5l0.5-0.1c0.1-0.1,0.2-0.1,0.3-0.1c0.1,0,0.2,0.1,0.3,0.3c0.1,0.2,0,0.3-0.1,0.4c0.2,0.1,0.3,0.1,0.4,0.3
	C26.7,39.9,26.4,40,26.2,40.2z M27.7,39.7c-0.2,0.1-0.4,0.1-0.6-0.1c-0.1-0.1-0.1-0.2-0.2-0.4l-0.4-0.9l0.4-0.1l0.3,0.9
	c0.1,0.1,0.1,0.2,0.1,0.2c0.1,0.1,0.1,0.1,0.2,0.1c0.1-0.1,0.1-0.1,0.1-0.2c0,0-0.1-0.1-0.1-0.2l-0.2-1l0.3-0.1l0.3,0.8
	C28,38.9,28,39,28,39.1C28.1,39.4,27.9,39.5,27.7,39.7z M29.2,39c-0.2,0.2-0.6,0.1-0.7-0.1l0.2-0.2c0.1,0.2,0.2,0.2,0.4,0.1
	c0.1,0,0.2-0.1,0.1-0.2c-0.1-0.1-0.2-0.1-0.3-0.1c-0.1,0-0.2,0-0.4,0c-0.2-0.1-0.4-0.4-0.3-0.6c0.1-0.1,0.1-0.2,0.3-0.3
	c0.2-0.1,0.4-0.1,0.6,0.1l-0.2,0.2c-0.1-0.1-0.2-0.1-0.2-0.1c-0.1,0.1-0.1,0.1-0.1,0.2c0.1,0.1,0.2,0.1,0.4,0.1c0.2,0,0.5,0,0.6,0.2
	C29.5,38.6,29.5,38.8,29.2,39z"/>
<path class="st0" d="M26,39.5C25.9,39.5,25.9,39.5,26,39.5l-0.2,0.1l0.1,0.4l0.1-0.1l0,0c0.1-0.1,0.2-0.2,0.1-0.3
	C26.2,39.5,26.1,39.5,26,39.5z"/>
<path class="st0" d="M26,39.1C26,39,26,39,26,39.1L26,39.1c-0.1-0.2-0.2-0.2-0.3-0.2L25.6,39l0.1,0.4l0.1-0.1
	C25.9,39.2,26,39.2,26,39.1z"/>
<path class="st0" d="M31.8,34.4c-0.1-0.1-0.2-0.1-0.2-0.2c-0.1-0.1-0.2-0.1-0.3,0.1h-0.1v0.1l0.6,0.7l0.1-0.1H32
	c0.1-0.1,0.1-0.1,0-0.2C32,34.6,31.9,34.6,31.8,34.4z"/>
<polygon class="st0" points="34.6,31 34.9,31.3 35,31.5 35.2,31.3 34.9,31.1 "/>
<path class="st0" d="M36.9,28.5c-0.1-0.1-0.1-0.1-0.1-0.1c-0.1-0.1-0.2-0.1-0.3-0.1s-0.2,0-0.2,0.1s-0.1,0.1-0.1,0.2l0.1,0.1
	l0.7,0.4l0.1,0.1c0.1-0.2,0.1-0.3,0-0.4C37,28.5,37,28.5,36.9,28.5z"/>
<path class="st1" d="M38.4,25.2c-0.3-0.6-0.6-1.2-1-1.8c-0.9,2.8-2.2,5.4-3.9,7.6c-1.5,1.9-3.4,3.5-5.8,4.6
	c-0.4,0.1-0.7,0.3-1.1,0.4l1.1,0.1h2.1l0.7,1.3c3.6-2.2,6.4-5.4,8.2-9.1c0.6-1.3,1.1-2.6,1.5-4.1C39.5,24.5,38.9,24.9,38.4,25.2z
	 M31.2,35.8L31,36l-0.5,0.4l-0.9-1.2l0.7-0.6l0.2,0.2L30,35.2l0.2,0.3l0.4-0.3l0.2,0.2l-0.4,0.2l0.2,0.3l0.4-0.3l0.1-0.1L31.2,35.8
	L31.2,35.8L31.2,35.8z M32.1,35.2L32.1,35.2L32,35.4l-0.2,0.2L31.3,35L31,34.6l-0.2-0.3l0.2-0.2l0.1-0.1c0.1,0,0.1-0.1,0.1-0.1
	c0.2-0.1,0.4-0.1,0.5-0.1c0.1,0.1,0.2,0.1,0.2,0.2c0.1,0,0.1,0.1,0.1,0.1l0.1,0.1c0.1,0.1,0.1,0.2,0.1,0.2
	C32.4,34.9,32.3,35,32.1,35.2z M33.4,34.1L33.4,34.1c-0.4,0.4-0.6,0.2-0.9-0.1l-0.4-0.4L32,33.4v-0.1l0.2-0.2l0.1-0.1l0.6,0.7
	c0.1,0.1,0.3,0.3,0.5,0.1c0.1-0.1-0.1-0.3-0.2-0.4l-0.6-0.6l0.2-0.2l0.6,0.6c0,0.1,0.1,0.1,0.1,0.2C33.6,33.7,33.7,33.9,33.4,34.1z
	 M34.6,33C34.5,33.1,34.5,33.1,34.6,33c-0.2,0.2-0.3,0.2-0.4,0.2c-0.2,0-0.4-0.1-0.6-0.2c-0.1-0.1-0.1-0.2-0.2-0.2
	c-0.1-0.1-0.1-0.2-0.1-0.3c-0.1-0.1,0-0.3,0.1-0.4c0.2-0.2,0.5-0.2,0.8,0l-0.2,0c-0.2-0.1-0.3-0.2-0.4-0.1c0,0.1-0.1,0.1,0,0.2
	c0,0.1,0.1,0.2,0.2,0.4c0.2,0.1,0.2,0.2,0.4,0.2c0.1,0.1,0.1,0,0.2-0.1c0.1-0.1,0.1-0.2-0.1-0.4l0.2-0.2h0.1
	c0.1,0.1,0.2,0.2,0.2,0.4C34.7,32.7,34.7,32.8,34.6,33z M35.7,31.5l-0.2-0.2l-0.3,0.4l0.2,0.2l-0.2,0.2L35,31.7l-0.4-0.6l-0.2-0.3
	l0.2-0.3v0.1l0.4,0.1l0.6,0.2l0.5,0.2L35.7,31.5z M36.6,30.2l-0.4-0.1L35.5,30l0.8,0.6l0.1,0.1l-0.1,0.1l-0.1,0.1l-0.7-0.5L34.9,30
	l0.2-0.3l0.3,0.1l0.7,0.1l-0.7-0.4l-0.1-0.1l0.1-0.1l0.1-0.1l0.7,0.6l0.6,0.3L36.6,30.2z M37.3,29l-0.2,0.4l-0.2-0.1l-0.7-0.4
	l-0.5-0.3l0.2-0.3c0.1-0.1,0.2-0.2,0.3-0.3c0.1-0.1,0.2-0.1,0.2-0.1c0.1,0,0.3,0.1,0.4,0.1H37c0.1,0.1,0.2,0.1,0.2,0.2
	c0.1,0.1,0.1,0.2,0.2,0.2C37.5,28.7,37.4,28.8,37.3,29z M37.9,28l-0.4-0.1l-0.6-0.3l-0.5-0.2l0.2-0.3l0.3,0.2l0.6,0.2l0.5,0.2
	L37.9,28z M37.9,27.1l0.1-0.3c0.1,0,0.2-0.1,0.3-0.2s0-0.2-0.2-0.2c-0.1,0.1-0.1,0.1-0.2,0.1c-0.1,0.2-0.2,0.3-0.4,0.3
	c-0.1,0-0.1,0-0.2-0.1c-0.2-0.1-0.3-0.4-0.2-0.6s0.2-0.3,0.5-0.3c0,0,0,0,0.1,0v0.3c-0.1,0-0.1,0-0.1,0c-0.1,0-0.2,0-0.2,0.1
	s0.1,0.2,0.2,0.2c0.1,0,0.1,0,0.1,0c0-0.1,0.1-0.1,0.1-0.2c0.2-0.1,0.4-0.3,0.6-0.2c0.3,0.1,0.4,0.4,0.2,0.7
	C38.4,27,38.2,27.1,37.9,27.1z"/>
<path class="st0" d="M9.2,19c0.2,7,4.7,12.7,11,14.8l0.1,0.1h0.1l0.1-0.1c6.3-2,10.8-7.8,11-14.8V8.1H20.3H9.2V19z M9.7,8.7h10.6
	h10.6v10v0.2c-0.1,6.7-4.5,12.4-10.6,14.4h-0.1c-6-2-10.5-7.7-10.5-14.4v-0.2h0V8.7z"/>
<path class="st0" d="M21.5,7.6c-0.1,0-0.2-0.2-0.2-0.5c0-0.2,0.1-0.4,0.2-0.6s0.2-0.2,0.5-0.3l0,0c-0.2,0.1-0.5,0.2-0.7,0.3
	C21.1,6.7,21,6.9,21,7.2c0,0.4,0.2,0.6,0.6,0.6c0.3,0,0.5-0.2,0.5-0.5c0-0.2-0.1-0.4-0.4-0.4c-0.1,0-0.2,0.1-0.2,0.1
	c0.1,0,0.1,0,0.1,0c0.2,0,0.2,0.3,0.2,0.4C21.7,7.5,21.7,7.6,21.5,7.6z"/>
<path class="st0" d="M19.1,7.6c-0.2,0-0.2-0.2-0.2-0.5c0-0.2,0.1-0.4,0.2-0.6s0.2-0.2,0.5-0.3c0-0.1,0-0.1,0-0.1
	c-0.2,0.1-0.6,0.2-0.7,0.3c-0.2,0.2-0.2,0.4-0.2,0.7C18.7,7.5,18.9,7.7,19.1,7.6c0.4,0.1,0.7-0.1,0.7-0.4c0-0.2-0.2-0.4-0.4-0.4
	C19.1,6.8,19,6.9,19,7c0,0,0,0,0.1,0c0,0,0,0,0.1,0c0.2,0,0.2,0.3,0.2,0.4C19.3,7.5,19.3,7.6,19.1,7.6z"/>
<path class="st0" d="M17,7.5V6.6c0-0.1,0-0.2,0-0.3h-0.1c0,0-0.1,0.1-0.2,0.1c-0.1,0.1-0.2,0.1-0.3,0.1c0,0,0,0.1,0.1,0.1l0.1,0.1
	c0.1,0,0.1,0,0.1,0.2v0.7c0,0.2,0,0.2-0.1,0.2h-0.1c0,0,0,0.1,0.1,0.1s0.2,0,0.3,0c0.2,0,0.3,0,0.4,0V7.6h-0.1C17,7.6,17,7.6,17,7.5
	z"/>
<path class="st0" d="M23.5,7.6L23.5,7.6C23.4,7.6,23.4,7.7,23.5,7.6c0,0.1,0.1,0.1,0.3,0.1c0.1,0,0.2,0,0.3,0c0.1,0,0.1-0.1,0-0.1
	H24c-0.1,0-0.1,0-0.1-0.2V6.6c0-0.1,0-0.2,0-0.3c0,0,0,0-0.1,0c0,0-0.1,0.1-0.2,0.1c-0.1,0.1-0.2,0.1-0.2,0.1c-0.1,0-0.1,0.1,0,0.1
	l0.1,0.1c0.1,0,0.1,0,0.1,0.2L23.5,7.6C23.6,7.6,23.6,7.6,23.5,7.6z"/>
<path class="st0" d="M20.9,3v0.4c0.2,0.1,0.2,0.1,0.2,0.2c0,0.2-0.2,0.2-0.3,0.2c-0.1-0.1-0.2-0.2-0.2-0.4c-0.1-0.2-0.1-0.4-0.1-0.6
	c0-0.2,0.1-0.6,0.1-0.8c0-0.1,0-0.4-0.2-0.6c-0.1,0.2-0.1,0.5-0.1,0.6c0,0.2,0.1,0.6,0.1,0.8c0,0.2-0.1,0.4-0.2,0.6
	C20.1,3.6,20,3.7,20,3.8c-0.1-0.1-0.2-0.1-0.2-0.2c0-0.1,0-0.2,0.2-0.2V3c0-0.3-0.1-0.8-0.3-1c-0.1-0.1-0.2-0.2-0.4-0.2v2.8h0.4H20
	c0.1,0.2,0.2,0.4,0.3,0.6c0.1,0.1,0.2,0.1,0.2,0.1c0.1,0,0.2-0.1,0.2-0.1C20.9,5,20.9,4.8,21,4.6h0.4h0.3V1.7
	c-0.1,0-0.2,0.1-0.3,0.2C21,2.2,20.9,2.7,20.9,3z M19.3,2c0.1,0,0.1,0.1,0.2,0.2c0.1,0.2,0.1,0.5,0.1,0.7v0.2
	c-0.1,0.1-0.1,0.1-0.1,0.2c-0.1,0-0.1,0.1-0.1,0.1h-0.1V2z M19.8,4.3h-0.3h-0.2V3.8h0.1c0,0,0,0.1,0.1,0.1c0,0.1,0.1,0.1,0.3,0.2
	V4.3z M20.3,4.8L20.3,4.8c-0.1,0-0.1,0-0.2-0.1C20,4.7,20,4.6,20,4.5h0.1h0.2C20.3,4.5,20.3,4.8,20.3,4.8z M20.3,4.3h-0.2H20
	c0-0.1,0-0.2,0.1-0.2l0.1,0.1c0.1,0,0.1,0.1,0.2,0.1l0,0H20.3z M20.1,4C20.1,3.9,20.1,3.9,20.1,4c0.1-0.2,0.2-0.3,0.2-0.5h0.1
	c0,0.1,0.1,0.2,0.2,0.4C20.6,4,20.7,4,20.7,4h-0.1c-0.1,0-0.2,0.1-0.2,0.1C20.3,4,20.2,4,20.1,4z M20.6,4.8c0,0.1-0.1,0.1-0.1,0.1
	l-0.1-0.1V4.5h0.1h0.1C20.6,4.6,20.6,4.7,20.6,4.8z M20.7,4.3h-0.1h-0.1V4.2l0.1-0.1c0.1,0,0.1-0.1,0.1-0.1
	C20.7,4.1,20.7,4.3,20.7,4.3z M21.4,4.3h-0.1H21c0-0.1-0.1-0.2-0.1-0.2C21,4,21.1,4,21.2,3.9c0-0.1,0-0.1,0.1-0.1h0.1
	C21.4,3.8,21.4,4.3,21.4,4.3z M21.4,3.6L21.4,3.6c-0.1-0.1-0.1-0.1-0.1-0.1c-0.1-0.1-0.1-0.1-0.2-0.2V3c0-0.2,0.1-0.6,0.2-0.7
	c0-0.1,0-0.3,0.1-0.3V3.6z"/>
<path class="st0" d="M22.1,1.1h-0.9h-0.7h-0.2h-0.2h-0.6h-0.9v3.3c0,0.2,0.1,0.5,0.3,0.7c0.2,0.1,0.4,0.2,0.6,0.4
	c0.2,0.1,0.4,0.2,0.6,0.4c0.1,0,0.2,0.1,0.2,0.1l0.2-0.1c0.2-0.1,0.4-0.2,0.7-0.4c0.2-0.1,0.4-0.2,0.6-0.4c0.2-0.2,0.3-0.4,0.3-0.7
	V1.1z M21.9,4.4c0,0.2-0.1,0.4-0.2,0.4c-0.1,0.1-0.2,0.2-0.4,0.3c-0.2,0.1-0.5,0.3-0.7,0.4c-0.1,0.1-0.2,0.1-0.2,0.1
	c-0.1,0-0.1-0.1-0.2-0.1c-0.2-0.1-0.4-0.2-0.6-0.4c-0.3,0-0.5-0.1-0.6-0.2s-0.2-0.2-0.2-0.4V1.4h0.7h0.6h0.2h0.2h0.7h0.6L21.9,4.4
	L21.9,4.4z"/>
<path class="st0" d="M19.9,35c0.1,0.3,0.2,0.6,0.4,0.7c0.2-0.2,0.4-0.4,0.4-0.7C20.9,34.4,19.8,34.4,19.9,35z"/>
<path class="st0" d="M6.5,17.1c0.1,0.4,0.1,0.9,0,1.3c0,0.2-0.1,0.6-0.1,0.9c0.1,0,0.1,0,0.1,0c0.3-0.1,0.6-0.3,0.7-0.5
	c0.3-0.4,0-0.9,0.2-1.2c0.2,0.1,0.2,0.3,0.2,0.5c0.3-0.4,0.2-0.8-0.1-1.2c-0.2-0.4-0.4-1-0.2-1.5c0,0,0.1,0.8,0.4,1.2
	c0.2,0.2,0.4,0.5,0.7,0.6c0.2-1-0.6-1.3-0.5-1.9c0.2,0.2,0.4,0.2,0.5,0.3c-0.1-0.9-0.6-1-0.9-1.6c0.1,0,0.4,0.1,0.6,0.3
	C8.2,14,8,13.7,7.9,13.6c0.1,0,0.4,0.1,0.6,0.4c0.2-0.5,0.1-0.9-0.1-1c-0.2-0.4-0.6-0.5-0.7-0.9c0.1,0,0.2-0.1,0.4,0
	c-0.1-0.3-0.3-0.5-0.6-0.6c-0.4-0.2-0.8-0.3-1.1-0.6l-0.1-0.1c-0.2-0.2-0.2-0.6,0.1-0.6h0.1C6.8,10,6.8,10.4,7,10.6
	c0.1,0.2,0.4,0.3,0.7,0.3c-0.1-0.2-0.2-0.4-0.2-0.7c0.3,0.1,0.4,0.7,1.1,0.6c0.1-1-1-0.7-0.9-1.4c0.2,0,0.3,0.1,0.6,0.2
	c0.1-0.8-0.6-0.7-0.6-1c0.2,0,0.6,0,0.9-0.2C8.3,8.3,7.9,8.1,7.8,7.9c0.4-0.1,0.7-0.1,0.9-0.4C7.9,7.4,7.3,6.8,7.3,6.2
	C7.1,5.4,7.3,5,7.6,4.5C8.2,4,9,3.7,9.8,4.1c0.5,0.2,0.7,0.7,0.6,1.2c-0.1,0.6-0.7,0.9-1.2,0.9C8.2,6.1,8.5,4.8,9,4.9
	c-0.4,0.3-0.2,1,0.4,1C9.9,5.8,10.1,5.4,10,5C9.9,4.5,9.5,4.3,9,4.3c-0.7,0-1.1,0.6-1.1,1.2c0,0.7,0.6,1.2,1.3,1.3
	C10.2,6.9,11,6,11,5.2C11,4,9.8,3.3,8.7,3.3C7.9,3.3,7.1,3.6,6.5,4C5.1,5,4.3,6.8,4.2,8.7v0.6c0,0.6,0.1,1.2,0.3,1.7
	C5.3,13.2,6.3,15,6.5,17.1z M6.5,4.7C6.7,4.5,7,4.4,7.1,4.3C6.9,4.6,6.7,4.8,6.5,5.1c-0.3,0.6-0.4,1.3-0.4,2c0,0.6,0.2,1.2,0.4,1.6
	c0.2,0.5,0.6,0.9,0.7,1C7,9.7,6.8,9.6,6.5,9.3C6.2,8.8,5.8,8,5.8,7.1C5.7,6.2,6,5.2,6.5,4.7z M5,8.4C5,8,5.1,7.5,5.4,7.3
	C5.3,7.7,5.2,8.1,5.2,8.4c-0.1,0.6,0,1.2,0.2,1.8C5.6,11,6,11.5,6.5,11.9C6.7,12,6.8,12.1,7,12.3c0.4,0.2,0.9,0.5,0.9,1
	c-0.3-0.3-0.7-0.6-1.1-0.8c-0.1-0.1-0.2-0.1-0.3-0.2c-0.6-0.5-1.1-1-1.4-1.8C4.9,9.8,4.9,9.1,5,8.4z"/>
<path class="st0" d="M33.8,26.8c0.8-2.2-0.2-3,0.3-4.1c-0.9,0.2-0.8,1.5-0.8,1.7c-0.2-0.1-0.4-0.4-0.6-0.6c-0.5,0.7,0.5,1.5,0.4,2.1
	c0,0.5-0.7,0.6-0.6-0.1c0.1-0.2,0.1-0.6,0.1-0.7c-0.1,0.1-0.2,0.3-0.4,0.4c-0.1-0.2,0.1-0.6-0.2-0.9c-0.1,0.2-0.2,0.4-0.4,0.5
	c0.1-0.4-0.1-0.7-0.4-0.7c0.2,0.4,0,0.9-0.1,1.3c-0.2,0.9,0.1,1.2,0.2,1.8c0.1,0.7-0.8,0.7-0.7,0c0-0.3,0.2-0.6,0.1-1
	c-0.1,0.2-0.2,0.2-0.4,0.4c0-0.2-0.1-0.4-0.2-0.6c-0.2,0.4-0.1,1-0.1,1.4c-0.1-0.1-0.3-0.2-0.5-0.2c0.3,0.3,0.6,0.9,0.6,1.6
	c-0.1,0.7-0.6,1-1.2,1.2c0.6-0.4,0.7-0.7,0.6-1.2c-0.1,0.2-0.2,0.4-0.5,0.5c0.3-0.6,0.2-0.9,0.1-1c-0.2,0.6-1,1-1.4,1.5
	c-0.6,0.6-0.7,1.2-1.1,1.8c-0.7,0.9-1.7,1.2-2.3,2.8c-0.4-0.1-0.8-0.4-1-0.6c-0.1,0.4-0.2,0.9-0.6,1.2c-0.3-0.1-0.8-0.4-0.9-0.6
	c-0.2,0.7-0.7,1.5-1.4,1.7c-0.7-0.2-1.2-1-1.4-1.7c-0.1,0.2-0.6,0.5-1,0.6c-0.3-0.4-0.4-0.9-0.6-1.2c-0.2,0.2-0.6,0.5-1,0.6
	c-0.7-1.5-1.7-1.9-2.3-2.8c-0.5-0.6-0.6-1.2-1.1-1.8c-0.4-0.5-1.2-0.9-1.4-1.5c-0.1,0.2-0.2,0.5,0.1,1c-0.3-0.1-0.4-0.3-0.5-0.5
	c-0.1,0.4,0.1,0.7,0.6,1.2c-0.6-0.1-1-0.4-1.2-1.2c-0.1-0.7,0.2-1.3,0.6-1.6c-0.2,0-0.4,0.1-0.5,0.2c0.1-0.4,0.2-1-0.1-1.4
	c-0.1,0.1-0.2,0.4-0.2,0.6c-0.2-0.2-0.3-0.2-0.4-0.4c-0.2,0.4,0,0.7,0.1,1c0.1,0.7-0.9,0.7-0.7,0c0.1-0.6,0.4-0.9,0.2-1.8
	c-0.1-0.4-0.3-0.9-0.1-1.3c-0.4,0.1-0.5,0.4-0.4,0.7c-0.2-0.1-0.3-0.2-0.4-0.5c-0.3,0.3-0.2,0.7-0.2,0.9c-0.1-0.1-0.3-0.2-0.4-0.4
	c-0.1,0.2,0,0.5,0,0.7c0.2,0.7-0.6,0.6-0.6,0.1c0-0.6,0.9-1.4,0.4-2.1c-0.1,0.2-0.2,0.5-0.5,0.6c-0.1-0.2,0.1-1.5-0.8-1.7
	c0.5,1-0.5,1.9,0.3,4.1c0.4,1,0.9,1.6,1.6,2.2c-0.2-0.9-0.2-2.3,0.3-3c-0.2,0.8-0.2,2.3,0.1,3.4c0.4,0.4,0.8,0.7,1.2,1
	c-0.4-0.6-0.4-1.9,0.1-2.3c-0.2,0.9,0,1.8,0.6,2.7c1.7,1,4.6,1.8,5.3,4.4c0.4-0.1,0.7-0.4,1-0.6c0.2,0.4,0.4,0.7,0.7,1.1
	c0.4-0.1,0.7-0.3,0.9-0.5c0.3,0.8,1,1.3,1.7,1.5c0.6-0.2,1.4-0.7,1.6-1.5c0.2,0.2,0.6,0.4,1,0.5c0.3-0.4,0.5-0.7,0.7-1.1
	c0.2,0.2,0.7,0.4,1,0.6c0.7-2.6,3.6-3.4,5.2-4.4c0.6-0.9,0.9-1.8,0.6-2.7c0.5,0.4,0.4,1.7,0.1,2.3c0.4-0.2,0.9-0.6,1.2-1
	c0.4-1.1,0.3-2.6,0.1-3.4c0.5,0.7,0.6,2.1,0.3,3C32.9,28.4,33.4,27.8,33.8,26.8z"/>
<path class="st0" d="M33,18.3c-1.6,3.4,0.1,5.6,0.1,5.5c0-0.4,0.1-0.7,0.3-1c-0.6-1.3-0.3-2.6,0.1-3.6C33.2,19,33,18.9,33,18.3z"/>
<path class="st0" d="M31.3,6.8c0.7-0.1,1.4-0.6,1.4-1.3c0-0.6-0.4-1.2-1.1-1.2c-0.5,0-0.9,0.2-1,0.7c-0.1,0.4,0.1,0.8,0.6,0.9
	c0.6,0,0.8-0.7,0.4-1c0.6-0.1,0.9,1.2-0.2,1.4c-0.5,0-1-0.3-1.1-0.9c-0.1-0.5,0.1-1,0.6-1.2C31.5,3.7,32.4,4,33,4.5
	c0.4,0.5,0.5,0.9,0.4,1.7c-0.1,0.6-0.7,1.2-1.4,1.3c0.2,0.3,0.5,0.4,0.9,0.4c-0.2,0.2-0.6,0.4-0.8,0.5c0.2,0.2,0.7,0.2,0.9,0.2
	c-0.1,0.3-0.7,0.2-0.6,1c0.3-0.2,0.4-0.2,0.6-0.2c0.1,0.7-1,0.4-0.9,1.4c0.7,0.1,0.7-0.5,1.1-0.6c0,0.3-0.1,0.4-0.2,0.7
	c0.3,0,0.6-0.1,0.6-0.3c0.2-0.2,0.2-0.6,0.4-0.5h0.1c0.2,0.1,0.2,0.4,0.1,0.6c0,0.1-0.1,0.1-0.1,0.1c-0.3,0.3-0.8,0.4-1.1,0.6
	c-0.3,0.1-0.5,0.3-0.6,0.6c0.2-0.1,0.4,0,0.4,0c-0.1,0.4-0.6,0.6-0.7,0.9c-0.1,0.2-0.2,0.6-0.1,1c0.2-0.2,0.5-0.4,0.7-0.4
	c-0.1,0.1-0.3,0.4-0.2,0.7c0.2-0.2,0.6-0.3,0.6-0.3c-0.3,0.6-0.8,0.7-0.9,1.6c0.1-0.1,0.3-0.1,0.4-0.3c0.2,0.6-0.7,0.9-0.4,1.9
	c0.2-0.1,0.5-0.4,0.6-0.6c0.3-0.4,0.4-1.2,0.4-1.2c0.2,0.4,0,1-0.2,1.5c-0.2,0.4-0.4,0.7-0.1,1.2c0.1-0.2,0.1-0.4,0.2-0.5
	c0.2,0.4-0.1,0.8,0.2,1.2c0.1,0.2,0.4,0.4,0.7,0.5h0.1C34,18.9,34,18.6,34,18.3c-0.1-0.4-0.1-0.8,0-1.2c0.2-2.1,1.2-3.9,2-6.1
	c0.2-0.6,0.2-1.1,0.3-1.7V8.7C36.2,6.9,35.4,4.9,34,4c-0.6-0.4-1.4-0.7-2.2-0.7c-1.1-0.1-2.3,0.7-2.3,1.8C29.6,6,30.3,6.9,31.3,6.8z
	 M35.3,7.3c0.2,0.1,0.3,0.7,0.4,1.1c0.1,0.7,0,1.4-0.2,2c-0.2,0.8-0.7,1.3-1.4,1.8c-0.1,0.1-0.2,0.1-0.4,0.2c-0.3,0.2-0.7,0.5-1,0.8
	c0.1-0.5,0.6-0.7,0.9-1c0.2-0.1,0.3-0.2,0.5-0.4c0.5-0.4,0.9-0.9,1.1-1.7c0.2-0.6,0.2-1.2,0.2-1.8C35.3,8.1,35.3,7.7,35.3,7.3z
	 M34.1,4.7c0.5,0.6,0.7,1.5,0.7,2.4c-0.1,0.9-0.4,1.7-0.7,2.2c-0.2,0.2-0.5,0.4-0.7,0.4c0.1-0.1,0.4-0.5,0.7-1
	c0.2-0.4,0.4-1,0.4-1.6c0.1-0.7-0.1-1.5-0.4-2c-0.2-0.3-0.4-0.6-0.7-0.8C33.7,4.4,33.9,4.5,34.1,4.7z"/>
<path class="st0" d="M33.3,33.3l-0.6-0.6l-0.2,0.2l0.6,0.6c0.1,0.1,0.3,0.3,0.2,0.4c-0.2,0.2-0.4,0-0.5-0.1l-0.6-0.7l-0.1,0.1
	L32,33.4v0.1l0.2,0.2l0.4,0.4c0.3,0.2,0.6,0.4,0.9,0.1l0.1-0.1c0.2-0.2,0.1-0.4,0-0.6C33.4,33.4,33.3,33.4,33.3,33.3z"/>
<polygon class="st0" points="36.9,27.2 36.6,27 36.4,27.3 36.9,27.5 37.5,27.8 37.9,28 38,27.7 37.5,27.4 "/>
<path class="st0" d="M37.2,28.3c-0.1-0.1-0.1-0.2-0.2-0.2h-0.1C36.8,28,36.6,28,36.5,28c-0.1,0-0.1,0-0.2,0.1
	c-0.2-0.1-0.3,0-0.3,0.2l-0.2,0.3l0.5,0.3l0.7,0.4l0.2,0.1l0.2-0.4c0.1-0.2,0.2-0.3,0.1-0.5C37.4,28.5,37.4,28.3,37.2,28.3z"/>
<path class="st1" d="M37.1,28.9L37,28.8l-0.7-0.4l-0.1-0.1c0-0.1,0.1-0.1,0.1-0.2c0.1-0.1,0.1-0.1,0.2-0.1c0.1,0,0.2,0.1,0.3,0.1
	c0.1,0.1,0.1,0.1,0.1,0.1c0.1,0,0.1,0.1,0.1,0.1C37.2,28.6,37.1,28.8,37.1,28.9z"/>
<path class="st0" d="M34.5,32.2l-0.2,0.2c0.2,0.2,0.2,0.3,0.1,0.4c-0.1,0.1-0.1,0.1-0.2,0.1c-0.1,0-0.2-0.1-0.4-0.2
	c-0.1-0.2-0.2-0.3-0.2-0.4c-0.1-0.1,0-0.1,0-0.2c0.1-0.1,0.2-0.1,0.4,0.1l0.2-0.2c-0.3-0.2-0.6-0.2-0.8,0c-0.1,0.1-0.2,0.3-0.1,0.4
	c0,0.1,0.1,0.2,0.1,0.3c0.1,0.1,0.1,0.1,0.2,0.2c0.2,0.1,0.4,0.2,0.6,0.2c0.1,0,0.2,0,0.3-0.1s0.1-0.1,0.1-0.1
	c0.1-0.1,0.1-0.2,0.1-0.4C34.7,32.5,34.7,32.3,34.5,32.2L34.5,32.2z"/>
<polygon class="st0" points="34.9,30.8 34.5,30.7 34.5,30.6 34.2,30.9 34.5,31.2 34.9,31.8 35.2,32.2 35.4,32 35.2,31.7 35.5,31.3 
	35.7,31.5 36,31.2 35.5,31 "/>
<polygon class="st1" points="35,31.5 34.9,31.3 34.6,31 34.9,31.1 35.2,31.3 "/>
<path class="st0" d="M38.2,26.1c-0.2-0.1-0.4,0.1-0.6,0.2c-0.1,0.1-0.1,0.1-0.1,0.2c0,0,0,0-0.1,0c-0.1,0.1-0.2-0.1-0.2-0.2
	c0.1-0.1,0.1-0.1,0.2-0.1c0,0,0,0,0.1,0v-0.3c-0.1,0-0.1,0-0.1,0c-0.2,0-0.4,0.1-0.5,0.3c-0.1,0.2,0,0.6,0.2,0.6
	c0.1,0.1,0.2,0.1,0.2,0.1c0.1,0,0.2-0.1,0.4-0.3c0.1-0.1,0.1-0.1,0.2-0.1c0.2,0,0.2,0.1,0.2,0.2c-0.1,0.1-0.2,0.2-0.3,0.2l-0.1,0.3
	c0.3,0,0.5-0.1,0.6-0.4C38.6,26.5,38.5,26.2,38.2,26.1z"/>
<polygon class="st0" points="35.5,29.1 35.5,29.2 35.3,29.3 35.5,29.4 36.1,29.8 35.5,29.7 35.2,29.6 34.9,29.9 35.5,30.3 
	36.2,30.8 36.3,30.7 36.4,30.6 36.3,30.5 35.5,30 36.3,30.1 36.6,30.2 36.8,29.9 36.3,29.6 "/>
<path class="st0" d="M32.1,34.3L32.1,34.3c-0.1-0.1-0.1-0.2-0.2-0.2c-0.1-0.1-0.1-0.1-0.2-0.2c-0.1-0.1-0.3-0.1-0.5,0.1
	c-0.1,0-0.1,0.1-0.1,0.1l-0.1,0l-0.2,0.2l0.2,0.3l0.2,0.3l0.5,0.6l0.2-0.2l0.1-0.1c0-0.1,0-0.1,0.1-0.1
	C32.3,34.9,32.3,34.7,32.1,34.3C32.3,34.5,32.2,34.4,32.1,34.3z"/>
<path class="st1" d="M32,35L32,35l-0.1,0.1l-0.6-0.7v-0.1h0.1c0.1-0.1,0.2-0.1,0.3-0.1c0.1,0.1,0.1,0.1,0.2,0.2
	c0.1,0.1,0.1,0.2,0.1,0.3C32,34.9,32,34.9,32,35z"/>
<polygon class="st0" points="31.1,35.6 31,35.7 30.7,36 30.4,35.7 30.8,35.4 30.6,35.2 30.2,35.5 30,35.2 30.5,34.8 30.3,34.6 
	29.6,35.2 30.5,36.4 31,36 31.2,35.8 31.3,35.8 31.2,35.8 "/>
<polygon class="st0" points="5.7,30.4 5.8,30.7 6.1,30.5 5.6,29.9 5.5,29.7 5.2,29.9 5.4,30.1 4.7,30.6 4.4,30.9 4.6,31.2 4.7,31 
	5.6,30.4 "/>
<polygon class="st0" points="8.7,33.4 8.5,33.2 8.4,33.1 8,33.3 7.7,33.5 7,33.9 7.2,34.2 7.4,34 7.7,34.2 7.8,34.3 7.7,34.4 
	7.6,34.6 7.7,34.7 7.9,34.9 8,34.7 8.5,33.6 "/>
<polygon class="st1" points="8,33.9 7.9,34.1 7.7,33.8 8,33.6 8.2,33.4 "/>
<path class="st0" d="M6.6,32.1C6.6,32,6.6,32,6.6,32.1c0.4-0.3,0.3-0.6,0.1-0.8l-0.1-0.1L6.4,31l-0.1,0l-0.7,0.6L5.2,32l0.2,0.3
	L5.6,32l0.2-0.2L6,31.9l-0.4,0.6l0.2,0.3l0.4-0.7l0.1,0.1C6.4,32.1,6.5,32.1,6.6,32.1z"/>
<path class="st1" d="M6.2,31.7L6,31.6l0.2-0.2l0.1-0.1l0.1,0.1c0.1,0.1,0.1,0.2,0,0.3C6.3,31.8,6.3,31.8,6.2,31.7
	C6.2,31.8,6.2,31.8,6.2,31.7z"/>
<path class="st0" d="M3.3,28.1c0.1,0.2,0.2,0.3,0.4,0.3c0.1,0,0.2,0,0.3-0.1c0.3-0.2,0.3-0.4,0.1-0.7L4,27.2l-0.2,0.1l-1.2,0.6
	l0.2,0.3L3.3,28V28.1z"/>
<path class="st1" d="M3.8,27.7L4,27.6v0.1C4.1,27.8,4,28,3.9,28s-0.1,0-0.1,0c-0.1,0.1-0.1,0-0.2-0.1l-0.1-0.1L3.8,27.7z"/>
<polygon class="st0" points="4.7,29.4 5.1,29.1 4.9,28.8 4.7,28.8 4.4,28.9 3.8,29.1 3.3,29.2 3.4,29.5 3.8,29.4 4,29.7 3.8,30 
	4,30.3 4.4,29.9 "/>
<polygon class="st1" points="4.2,29.6 4.1,29.3 4.4,29.2 4.7,29.1 4.4,29.4 "/>
<polygon class="st0" points="7.7,32.4 7.4,32.1 6.6,33 6.3,33.3 6.5,33.5 6.6,33.5 7.7,32.5 "/>
<polygon class="st0" points="8.5,35 8.4,35.2 8.5,35.4 9.1,35.8 9.3,35.6 8.8,35.2 9,34.9 9.4,35.2 9.6,35 9.2,34.7 9.5,34.4 
	10,34.8 10.1,34.6 9.4,34 "/>
<polygon class="st0" points="18.5,41 18.9,41 19,39.4 18.7,39.4 "/>
<path class="st0" d="M11.9,37.5l-0.2-0.1h-0.1L11,38.8l0.4,0.2c0.1,0.1,0.2,0.1,0.4,0.1c0.3,0,0.5-0.2,0.6-0.5
	C12.5,38.1,12.4,37.8,11.9,37.5z"/>
<path class="st1" d="M11.9,38.4c-0.1,0.2-0.1,0.3-0.2,0.4c-0.1,0-0.2,0.1-0.3,0l0.3-0.8l0.1-0.2C12.1,37.9,12.1,38.1,11.9,38.4z"/>
<path class="st0" d="M14.8,38.6c-0.4-0.1-0.7,0.2-0.8,0.6c-0.1,0.4-0.1,0.9,0.3,1c0.4,0.1,0.6-0.1,0.7-0.4l-0.3-0.1
	c-0.1,0.2-0.2,0.3-0.3,0.2c-0.2-0.1-0.1-0.4-0.1-0.6c0-0.1,0.1-0.5,0.4-0.4c0.1,0,0.2,0.2,0.1,0.4l0.3,0.1
	C15.2,38.9,15.1,38.7,14.8,38.6z"/>
<polygon class="st0" points="13.8,38.6 13.9,38.3 13,38 12.4,39.5 13.4,39.8 13.4,39.5 12.9,39.4 13,39 13.4,39.1 13.5,38.9 
	13.1,38.7 13.2,38.4 "/>
<path class="st0" d="M16.2,38.9c-0.1,0-0.1,0-0.2,0c-0.2,0-0.4,0.2-0.6,0.7c-0.1,0.4-0.1,0.9,0.4,0.9c0.1,0.1,0.1,0.1,0.2,0.1
	c0.3-0.1,0.5-0.2,0.6-0.7C16.7,39.5,16.6,39,16.2,38.9z M16.3,39.8c0,0.1-0.1,0.4-0.2,0.5H16c-0.2-0.1-0.1-0.4-0.1-0.6
	c0-0.1,0.1-0.4,0.2-0.5c0.1,0,0.1,0,0.1,0C16.4,39.3,16.3,39.7,16.3,39.8z"/>
<path class="st0" d="M17.7,39.2L17.7,39.2l-0.5-0.1L17,40.7h0.4l0.1-0.6l0.1,0.1l0.1,0.3l0.1,0.3l0.4,0.1L18,40.2
	c0.2-0.1,0.3-0.2,0.3-0.4C18.2,39.4,18,39.3,17.7,39.2z"/>
<path class="st1" d="M17.6,40L17.6,40l-0.2-0.1l0.1-0.4h0.1c0.2,0.1,0.2,0.1,0.2,0.2C17.8,39.8,17.7,40,17.6,40z"/>
<path class="st0" d="M26.2,39.2c0.1-0.1,0.2-0.2,0.1-0.4s-0.2-0.3-0.3-0.3c-0.1,0-0.2,0-0.3,0.1l-0.5,0.1l0.4,1.5l0.4-0.1l0.2-0.1
	c0.2-0.1,0.5-0.2,0.4-0.6C26.5,39.4,26.3,39.3,26.2,39.2z"/>
<path class="st1" d="M25.5,38.9l0.1-0.1c0.1,0,0.2,0,0.3,0.1V39c0,0,0,0,0,0.1s-0.1,0.1-0.2,0.1l-0.1,0.1L25.5,38.9z"/>
<path class="st1" d="M26,39.9L26,39.9L25.9,40l-0.1-0.4l0.2-0.1c0,0,0,0,0.1,0s0.2,0,0.2,0.1C26.2,39.7,26.2,39.8,26,39.9z"/>
<path class="st0" d="M28.9,38.1c-0.1,0-0.3,0.1-0.4-0.1c0-0.1,0-0.2,0.1-0.2s0.2,0,0.2,0.1l0.2-0.2c-0.2-0.2-0.4-0.2-0.6-0.1
	c-0.2,0.1-0.2,0.2-0.3,0.3c-0.1,0.2,0.1,0.6,0.3,0.6c0.1,0,0.2,0,0.4,0c0.1,0,0.2,0,0.3,0.1c0.1,0.1-0.1,0.2-0.1,0.2
	c-0.1,0.1-0.2,0.1-0.4-0.1l-0.2,0.2c0.2,0.2,0.5,0.3,0.7,0.1s0.3-0.4,0.2-0.7C29.4,38.1,29.1,38.1,28.9,38.1z"/>
<polygon class="st0" points="24.3,39 24.7,40.5 25.1,40.5 24.7,38.9 "/>
<path class="st0" d="M27.6,37.9L27.3,38l0.4,0.9c0,0.1,0.1,0.2,0.1,0.2c0,0.1-0.1,0.2-0.1,0.2c-0.1,0.1-0.2,0-0.2-0.1
	c-0.1-0.1-0.1-0.1-0.1-0.2L27,38.2l-0.4,0.1l0.4,0.9c0.1,0.2,0.1,0.3,0.2,0.4c0.1,0.2,0.4,0.2,0.6,0.1c0.2-0.1,0.4-0.2,0.4-0.5
	c0-0.1-0.1-0.2-0.1-0.4L27.6,37.9z"/>
<polygon class="st0" points="23.6,40.3 23.2,39.2 22.8,39.2 23.5,40.8 23.9,40.7 24,39 23.7,39.1 "/>
<polygon class="st0" points="22.2,39.4 22.3,41 22.7,40.9 22.5,39.3 "/>
<path class="st0" d="M21.2,39.7c0.1-0.1,0.2,0.1,0.2,0.3l0.3-0.1c-0.1-0.4-0.2-0.6-0.6-0.6c-0.2,0-0.3,0.1-0.4,0.2
	c-0.1,0.1-0.1,0.4-0.1,0.6c0.1,0.2,0.1,0.4,0.2,0.6c0.1,0.1,0.2,0.2,0.4,0.2c0.2-0.1,0.3-0.1,0.4-0.2c0.1-0.1,0.1-0.3,0.1-0.4h-0.3
	c0,0.2-0.1,0.3-0.2,0.3s-0.1,0-0.2-0.1s-0.1-0.2-0.1-0.4s0-0.4,0.1-0.4C21.1,39.7,21.1,39.7,21.2,39.7z"/>
<path class="st0" d="M38.5,24.6c-0.4-0.7-0.8-1.4-1.4-2.1c-0.9,2.9-2.2,5.7-4.1,8.1c-1.5,1.9-3.4,3.4-5.5,4.4
	c-0.6,0.3-1.2,0.6-1.8,0.8c0.1,0.6,0.2,1.1,0.4,1.6c-3.6,1.2-8,1.2-11.6,0c0.1-0.5,0.3-1,0.4-1.6c-1-0.4-2-0.8-2.9-1.3
	c-1.7-1-3.2-2.3-4.5-3.9l-0.1-0.1c-1.9-2.4-3.1-5.2-4.1-8c-0.5,0.7-0.9,1.4-1.3,2.1c-0.7-0.5-1.4-0.9-2.1-1.4c0.4,1.8,1,3.5,1.8,5.2
	c1.4,2.8,3.3,5.3,5.7,7.3c0.8,0.7,1.7,1.4,2.6,1.9c-0.2,0.5-0.6,1.1-0.7,1.4c0.9,0.6,1.8,1,2.7,1.5c2.6,1,5.5,1.5,8.2,1.5
	c2.3,0,4.9-0.4,7.2-1.2c1.4-0.5,2.6-1,3.7-1.8c-0.1-0.2-0.5-0.9-0.7-1.4c3.7-2.2,6.5-5.4,8.3-9.2c0.8-1.7,1.4-3.4,1.8-5.2
	C39.9,23.7,39.2,24.1,38.5,24.6z M7.4,35.2c-2.2-2-4-4.3-5.3-7c-0.6-1.3-1.1-2.6-1.5-4.1c0.6,0.4,1.1,0.7,1.7,1
	c0.3-0.6,0.6-1.2,1-1.8c1,2.8,2.2,5.4,4,7.6l0.2,0.2c1.3,1.5,2.8,2.8,4.6,3.8c0.7,0.4,1.4,0.7,2.2,1L12.1,36H11l-0.7,1.3
	C9.3,36.7,8.3,36,7.4,35.2z M14.4,36.4l-0.2,1c-0.7-0.2-1.4-0.6-2.1-0.9c-0.1-0.1-0.2-0.1-0.3-0.1h0.3H14.4z M30.7,38.9
	c-1,0.6-2.1,1.1-3.2,1.5c-2.3,0.9-4.7,1.2-7.2,1.2c-2.8,0-5.7-0.5-8.2-1.7c-0.7-0.3-1.5-0.7-2.2-1.1c0.4-0.8,0.8-1.5,1.2-2.3
	c0.3,0.2,0.6,0.3,0.9,0.4c5.2,2.2,10.2,2.3,15.5,0.4c0.7-0.2,1.3-0.6,2-0.9C29.9,37.3,30.3,38.1,30.7,38.9z M26.2,36.4h1.4H29
	c-0.4,0.2-0.9,0.4-1.4,0.6c-0.4,0.1-0.7,0.3-1,0.4L26.2,36.4z M38.5,28.2c-1.8,3.8-4.6,7-8.2,9.1L29.6,36h-2.1h-1.1
	c0.4-0.1,0.7-0.3,1.1-0.4c2.4-1.1,4.3-2.7,5.8-4.6c1.7-2.2,3-4.7,3.9-7.6c0.4,0.6,0.7,1.2,1,1.8c0.6-0.3,1.1-0.7,1.6-1
	C39.6,25.6,39.1,26.9,38.5,28.2z"/>
<path class="st0" d="M14.5,3.1C14.7,3,15.3,3,15.8,3c-0.1-0.2-0.4-0.4-0.6-0.4c0.1-0.1,0.6-0.1,0.9-0.1c-0.1-0.2-0.2-0.4-0.4-0.4
	c0.1-0.1,0.5-0.1,1,0c-0.1-0.1-0.2-0.3-0.4-0.4c0.1-0.1,0.5-0.2,0.7-0.2c0-0.1,0-0.3,0-0.3c-1.1,0.2-2.7,1.7-3.3,2.6
	c0.4-0.2,1.1-0.3,1.5-0.4C15,3.2,14.8,3.2,14.5,3.1z"/>
<path class="st0" d="M23.9,2.1c0.5-0.1,0.9-0.1,1,0c-0.2,0-0.4,0.2-0.4,0.4c0.4-0.1,0.8-0.1,1,0.1c-0.2,0-0.5,0.2-0.6,0.4
	c0.4,0,1,0,1.2,0.1c-0.4,0.1-0.5,0.1-0.7,0.3c0.4,0.1,1,0.1,1.5,0.4c-0.6-0.9-2.2-2.3-3.3-2.6c0,0.1,0,0.2-0.1,0.2
	c0.2,0.1,0.7,0.2,0.7,0.2C24.1,1.8,23.9,2,23.9,2.1z"/>
<path class="st0" d="M25.3,5.4c0.3,1,1.5,1.1,2.3,1c0.7-0.1,1.4-0.2,1.8-0.5c-0.1-0.3-0.1-0.6-0.1-0.8c-0.4,0.3-1,0.6-1.7,0.7
	C26.8,6,26,5.9,25.7,5.2c-0.1-0.3,0.1-0.6,0.3-0.8c0.2-0.1,0.4-0.1,0.7,0c0.4,0.2,0.2,0.7-0.1,0.6c0.1-0.4-0.2-0.5-0.4-0.4
	C26.1,4.7,26,4.9,26,5c0,0.4,0.3,0.6,0.6,0.6c0.4,0.1,0.8-0.3,0.7-0.9c-0.1-0.5-0.6-0.7-1-0.7C25.6,4,25.1,4.6,25.3,5.4z"/>
<path class="st0" d="M13,6.4c0.9,0.1,2.1,0,2.3-1C15.6,4.6,15,4,14.3,4c-0.5,0-0.9,0.2-1,0.7c-0.1,0.6,0.3,0.9,0.7,0.9
	c0.3,0,0.6-0.2,0.6-0.6c0.1-0.1,0-0.3-0.1-0.4c-0.2-0.1-0.6,0.1-0.4,0.4c-0.2,0.1-0.5-0.4-0.1-0.6c0.2-0.1,0.6-0.1,0.7,0
	c0.2,0.2,0.4,0.5,0.2,0.8c-0.2,0.6-1,0.7-1.8,0.6c-0.7-0.1-1.4-0.4-1.7-0.7c0.1,0.2,0,0.5-0.1,0.8C11.6,6.2,12.4,6.4,13,6.4z"/>
<path class="st0" d="M17.5,1.4c0.2,0,0.4-0.2,0.4-0.4s-0.2-0.4-0.4-0.4c-0.2,0-0.3,0.2-0.3,0.4S17.4,1.4,17.5,1.4z"/>
<path class="st0" d="M23.1,1.4c0.2,0,0.4-0.2,0.4-0.4s-0.2-0.4-0.4-0.4c-0.2,0-0.3,0.2-0.3,0.4C22.8,1.2,22.9,1.4,23.1,1.4z"/>
<path class="st0" d="M18.7,0.7c0.8-0.4,2.5-0.4,3.3,0c0.2,0.1,0.5,0.2,0.9-0.2c-1.4-0.7-3.6-0.7-5,0C18.2,0.9,18.4,0.8,18.7,0.7z"/>
<path class="st0" d="M17.1,16.6c-0.1,0.6,0.4,0.8,0.9,0.6c0.3-0.1,0.6-0.4,0.9-0.4c0.1,0,0.1,0,0.2,0c0.1,0.1,0.1,0.1,0.2,0.1
	s0.2,0.1,0.3,0.1c-0.1-0.2-0.2-0.3-0.3-0.4c-0.1-0.1-0.2-0.1-0.4-0.1c-0.1,0-0.1,0-0.1,0c-0.3,0.1-0.7,0.2-0.9,0.3
	C17.6,16.9,17.2,16.8,17.1,16.6z"/>
<path class="st0" d="M20.1,20.5c0.1-0.1,0.2-0.2,0.2-0.5c0.2,0.2,0.3,0.2,0.4,0.4c0,0,0.1-0.2,0.2-0.4c0.1-0.1,0.1-0.3,0.1-0.4
	c0.4,0.2,0.4,0.4,0.6,0.6c0.2-0.2,0.2-0.5,0.1-0.8c0.1,0,0.2,0.1,0.3,0.1c0.2,0.1,0.3,0.2,0.4,0.3c0.1-0.5-0.2-0.6-0.4-0.9
	c0,0,0,0,0-0.1c0.2,0.2,0.4,0.3,0.7,0.3c-0.3-0.4-0.3-0.7-0.5-0.9c-0.1,0.1-0.1,0.1-0.2,0.1c-0.1,0.1-0.1,0.2-0.2,0.5
	c-0.1-0.2-0.1-0.3-0.4-0.4c0.1,0.2,0.1,0.4-0.1,0.9c-0.1-0.1-0.2-0.2-0.4-0.3c-0.1,0-0.2-0.1-0.2-0.1c0.1,0.2,0,0.6-0.1,0.9
	c-0.2-0.2-0.5-0.3-0.7-0.3c0.1,0.1,0.1,0.4-0.1,0.6C19.9,20.2,20,20.3,20.1,20.5z"/>
<path class="st0" d="M20.9,15.3c0.1-0.1,0.2-0.1,0.2-0.2c-0.1,0-0.1,0-0.2,0s-0.1,0-0.2,0C20.7,15.1,20.8,15.2,20.9,15.3z"/>
<path class="st0" d="M22,15.7L22,15.7c0.2,0.1,0.4,0.1,0.6-0.1c-0.2,0-0.4-0.2-0.6-0.3c0,0,0,0-0.1,0c-0.1-0.1-0.3,0-0.5,0.2
	C21.7,15.5,21.9,15.7,22,15.7z"/>
<path class="st0" d="M19.9,15.7c-0.1-0.1-0.1-0.1-0.2-0.1c-0.1-0.1-0.1-0.1-0.1-0.1c-0.1,0.1-0.1,0.1-0.1,0.2c0,0,0.1,0,0.2,0.1
	C19.8,15.7,19.9,15.7,19.9,15.7z"/>
<path class="st0" d="M18.5,16.1c0.1-0.1,0.2-0.1,0.3-0.1c0.1,0,0.2,0,0.4,0c0.2,0.1,0.4,0.2,0.6,0.4c0.1,0.1,0.1,0.3,0,0.4
	c0,0.1-0.1,0.1-0.1,0.2c-0.1,0.1-0.2,0.1-0.4,0.1c-0.1,0-0.2-0.1-0.4-0.1c-0.2-0.1-0.3-0.1-0.4-0.2c-0.1,0.4-0.1,0.7,0.4,0.7H19
	c0.1,0,0.2-0.1,0.3-0.1c0.1-0.1,0.1-0.1,0.3-0.1c0.1,0,0.2,0.1,0.2,0.1c0.1,0.1,0.1,0.1,0.2,0.1c-0.1-0.4,0.2-0.7,0.3-0.8
	c0.1,0,0.2,0.1,0.2,0.2c0.1-0.3,0.2-0.6,0.2-0.7c0.1,0.1,0.1,0.1,0.2,0.2s0.1,0.1,0.2,0.2c0.1-0.3,0-0.4,0.2-0.7
	c0,0.1,0.1,0.4,0.4,0.5c0.1-0.2,0.1-0.3,0.1-0.5c0,0,0.1,0.1,0.2,0.2c0.2,0.1,0.6,0.2,0.8-0.1c-0.2,0-0.6-0.1-0.8-0.2
	c-0.1-0.1-0.2-0.2-0.3-0.2c-0.1,0.1-0.1,0.2-0.2,0.3c0,0,0.1-0.2-0.1-0.4c-0.2,0.1-0.2,0.3-0.5,0.4h-0.1c0.1,0,0.1,0,0.1-0.1
	c0.1-0.1,0.2-0.5,0.5-0.6c0.2-0.2,0.2-0.6-0.1-0.7c-0.1-0.1-0.3-0.1-0.4-0.1c-0.2,0.1-0.3,0.1-0.5,0.2c-0.2-0.1-0.4-0.1-0.7-0.1
	c-0.2,0.1-0.4,0.1-0.6,0.2H19c-0.1,0-0.2,0.1-0.3,0.1c-0.2,0-0.4,0.1-0.6,0.1c-0.4,0.3-0.2,0.4,0,0.7C18.4,15.9,18.4,15.9,18.5,16.1
	z M20.9,14.9c0.1,0,0.2,0,0.3,0c0.1,0.3-0.2,0.4-0.3,0.7c-0.2-0.1-0.4-0.4-0.4-0.7C20.7,14.9,20.8,14.9,20.9,14.9z M19.4,15.6
	c0-0.1,0-0.3,0.1-0.4c-0.1-0.1-0.1-0.2-0.1-0.3c0.1,0.1,0.2,0.2,0.4,0.4c0.1,0.1,0.2,0.2,0.4,0.3c0.1,0.1,0,0.2-0.1,0.2
	c-0.1-0.1-0.2-0.1-0.3-0.1c-0.2,0-0.4,0-0.6,0.1C19.2,15.7,19.3,15.7,19.4,15.6z"/>
<path class="st0" d="M22,16.5C22,16.4,22,16.4,22,16.5c-0.1,0.1-0.1,0.2-0.2,0.4c-0.2-0.1-0.4-0.2-0.5-0.4c0,0.4-0.2,0.7-0.2,0.7
	C21,17.1,21,17,21,17c-0.1-0.1-0.1-0.1-0.1-0.1c-0.2,0.2-0.2,0.4-0.4,0.9c0-0.2-0.1-0.4-0.2-0.5c-0.1,0.2-0.2,0.4-0.1,0.8
	C20.1,18,20,18,19.8,18l-0.1,0.1c-0.2,0.1-0.4,0.4-0.4,0.4c-0.1-0.2-0.1-0.4,0.2-0.6c-0.1,0-0.2,0.1-0.3,0.1c-0.1-0.1-0.2-0.1-0.2,0
	c-0.1,0.2-0.1,0.4-0.1,0.8c0.1-0.1,0.2-0.1,0.4-0.2c0.2-0.1,0.4-0.3,0.4-0.4c0,0,0.1,0.4,0,0.6c0,0.2,0,0.4,0.1,0.6v-0.1
	c0.1-0.6,0.4-0.9,0.1-1.2c0,0,0.6,0.1,0.8,0.1c-0.1-0.5,0.2-0.9,0.2-0.9l0.1,0.1c0.2,0.2,0.2,0.2,0.3,0.2c0.1-0.4,0.2-0.4,0.2-0.7
	c0.2,0.2,0.4,0.4,0.6,0.5c-0.1,0.1-0.4-0.1-0.5-0.1c0,0.1-0.1,0.3-0.1,0.6c-0.2,0.1-0.4-0.1-0.6-0.2h-0.1c-0.1,0.2,0,0.4,0.1,0.7
	c-0.2,0-0.5,0.1-0.7,0c0.2,0.5-0.2,0.6-0.2,0.9c0.2,0,0.4,0.1,0.6,0.2c0.1-0.3,0.1-0.6,0-0.8c0.2,0,0.3,0.1,0.4,0.1
	c0.1,0.1,0.2,0.1,0.3,0.2c0.1-0.3,0.1-0.6-0.1-0.9c0.4,0.1,0.5,0.2,0.7,0.5c0.3-0.5-0.2-0.6-0.1-1c0.1,0.2,0.1,0.3,0.2,0.4
	c0.1,0,0.1,0,0.1,0.1c0.3-0.5,0-0.8,0-1.1c0.3,0.2,0.4,0.6,0.3,0.9c0.1,0.1,0.5,0.2,0.7,0.1c-0.2-0.2-0.3-0.4-0.5-0.9
	C22.5,16.8,22.3,16.6,22,16.5z"/>
<path class="st0" d="M19.1,19.6c0,0.1-0.1,0.2-0.1,0.3c0.1,0,0.1,0,0.2,0c0.2,0,0.3,0.1,0.5,0.1C19.5,19.9,19.3,19.8,19.1,19.6
	L19.1,19.6z"/>
<path class="st0" d="M18.2,18.4c-0.2,0-0.3,0-0.4-0.2c-0.2,0.4,0.2,0.8,0.6,0.6c0,0.3-0.1,0.5-0.2,0.6c0.2,0.1,0.4-0.1,0.5-0.2
	c0.1,0.1,0.1,0.2,0.2,0.3c0,0.1,0,0.2,0.1,0.4c0.2-0.2,0.2-0.4,0.2-0.7c0,0,0,0.1,0.1,0.1c0.1,0.3,0.3,0.4,0.5,0.6
	c0-0.2-0.1-0.4-0.2-0.6s0-0.4,0-0.7c-0.1,0.1-0.2,0.2-0.3,0.3C19.2,19,19.1,19,18.9,19c-0.1,0-0.1,0-0.2,0c0.1-0.4,0-0.4,0.1-0.8
	C18.5,18.4,18.4,18.4,18.2,18.4z"/>
<path class="st0" d="M21.1,25.9c0.2-0.2,0.2-0.6,0.2-0.9c-0.1-0.1-0.2-0.2-0.4-0.2C21,25.1,20.7,25.5,21.1,25.9z"/>
<path class="st0" d="M23.1,19.8c-0.1,0.2,0,0.6-0.1,0.9c0.2-0.1,0.4-0.3,0.4-0.4C23.2,20,23.1,20,23.1,19.8z"/>
<path class="st0" d="M23.1,19.5c0.2,0.6,0.7,0.9,0.4,1.7c0.5-0.1,0.5-0.7,0.3-1c-0.2-0.4-0.4-0.6-0.4-0.9c0-0.2,0.1-0.7,0.3-0.9
	c-0.1,0.2-0.2,0.6-0.1,0.9c0.1,0.2,0.2,0.5,0.4,0.7c0.2,0.2,0.4,0.3,0.3,0.6c0.2-0.3,0.1-0.6-0.1-1c0.4,0.4,0.5,0.4,0.5,0.9
	c0.4-0.4,0.2-0.7-0.1-1c-0.1,0-0.1-0.1-0.1-0.1c-0.2-0.2-0.4-0.2-0.3-0.7c0.1,0.2,0.1,0.4,0.2,0.4c0.2,0.2,0.5,0.1,0.6-0.1
	c-0.2,0-0.3-0.1-0.4-0.3c-0.3-0.8,1.2-1,1.2,0.1c0.1,0.7-0.6,1.4-0.7,1.7c-0.2,0.4-0.4,0.7-0.3,1.2c0.1,0.4,0.3,1,0.5,1.4
	c0.2,0.6,0.8,2.3-0.4,2.4c-0.7,0.1-0.9-0.6-1.1-1.2s-0.6-0.9-0.9-1.4c-0.4-0.6-0.7-1.4-0.6-2.1c0.1-0.4,0.1-0.7-0.3-1.1
	c-0.1,0.4-0.1,0.6-0.4,0.8c-0.1-0.2-0.2-0.4-0.4-0.5c-0.1,0.3-0.1,0.4-0.5,0.9c-0.1-0.2-0.2-0.4-0.3-0.5c-0.1,0.2-0.2,0.4-0.5,0.5
	c0-0.4-0.1-0.6-0.4-0.7c-1.2-0.1-2,0.4-3,0.4c-0.9,0.1-1.5-0.1-2-0.9c-0.3-0.4-0.8-0.5-1,0.1c0.4-0.1,0.7,0.1,0.7,0.4
	c-0.2-0.3-0.8-0.5-0.9,0.1c0.3-0.1,0.9,0.1,0.9,0.6c-0.2-0.2-0.5-0.4-0.7-0.4c-0.1,0-0.2,0.1-0.4,0.2c0.2,0.1,0.2,0.2,0.4,0.4
	c0.2,0.2,0.5,0.3,0.8,0.2c0.1-0.1,0.3-0.2,0.5-0.2s0.3,0.2,0.1,0.3c-0.1,0.1-0.3,0.1-0.5,0.1c0.1,0.3,0.7,0.6,0.9,0.2
	c0.7,0.2,1.5,0.4,2.1,0.3c0.2,0.3,0.2,0.6,0.1,0.9c0.2-0.1,0.2-0.2,0.4-0.4c0.1,0.3,0.2,0.4,0.4,0.4c-0.1-0.5,0-0.6,0.1-0.9
	c0.1,0.4,0.1,0.6,0.3,0.7c0.1-0.3,0.1-0.6,0.4-0.7c0,0.3,0,0.5,0.1,0.9c0.1-0.2,0.3-0.5,0.5-0.6c-0.1,0.9,0.3,1.2,1,1.7
	c0.7,0.6,0.7,0.7,0.7,1.5c0,0.4-0.1,0.6-0.2,0.7c-0.4,0.2-0.4,0.5-0.3,0.9c0.1,0.2,0.4,0.6,0.2,0.9c0.2,0,0.4-0.3,0.6-0.5
	c0,0.4,0.1,0.6,0.2,0.7c0-0.3,0.2-0.5,0.4-0.6c0,0,0.1,0.4,0.4,0.7c0.1-0.2,0.2-0.4,0.4-0.4c0.1,0.2,0.2,0.4,0.4,0.5
	c-0.2,0.9,0.1,1.8,0.3,2.1c-0.2,0.2-0.4-0.1-0.6-0.2s-0.6-0.2-0.8,0c-0.2,0.2-0.3,0.6,0.1,0.7c0-0.4,0.2-0.5,0.4-0.4
	c-0.3,0.2-0.4,0.6,0,0.7c0.1-0.2,0.1-0.6,0.4-0.5C23,30.7,22.9,31,23,31.2c0.3,0.1,1-0.1,1.5-0.5c0.1-0.4,0-0.8-0.1-1
	c0.1,0,0.2,0.1,0.3,0.1c-0.1-0.3-0.3-0.6-0.5-0.6c0.2-0.1,0.5,0.1,0.5,0.1c-0.1-0.4-0.4-0.6-0.5-0.7c0.1,0.1,0.6,0.1,0.7-0.1
	c-0.2,0-0.4-0.1-0.5-0.2c0.1-0.1,0.3-0.2,0.4-0.4c-0.1,0.1-0.2,0-0.3,0c0.2-0.7-0.2-0.9-0.6-1c-0.5-0.1-1-0.5-0.9-1
	c0.1,0.1,0.2,0.3,0.6,0.2c-0.5-1-0.1-1,0.1-1.8c0.1,0.1,0,0.7,0,0.8c0.2,0.4,0.8,0.7,1.3,0.7c1.1-0.1,1.1-1.1,1-1.8
	c-0.1-0.5-0.1-1,0.1-1.4c-0.2-0.1-0.4,0.2-0.4,0.2c-0.1-0.5,0.3-0.7,0.2-1.2c-0.1,0.2-0.3,0.2-0.4,0.3c0-0.2,0.6-0.5,0.6-0.9
	c-0.2,0.2-0.3,0.1-0.5,0.2c0.2-0.2,0.6-0.6,0.4-1c-0.1,0.3-0.4,0.3-0.6,0.7c0.1-0.6,0.9-1.4,0.9-2.3c0-0.4-0.1-0.7-0.4-0.9
	c-0.6-0.5-1.4-0.4-2-0.1C23.2,18.1,22.8,18.9,23.1,19.5z"/>
<path class="st0" d="M20.9,26c-0.4-0.6,0.1-1.2-0.1-1.5c0.2,0,0.4,0.2,0.5,0.2c0.1-0.4-0.5-0.6-0.6-0.7c-0.6,0.8-1.4,0.9-2.1,1.2
	c-0.7,0.2-0.4,1.2-1.1,1.4c0.2,0.1,0.4,0.1,0.9,0c-0.3,0.2-0.5,0.2-0.7,0.6c0.2-0.1,0.4-0.1,0.6-0.1c0,0.1-0.2,0.2-0.3,0.5
	c0.2,0,0.4,0,0.6-0.2c0.1,0.2-0.4,0.2-0.2,0.8c0.1-0.2,0.4-0.3,0.6-0.3c-0.1,0.1-0.2,0.2-0.2,0.4c0.1-0.1,0.4-0.1,0.5-0.1
	c-0.3,0.2-0.4,0.2-0.6,0.4c-0.5,0.4,0,1.2-0.6,1.2c-0.3,0.1-0.4-0.2-0.8-0.2c-0.7-0.2-0.9,0.6-0.5,0.8c0-0.2,0.2-0.4,0.5-0.3
	c-0.2,0.1-0.6,0.4-0.1,0.7c0.2-0.3,0.4-0.3,0.6-0.3c-0.4,0.2-0.6,0.4-0.1,0.7c0.4-0.6,1.1-0.4,1.5-0.5c0.1-0.1,0.2-0.6,0.1-1
	c0.1,0.1,0.2,0.2,0.4,0.2c-0.1-0.1-0.1-0.4,0-0.4c0.1,0.1,0.2,0.2,0.4,0.2c-0.1-0.3-0.1-0.6,0-0.8c0.1,0.2,0.2,0.2,0.4,0.2
	c-0.1-0.2,0.1-0.4,0.1-0.6c0-0.7-0.7-1,0.1-1.6c-0.2-0.1-0.3-0.1-0.4-0.4c0.2,0.2,0.4,0.2,0.7,0.1c-0.3-0.1-0.4-0.3-0.6-0.6
	c0.1,0.1,0.4,0.2,0.7,0.2C20.6,26.3,20.7,26.1,20.9,26z"/>
<path class="st0" d="M7.6,23.8c0,0.1,1.7-2.2,0.1-5.5c0,0.6-0.2,0.7-0.5,0.9c0.4,1,0.7,2.3,0.1,3.6C7.5,23.1,7.6,23.4,7.6,23.8z"/>
<path class="st0" d="M13.8,16.6c-0.1,0.1,0.1,0.2,0.3,0.3c0.2,0.1,0.4-0.1,0.4-0.2s-0.1-0.2-0.3-0.3C14,16.3,13.8,16.5,13.8,16.6z"
	/>
<path class="st0" d="M14.2,16.9c-0.2,0-0.4,0.1-0.4,0.2c-0.1,0.1,0.1,0.2,0.2,0.3c0.2,0.1,0.4,0,0.4-0.2
	C14.5,17.1,14.4,17,14.2,16.9z"/>
<path class="st0" d="M14.2,15.8c-0.2-0.1-0.4,0-0.4,0.1c-0.1,0.2,0.1,0.3,0.2,0.3c0.2,0.1,0.4,0,0.4-0.1
	C14.5,16,14.4,15.8,14.2,15.8z"/>
<path class="st0" d="M14.9,17.4v-0.9l-0.4-0.1c0.2,0.2,0.2,0.4-0.1,0.5c0.2,0.1,0.3,0.3,0.1,0.5H14.9z"/>
<path class="st0" d="M16.9,18.3c-0.1-0.3-0.1-0.6-0.3-0.9c-0.2-0.4-0.6-0.3-0.9-0.7c-0.2-0.2-0.4-0.5-0.6-0.7
	c-0.1-0.1-0.2-0.2-0.4-0.1c0.1,0.1,0.1,0.3,0,0.4l0.4,0.1v0.8c0.1,0.6,0.7,0.4,1.2,0.5l-0.1,0.6h-0.7c0,0.4,0.4,0.4,0.2,1
	c0.2-0.1,0.3-0.3,0.4-0.4c0.2,0.2,0,0.6-0.1,0.8c0.2,0,0.3-0.1,0.6-0.2c0.1,0.2-0.1,0.4-0.2,0.6c0.2,0,0.5-0.2,0.6-0.3
	c0.1,0.3-0.1,0.4-0.2,0.7c0.1-0.1,0.9-0.2,1.2-0.4c0.2-0.1,0.6-0.1,0.9-0.2c-0.1-0.1-0.1-0.2-0.1-0.4c-0.2,0.1-0.5,0.2-0.8,0
	c0.1-0.1,0.2-0.2,0.2-0.3C17.7,19,17.1,18.7,16.9,18.3z"/>
<path class="st0" d="M13.1,18.2h2.8v-0.3h-0.8c0-0.2-0.1-0.3-0.2-0.3h-0.7c-0.1,0-0.2,0.1-0.2,0.3h-0.7v0.3H13.1z"/>
<path class="st0" d="M14.2,14.9H15c0.1,0,0.3-0.1,0.3-0.2h-1.4C13.9,14.7,14,14.9,14.2,14.9z"/>
<path class="st0" d="M15,14.4c0.1-1-0.3-1.6-0.2-2.5h-0.6c0.2,0.9-0.2,1.5-0.1,2.5H15z"/>
<rect x="14.3" y="10.4" class="st0" width="0.4" height="1.4"/>
<path class="st0" d="M14.5,10.2c-0.1-0.2-0.1-0.4,0.1-0.6c0.2,0.2,0.2,0.5,0.1,0.6C15,10.1,15.1,10,15,9.7c0-0.2-0.2-0.4-0.3-0.6
	c-0.1,0.1-0.3,0.2-0.4,0.5C14.2,9.9,14.2,10.2,14.5,10.2z"/>
<path class="st0" d="M11.7,14.9h0.7c0.1,0,0.2-0.1,0.2-0.2h-1.3C11.4,14.7,11.5,14.9,11.7,14.9z"/>
<path class="st0" d="M12.5,14.4c0.1-1-0.3-1.2-0.2-2.1h-0.6c0.1,0.9-0.2,1.1-0.2,2.1H12.5z"/>
<rect x="11.8" y="11.3" class="st0" width="0.4" height="0.9"/>
<path class="st0" d="M12,11.1c-0.1-0.2-0.1-0.4,0.1-0.6C12.2,10.7,12.2,11,12,11.1c0.4-0.1,0.4-0.2,0.4-0.5
	c-0.1-0.2-0.2-0.4-0.3-0.6c-0.1,0.1-0.3,0.2-0.4,0.5C11.7,10.8,11.7,11,12,11.1z"/>
<path class="st0" d="M16.7,14.9h0.7c0.2,0,0.3-0.1,0.3-0.2h-1.3C16.4,14.7,16.6,14.9,16.7,14.9z"/>
<path class="st0" d="M17.5,14.4c0.1-1-0.3-1.2-0.2-2.1h-0.6c0.1,0.9-0.2,1.1-0.2,2.1H17.5z"/>
<rect x="16.9" y="11.3" class="st0" width="0.4" height="0.9"/>
<path class="st0" d="M17,11.1c-0.1-0.2-0.1-0.4,0.1-0.6c0.2,0.2,0.1,0.5,0.1,0.6c0.2-0.1,0.3-0.2,0.3-0.5c-0.1-0.2-0.2-0.4-0.4-0.6
	c-0.1,0.1-0.2,0.2-0.3,0.5C16.7,10.8,16.7,11,17,11.1z"/>
<path class="st0" d="M17.2,15.2V15h-0.3v0.2c0,0.1-0.1,0.2-0.2,0.2h-2V15h-0.3v0.4h-2.1c-0.1,0-0.1-0.1-0.1-0.2V15h-0.3v0.2
	c0,0.3,0.2,0.5,0.5,0.5c1.8,0,2.5,0,4.4,0C17.1,15.7,17.2,15.5,17.2,15.2z"/>
<g>
	<path class="st0" d="M50,18.6c0.1-0.1,0.3-0.4,0.5-0.6c0.1-0.3,0.3-0.5,0.4-0.8c0.1-0.3,0.3-0.6,0.4-1.2c0.1-0.5,0.3-1,0.3-1.7
		c0.1-0.6,0.1-1.4,0.3-2.3c0-0.9,0.1-1.9,0.1-3.2l-1.7-0.4V7.9c0.5,0,1,0,1.3,0c0.4,0,0.6,0,1,0c0.4,0,0.6,0,1,0s0.8,0,1.3,0
		c0.8,0,1.4,0,2.2,0c0.8,0,1.7,0,2.7,0v0.6l-1.7,0.4v9.7l1.7,0.4v0.6h-4.6V19l1.5-0.5V8.7h-3.6c0,1.8-0.1,3.3-0.3,4.7
		c-0.1,1.4-0.4,2.6-0.6,3.5c-0.3,0.9-0.8,1.7-1.2,2.2c-0.5,0.5-1,0.8-1.8,0.8c-0.5,0-0.9-0.1-1.2-0.3c-0.3-0.3-0.4-0.5-0.4-0.8
		s0-0.4,0.1-0.6c0.1-0.1,0.3-0.4,0.3-0.5L50,18.6z"/>
	<path class="st0" d="M66.3,12.5c0.4-0.1,0.8-0.1,1.2-0.1s0.8-0.1,1.2-0.1c0.6,0,1.3,0.1,1.9,0.3c0.5,0.1,1,0.4,1.4,0.8
		c0.4,0.4,0.8,0.8,0.9,1.2c0.3,0.5,0.4,1,0.4,1.5c0,0.5-0.1,1-0.3,1.4c-0.1,0.5-0.4,0.9-0.8,1.2c-0.4,0.4-0.8,0.6-1.2,0.8
		c-0.5,0.3-1,0.3-1.5,0.3c-0.6,0-1.2,0-1.8,0s-1.3,0-1.9,0c-0.4,0-0.8,0-1.2,0s-0.8,0-1.2,0v-0.6l1.5-0.5V8.6l-1.5-0.5V7.5h4.6v0.8
		l-1.7,0.4v3.8H66.3z M68.3,13.2c-0.4,0-0.6,0-1,0c-0.4,0-0.6,0.1-1,0.1v5.1c0.1,0,0.3,0.1,0.5,0.1c0.3,0,0.4,0.1,0.6,0.1
		c0.3,0,0.4,0,0.6,0s0.4,0,0.5,0c0.6,0,1.2-0.1,1.5-0.3c0.4-0.1,0.8-0.4,1-0.6c0.3-0.3,0.4-0.5,0.5-0.9c0.1-0.4,0.1-0.6,0.1-1
		c0-0.4,0-0.8-0.1-1c-0.1-0.4-0.3-0.6-0.6-0.9c-0.3-0.3-0.6-0.5-1-0.6C69.5,13.2,69,13.2,68.3,13.2z"/>
	<path class="st0" d="M76.9,8.5L77,7.9c0.3,0,0.5,0,0.9,0c0.3,0,0.5,0,0.9,0c0.6,0,1.2,0,1.8,0s1.3,0,1.8,0c0.8,0,1.3,0.1,1.8,0.3
		c0.5,0.3,0.8,0.4,1,0.8c0.3,0.3,0.4,0.6,0.5,0.9c0.1,0.3,0.1,0.6,0.1,0.8c0,0.4-0.1,0.6-0.3,1c-0.1,0.3-0.3,0.5-0.5,0.8
		c-0.3,0.3-0.4,0.4-0.6,0.5c-0.3,0.1-0.5,0.3-0.8,0.3l0,0c0.9,0.1,1.7,0.5,2.2,1c0.5,0.5,0.8,1.3,0.8,2.2c0,0.5-0.1,1-0.3,1.4
		c-0.3,0.4-0.5,0.8-0.8,1.2c-0.4,0.3-0.8,0.5-1.2,0.8c-0.5,0.1-0.9,0.3-1.5,0.3s-1.2,0-1.8,0s-1.3,0-1.9,0c-0.4,0-0.8,0-1.2,0
		c-0.4,0-0.8,0-1.2,0v-0.6l1.5-0.5V9L76.9,8.5z M81.1,12.7c0.8,0,1.3-0.1,1.8-0.3c0.4-0.1,0.8-0.4,1-0.5c0.3-0.3,0.4-0.4,0.5-0.6
		c0.1-0.3,0.1-0.4,0.1-0.5c0-0.6-0.3-1.2-0.8-1.5c-0.5-0.3-1.3-0.5-2.2-0.5c-0.1,0-0.1,0-0.4,0c-0.1,0-0.3,0-0.5,0
		c-0.1,0-0.4,0-0.5,0c-0.1,0-0.4,0-0.5,0v9.6c0.1,0,0.3,0.1,0.5,0.1c0.3,0,0.4,0.1,0.6,0.1c0.3,0,0.4,0,0.6,0c0.3,0,0.4,0,0.5,0
		c1.2,0,1.9-0.3,2.4-0.6c0.5-0.5,0.8-1,0.8-1.8c0-0.4-0.1-0.8-0.3-1c-0.1-0.4-0.4-0.6-0.6-0.9c-0.3-0.3-0.8-0.4-1.3-0.5
		c-0.5-0.1-1.2-0.3-1.9-0.3L81,12.8L81.1,12.7z"/>
	<path class="st0" d="M95.5,19.1v0.6h-4.6v-0.6l1.5-0.5V8.9l-1.5-0.5V7.7h4.6v0.6L93.8,9v9.7L95.5,19.1z"/>
	<path class="st0" d="M99.5,8.5l0.1-0.6c0.3,0,0.5,0,0.9,0c0.3,0,0.5,0,0.9,0c0.6,0,1.2,0,1.8,0s1.3,0,1.8,0c0.8,0,1.3,0.1,1.8,0.3
		c0.5,0.3,0.8,0.4,1,0.8c0.3,0.3,0.4,0.6,0.5,0.9c0.1,0.3,0.1,0.6,0.1,0.8c0,0.4-0.1,0.6-0.3,1c-0.1,0.3-0.3,0.5-0.5,0.8
		c-0.3,0.3-0.4,0.4-0.6,0.5c-0.3,0.1-0.5,0.3-0.8,0.3l0,0c0.9,0.1,1.7,0.5,2.2,1c0.5,0.5,0.8,1.3,0.8,2.2c0,0.5-0.1,1-0.3,1.4
		c-0.3,0.4-0.5,0.8-0.8,1.2c-0.4,0.3-0.8,0.5-1.2,0.8c-0.5,0.1-0.9,0.3-1.5,0.3s-1.2,0-1.8,0s-1.3,0-1.9,0c-0.4,0-0.8,0-1.2,0
		s-0.8,0-1.2,0v-0.6l1.5-0.5V9L99.5,8.5z M103.7,12.7c0.8,0,1.3-0.1,1.8-0.3c0.4-0.1,0.8-0.4,1-0.5c0.3-0.3,0.4-0.4,0.5-0.6
		c0.1-0.3,0.1-0.4,0.1-0.5c0-0.6-0.3-1.2-0.8-1.5c-0.5-0.3-1.3-0.5-2.2-0.5c-0.1,0-0.1,0-0.4,0c-0.1,0-0.3,0-0.5,0
		c-0.1,0-0.4,0-0.5,0c-0.1,0-0.4,0-0.5,0v9.6c0.1,0,0.3,0.1,0.5,0.1c0.3,0,0.4,0.1,0.6,0.1s0.4,0,0.6,0s0.4,0,0.5,0
		c1.2,0,1.9-0.3,2.4-0.6c0.5-0.5,0.8-1,0.8-1.8c0-0.4-0.1-0.8-0.3-1c-0.1-0.4-0.4-0.6-0.6-0.9s-0.8-0.4-1.3-0.5
		c-0.5-0.1-1.2-0.3-1.9-0.3l-0.1-0.8L103.7,12.7z"/>
	<path class="st0" d="M113.4,14c0-0.8,0.1-1.5,0.3-2.3c0.1-0.8,0.5-1.4,0.9-2.1c0.4-0.6,0.9-1.2,1.7-1.5c0.6-0.4,1.5-0.6,2.4-0.6
		c0.4,0,0.9,0,1.3,0.1c0.5,0.1,1,0.3,1.5,0.6l0.4-0.6h0.5l0.1,3.3l-0.6,0.1l-0.5-1.7c-0.4-0.3-0.8-0.4-1.2-0.5
		c-0.4-0.1-0.9-0.1-1.5-0.1s-1.3,0.1-1.8,0.4s-0.9,0.6-1.2,1.2c-0.3,0.5-0.5,1-0.6,1.7c-0.1,0.6-0.1,1.3-0.1,2.1
		c0,0.6,0,1.3,0.1,1.8c0.1,0.6,0.3,1.2,0.5,1.7c0.3,0.5,0.6,0.9,1.2,1.2c0.5,0.3,1.3,0.4,2,0.4c0.5,0,1.2,0,1.7-0.1
		c0.5-0.1,1.2-0.3,1.7-0.4l0.3,0.8c-0.5,0.3-1.2,0.5-1.9,0.6c-0.6,0.1-1.3,0.1-2,0.1c-1.7,0-3.1-0.5-4-1.5
		C113.8,17.5,113.4,16.1,113.4,14z"/>
	<path class="st0" d="M128.7,12.5c0.4-0.1,0.8-0.1,1.2-0.1s0.8-0.1,1.2-0.1c0.6,0,1.3,0.1,1.9,0.3c0.5,0.1,1,0.4,1.4,0.8
		c0.4,0.4,0.8,0.8,0.9,1.2c0.3,0.5,0.4,1,0.4,1.5c0,0.5-0.1,1-0.3,1.4c-0.1,0.5-0.4,0.9-0.8,1.2c-0.4,0.4-0.8,0.6-1.2,0.8
		c-0.5,0.3-1,0.3-1.5,0.3c-0.6,0-1.2,0-1.8,0s-1.3,0-1.9,0c-0.4,0-0.8,0-1.2,0c-0.4,0-0.8,0-1.2,0v-0.6l1.5-0.5V8.6l-1.5-0.5V7.5
		h4.6v0.8l-1.7,0.4v3.8H128.7z M130.7,13.2c-0.4,0-0.6,0-1,0c-0.4,0-0.6,0.1-1,0.1v5.1c0.1,0,0.3,0.1,0.5,0.1c0.3,0,0.4,0.1,0.6,0.1
		s0.4,0,0.6,0s0.4,0,0.5,0c0.6,0,1.2-0.1,1.5-0.3c0.4-0.1,0.8-0.4,1-0.6c0.3-0.3,0.4-0.5,0.5-0.9c0.1-0.4,0.1-0.6,0.1-1
		c0-0.4,0-0.8-0.1-1c-0.1-0.4-0.3-0.6-0.6-0.9c-0.3-0.3-0.6-0.5-1-0.6C131.9,13.2,131.4,13.2,130.7,13.2z"/>
	<path class="st0" d="M143.8,19.1v0.6h-4.6v-0.6l1.5-0.5V8.9l-1.5-0.5V7.7h4.6v0.6l-1.7,0.4v9.7L143.8,19.1z M142.8,13.6v-0.3
		l3.6-4.5l-1.2-0.4V7.9h3.7v0.8c-0.4,0.1-0.9,0.4-1.3,0.8c-0.5,0.3-0.9,0.6-1.3,1.2l-2.4,2.8l5.9,6l-0.1,0.5l-1.4,0.3L142.8,13.6z"
		/>
	<path class="st0" d="M157.7,19.1v0.6h-4.6v-0.6l1.5-0.5V8.9l-1.5-0.5V7.7h4.6v0.6l-1.7,0.4v7.7l5.8-7V8.7l-1.5-0.5V7.6h4.6v0.6
		l-1.7,0.4v9.7l1.7,0.4v0.6h-4.6v-0.6l1.5-0.5v-7.6l-5.6,6.9l0,0v0.6L157.7,19.1z"/>
	<path class="st0" d="M173.1,19.1v0.6h-4.6v-0.6l1.5-0.5V8.9l-1.5-0.5V7.7h4.6v0.6l-1.7,0.4v7.7l5.8-7V8.7l-1.5-0.5V7.6h4.6v0.6
		l-1.7,0.4v9.7l1.7,0.4v0.6h-4.6v-0.6l1.5-0.5v-7.6l-5.6,6.9l0,0v0.6L173.1,19.1z M172.1,5l0.9-0.5c0.1,0.3,0.3,0.4,0.4,0.5
		c0.1,0.1,0.3,0.4,0.5,0.5c0.1,0.1,0.3,0.3,0.5,0.3c0.1,0.1,0.3,0.1,0.4,0.1s0.3,0,0.4,0c0.1,0,0.3-0.1,0.5-0.1
		c0.1-0.1,0.4-0.3,0.6-0.4c0.3-0.1,0.5-0.4,0.8-0.6l0.5,0.4c-0.5,0.6-0.9,1.2-1.4,1.4c-0.5,0.3-0.9,0.4-1.3,0.4
		c-0.3,0-0.5,0-0.8-0.1s-0.5-0.3-0.6-0.4c-0.3-0.1-0.4-0.3-0.6-0.5c-0.1-0.1-0.4-0.4-0.5-0.6V5H172.1z"/>
	<path class="st0" d="M52.7,33.1h-0.8l-3.3-6.9l-1.2-0.3l0.1-0.6h2.7c0,0.3,0.1,0.5,0.1,0.9c0.1,0.3,0.3,0.6,0.4,0.9l2.4,5.3l0,0
		c0.1-0.4,0.4-0.9,0.5-1.3c0.1-0.4,0.4-0.9,0.5-1.4c0.1-0.5,0.4-1,0.6-1.5c0.3-0.5,0.5-1.2,0.8-1.8L54,25.9v-0.8h4v0.6
		c-0.4,0.1-0.8,0.4-1.2,0.8c-0.4,0.4-0.6,0.9-0.9,1.4l-2.9,6.7c-0.4,0.8-0.8,1.4-1.2,1.9c-0.5,0.5-1,0.8-1.7,0.8
		c-0.5,0-0.9-0.1-1.2-0.4c-0.3-0.3-0.4-0.5-0.4-0.8c0-0.1,0-0.4,0.1-0.5c0.1-0.1,0.3-0.4,0.5-0.5l1.7,0.9c0.3-0.1,0.5-0.3,0.6-0.5
		c0.3-0.3,0.4-0.6,0.6-1L52.7,33.1z"/>
	<path class="st0" d="M65.1,36.4v0.6h-4.6v-0.6l1.5-0.5v-9.7l-1.5-0.4v-0.6h4.6v0.6l-1.7,0.4v4.2h5.8v-4.2l-1.5-0.5V25h4.6v0.6
		L70.6,26v9.7l1.7,0.4v0.6h-4.6v-0.6l1.5-0.5V31h-5.8v4.6L65.1,36.4z"/>
	<path class="st0" d="M80.4,36.4v0.6h-4.6v-0.6l1.5-0.5v-9.7l-1.5-0.5V25h4.6v0.6L78.7,26v9.7L80.4,36.4z"/>
	<path class="st0" d="M83.9,25.8l0.1-0.6c0.3,0,0.5,0,0.9,0c0.3,0,0.5,0,0.9,0c0.6,0,1.2,0,1.8,0s1.3,0,1.8,0c0.8,0,1.3,0.1,1.8,0.3
		c0.5,0.3,0.8,0.4,1,0.8c0.3,0.3,0.4,0.6,0.5,0.9c0.1,0.3,0.1,0.6,0.1,0.8c0,0.4-0.1,0.6-0.3,1c-0.1,0.3-0.3,0.5-0.5,0.8
		c-0.3,0.3-0.4,0.4-0.6,0.5c-0.3,0.1-0.5,0.3-0.8,0.3l0,0c0.9,0.1,1.7,0.5,2.2,1c0.5,0.5,0.8,1.3,0.8,2.2c0,0.5-0.1,1-0.3,1.4
		c-0.3,0.4-0.5,0.8-0.8,1.2c-0.4,0.3-0.8,0.5-1.2,0.8c-0.5,0.1-0.9,0.3-1.5,0.3s-1.2,0-1.8,0s-1.3,0-1.9,0c-0.4,0-0.8,0-1.2,0
		c-0.4,0-0.8,0-1.2,0v-0.6l1.5-0.5v-9.7L83.9,25.8z M88.2,30c0.8,0,1.3-0.1,1.8-0.3c0.4-0.1,0.8-0.4,1-0.5c0.3-0.3,0.4-0.4,0.5-0.6
		c0.1-0.3,0.1-0.4,0.1-0.5c0-0.6-0.3-1.2-0.8-1.5c-0.5-0.3-1.3-0.5-2.2-0.5c-0.1,0-0.1,0-0.4,0c-0.1,0-0.3,0-0.5,0
		c-0.1,0-0.4,0-0.5,0c-0.1,0-0.4,0-0.5,0v9.6c0.1,0,0.3,0.1,0.5,0.1c0.3,0,0.4,0.1,0.6,0.1c0.3,0,0.4,0,0.6,0c0.3,0,0.4,0,0.5,0
		c1.2,0,1.9-0.3,2.4-0.6c0.5-0.5,0.8-1,0.8-1.8c0-0.4-0.1-0.8-0.3-1c-0.1-0.4-0.4-0.6-0.6-0.9c-0.3-0.3-0.8-0.4-1.3-0.5
		c-0.5-0.1-1.2-0.3-1.9-0.3L88,30L88.2,30z"/>
	<path class="st0" d="M106.2,33.6l-0.4,3.2l-0.1,0.1c-0.4,0-0.8,0-1.2,0c-0.3,0-0.6,0-0.9,0c-0.3,0-0.6,0-1,0c-0.4,0-0.8,0-1.3,0
		c-0.3,0-0.6,0-1,0s-0.8,0-1.2,0c-0.4,0-0.8,0-1.2,0c-0.4,0-0.8,0-1.2,0l-0.1-0.6l1.5-0.5V26l-1.4-0.4L97,25c0.3,0,0.6,0,1,0
		c0.4,0,0.9,0,1.3,0c0.4,0,0.8,0,1.2,0c0.4,0,0.6,0,0.9,0c0.4,0,0.8,0,1,0c0.3,0,0.6,0,0.9,0s0.5,0,0.9,0c0.3,0,0.6,0,1,0l0.1,0.1
		l0.1,3.2l-0.6,0.3l-0.6-2.3c-0.1,0-0.4,0-0.9,0c-0.4,0-0.9,0-1.3,0c-0.5,0-0.9,0-1.3,0c-0.4,0-0.8,0-0.9,0v4.2l4.7-0.1v1.2
		l-4.7-0.1v4.7c0.3,0,0.5,0,1,0c0.4,0,0.9,0,1.4,0c0.5,0,1,0,1.4,0c0.4,0,0.8,0,1,0l1.2-2.4L106.2,33.6z"/>
	<path class="st0" d="M109.4,25.1c0.1,0,0.3,0,0.4,0c0.1,0,0.3,0,0.4,0s0.3,0,0.5,0c0.1,0,0.4,0,0.8,0c0.5,0,1,0,1.5,0
		c0.5,0,1.2,0,1.7,0c0.6,0,1.2,0,1.7,0.1c0.5,0.1,0.9,0.4,1.3,0.6c0.4,0.3,0.6,0.6,0.9,1c0.3,0.4,0.3,0.9,0.3,1.5
		c0,0.5-0.1,1-0.3,1.4c-0.1,0.4-0.5,0.9-0.9,1.2c-0.4,0.4-0.9,0.6-1.4,0.8c-0.5,0.3-1.2,0.3-1.9,0.3c-0.3,0-0.5,0-0.8,0
		c-0.4,0-0.8-0.1-1.2-0.1v4l1.7,0.4v0.6h-4.9v-0.6l1.5-0.5v-9.9l-1.4-0.4L109.4,25.1z M117.1,28.6c0-0.5-0.1-0.9-0.3-1.2
		c-0.1-0.4-0.4-0.6-0.6-0.8s-0.6-0.4-1-0.5c-0.4-0.1-0.9-0.1-1.4-0.1c-0.5,0-1,0-1.5,0.1V31c0.3,0,0.5,0.1,0.9,0.1
		c0.3,0,0.5,0,0.6,0c0.6,0,1.3-0.1,1.7-0.3c0.4-0.1,0.8-0.4,1-0.6c0.3-0.3,0.4-0.5,0.5-0.8C117,29.2,117.1,29,117.1,28.6z"/>
	<path class="st0" d="M121.9,31.3c0-0.8,0.1-1.5,0.3-2.3c0.1-0.8,0.5-1.4,0.9-2.1c0.4-0.6,0.9-1.2,1.7-1.5c0.6-0.4,1.5-0.6,2.4-0.6
		c0.4,0,0.9,0,1.3,0.1c0.5,0.1,1,0.3,1.5,0.6l0.4-0.6h0.5l0.1,3.3l-0.6,0.1l-0.5-1.7c-0.4-0.3-0.8-0.4-1.2-0.5
		c-0.4-0.1-0.9-0.1-1.5-0.1s-1.3,0.1-1.8,0.4c-0.5,0.3-0.9,0.6-1.2,1.2c-0.3,0.5-0.5,1-0.6,1.7c-0.1,0.6-0.1,1.3-0.1,2.1
		c0,0.6,0,1.3,0.1,1.8c0.1,0.6,0.3,1.2,0.5,1.7c0.3,0.5,0.6,0.9,1.2,1.2c0.5,0.3,1.3,0.4,2,0.4c0.5,0,1.2,0,1.7-0.1
		c0.5-0.1,1.2-0.3,1.7-0.4l0.3,0.8c-0.5,0.3-1.2,0.5-1.9,0.6c-0.6,0.1-1.3,0.1-2.1,0.1c-1.7,0-3.1-0.5-4-1.5
		C122.4,34.8,121.9,33.3,121.9,31.3z"/>
	<path class="st0" d="M138.4,36.4v0.6h-4.6v-0.6l1.5-0.5v-9.7l-1.5-0.5V25h4.6v0.6l-1.7,0.4v7.7l5.8-7V26l-1.5-0.5v-0.6h4.6v0.6
		l-1.7,0.4v9.7l1.7,0.4v0.6H141V36l1.5-0.5V28l-5.6,6.9l0,0v0.6L138.4,36.4z"/>
	<path class="st0" d="M154,36l1.7,0.4v0.6h-4.6v-0.6l1.5-0.5V26h-2.9l-0.6,2.4l-0.8-0.1l0.1-3.2l0.1-0.1c0.4,0,0.8,0,1.2,0
		c0.4,0,0.8,0,1.2,0c0.4,0,0.8,0,1.2,0s0.9,0,1.4,0c0.4,0,0.9,0,1.3,0c0.4,0,0.8,0,1.2,0c0.4,0,0.8,0,1.2,0s0.8,0,1.3,0l0.1,0.1
		l0.1,3.2l-0.8,0.1l-0.6-2.4H154V36z"/>
	<path class="st0" d="M170.3,33.6l-0.4,3.2l-0.1,0.1c-0.4,0-0.8,0-1.2,0c-0.3,0-0.6,0-0.9,0s-0.6,0-1,0c-0.4,0-0.8,0-1.3,0
		c-0.3,0-0.6,0-1,0c-0.4,0-0.8,0-1.2,0c-0.4,0-0.8,0-1.2,0s-0.8,0-1.2,0l-0.1-0.6l1.5-0.5V26l-1.4-0.4l0.1-0.6c0.3,0,0.6,0,1,0
		c0.4,0,0.9,0,1.3,0c0.4,0,0.8,0,1.2,0c0.4,0,0.6,0,0.9,0c0.4,0,0.8,0,1,0s0.6,0,0.9,0c0.3,0,0.5,0,0.9,0c0.3,0,0.6,0,1,0l0.1,0.1
		l0.1,3.2l-0.8,0.1l-0.6-2.3c-0.1,0-0.4,0-0.9,0c-0.4,0-0.9,0-1.3,0c-0.5,0-0.9,0-1.3,0c-0.4,0-0.8,0-0.9,0v4.2l4.7-0.1v1.2
		l-4.7-0.1V36c0.3,0,0.5,0,1,0c0.4,0,0.9,0,1.4,0c0.5,0,1,0,1.4,0c0.4,0,0.8,0,1,0l1.2-2.4H170.3z"/>
	<path class="st0" d="M178.5,36l1.7,0.4v0.6h-4.6v-0.6l1.5-0.5V26h-2.9l-0.6,2.4l-0.8-0.1l0.1-3.2L173,25c0.4,0,0.8,0,1.2,0
		c0.4,0,0.8,0,1.2,0s0.8,0,1.2,0c0.4,0,0.9,0,1.4,0c0.4,0,0.9,0,1.3,0c0.4,0,0.8,0,1.2,0c0.4,0,0.8,0,1.2,0c0.4,0,0.8,0,1.3,0
		l0.1,0.1l0.1,3.2l-0.8,0.1l-0.6-2.4h-2.9v10H178.5z"/>
</g>
</svg>
