<?xml version="1.0" encoding="iso-8859-1"?>
<!-- Generator: Adobe Illustrator 19.0.0, SVG Export Plug-In . SVG Version: 6.00 Build 0)  -->
<svg version="1.1" id="Layer_1" xmlns="http://www.w3.org/2000/svg" xmlns:xlink="http://www.w3.org/1999/xlink" x="0px" y="0px"
	 viewBox="0 0 512 512" style="enable-background:new 0 0 512 512;" xml:space="preserve">
<g>
	<path style="fill:#507C5C;" d="M430.975,512h-37.449c-7.952,0-14.401-6.447-14.401-14.401c0-7.953,6.449-14.401,14.401-14.401
		h37.449c27.604,0,50.064-22.459,50.064-50.064V83.186c0-27.604-22.459-50.064-50.064-50.064H214.718
		c-7.952,0-14.401-6.447-14.401-14.401s6.449-14.401,14.401-14.401h216.257c43.485,0,78.865,35.378,78.865,78.865v349.949
		C509.84,476.622,474.461,512,430.975,512z"/>
	<path style="fill:#507C5C;" d="M289.409,507.68H81.025c-43.485,0-78.865-35.378-78.865-78.865V78.865
		C2.16,35.378,37.539,0,81.025,0h32.408c7.952,0,14.401,6.447,14.401,14.401s-6.449,14.401-14.401,14.401H81.025
		c-27.604,0-50.064,22.459-50.064,50.064v349.949c0,27.604,22.459,50.064,50.064,50.064h208.385c7.952,0,14.401,6.447,14.401,14.401
		S297.363,507.68,289.409,507.68z"/>
</g>
<path style="fill:#CFF09E;" d="M207.074,373.74c-64.926,0-117.748-52.823-117.748-117.749c0-64.918,52.821-117.733,117.748-117.733
	c26.64,0,51.036,8.05,70.553,23.278c4.172,3.253,5.926,9.023,3.738,14.406c-0.635,1.561-1.643,2.946-2.835,4.137l-18.554,18.554
	c-2.241,2.241-5.189,3.741-8.354,3.914c-2.892,0.157-5.662-0.675-7.959-2.382c-9.965-7.4-22.617-11.312-36.589-11.312
	c-35.548,0-65.579,30.745-65.579,67.137c0,36.528,29.419,66.245,65.579,66.245c46.525,0,56.897-37.061,56.897-37.061h-26.694
	c-6.807,0-12.327-5.518-12.327-12.327v-17.646c0-6.807,5.518-12.325,12.325-12.325h56.843c13.668,0,24.842,11.192,24.842,24.86
	c0,37.585-17.533,64.648-37.752,81.285C261.557,365.194,241.599,373.74,207.074,373.74z"/>
<g>
	<path style="fill:#507C5C;" d="M207.073,388.141c-72.867,0-132.148-59.283-132.148-132.15c0-72.858,59.281-132.134,132.148-132.134
		c29.881,0,57.342,9.104,79.413,26.326c9.339,7.284,12.721,20.106,8.22,31.182c-1.316,3.242-3.331,6.235-5.989,8.895l-18.557,18.557
		c-4.875,4.872-11.179,7.752-17.753,8.11c-6.299,0.34-12.32-1.48-17.328-5.2c-7.465-5.543-17.148-8.473-28.005-8.473
		c-27.741,0-51.178,24.151-51.178,52.736c0,28.588,22.957,51.845,51.178,51.845c13.161,0,22.482-3.672,29.004-8.286
		c-14.183-0.629-25.528-12.364-25.528-26.7v-17.646c0-14.738,11.99-26.727,26.727-26.727h56.843
		c21.638,0,39.243,17.612,39.243,39.26c0,49.614-26.943,79.19-43.003,92.405C266.191,380.029,242.062,388.141,207.073,388.141z
		 M207.073,152.66c-56.984,0-103.347,46.354-103.347,103.333c0,56.986,46.361,103.348,103.347,103.348
		c32.421,0,48.903-8.203,64.985-21.438c12.14-9.988,32.502-32.384,32.502-70.165c0-5.767-4.685-10.459-10.442-10.459H239.35v13.499
		h24.621c4.504,0,8.75,2.108,11.473,5.698c2.723,3.589,3.609,8.246,2.395,12.583c-4.605,16.457-25.322,47.581-70.766,47.581
		c-44.1,0-79.979-36.178-79.979-80.646c0-44.198,36.626-81.537,79.979-81.537c16.402,0,31.452,4.509,43.66,13.058l16.095-16.094
		C250.191,159.138,229.588,152.66,207.073,152.66z"/>
	<path style="fill:#507C5C;" d="M392.072,301.002c-7.952,0-14.401-6.447-14.401-14.401v-61.202c0-7.953,6.449-14.401,14.401-14.401
		c7.952,0,14.401,6.447,14.401,14.401v61.202C406.473,294.555,400.026,301.002,392.072,301.002z"/>
	<path style="fill:#507C5C;" d="M422.673,270.401h-61.202c-7.952,0-14.401-6.447-14.401-14.401c0-7.953,6.449-14.401,14.401-14.401
		h61.202c7.952,0,14.401,6.447,14.401,14.401C437.074,263.953,430.627,270.401,422.673,270.401z"/>
</g>
<g>
</g>
<g>
</g>
<g>
</g>
<g>
</g>
<g>
</g>
<g>
</g>
<g>
</g>
<g>
</g>
<g>
</g>
<g>
</g>
<g>
</g>
<g>
</g>
<g>
</g>
<g>
</g>
<g>
</g>
</svg>
