<?xml version="1.0" encoding="utf-8"?>
<!-- Generator: Adobe Illustrator 19.2.1, SVG Export Plug-In . SVG Version: 6.00 Build 0)  -->
<svg version="1.1" id="Layer_1" xmlns="http://www.w3.org/2000/svg" xmlns:xlink="http://www.w3.org/1999/xlink" x="0px" y="0px"
	 width="238px" height="54px" viewBox="0 0 238 54" style="enable-background:new 0 0 238 54;" xml:space="preserve">
<style type="text/css">
	.st0{fill:none;}
	.st1{fill:#FFFFFF;}
</style>
<g>
	<path class="st0" d="M8.9,16.1c0.2,0.1,0.3,0.2,0.4,0.2c0.5,0.3,1,0.6,1.4,1c-0.1-0.6-0.7-0.9-1.2-1.3c-0.2-0.2-0.4-0.3-0.6-0.5
		c-0.6-0.6-1.2-1.2-1.4-2.1c-0.2-0.7-0.3-1.5-0.2-2.3c0-0.5,0.1-1,0.2-1.4C7.1,9.9,7,10.6,6.9,11.1c-0.2,0.9-0.1,1.7,0.2,2.6
		C7.5,14.8,8,15.4,8.9,16.1z"/>
	<path class="st0" d="M5.4,36.3c0.1,0,0.1,0,0.2,0c0.2-0.1,0.2-0.2,0.2-0.4l-0.1-0.2l-0.2,0.2l-0.3,0.2l0.1,0.1
		C5.1,36.3,5.2,36.4,5.4,36.3z"/>
	<path class="st0" d="M9.9,12.8c-0.2-0.2-0.6-0.6-0.9-1.3c-0.2-0.6-0.5-1.3-0.5-2.1C8.4,8.5,8.6,7.5,9,6.8c0.2-0.4,0.5-0.7,0.8-1
		C9.5,5.9,9.1,6,9,6.3C8.4,7,8,8.3,8.1,9.4c0.1,1.2,0.5,2.2,0.9,2.8C9.2,12.6,9.5,12.8,9.9,12.8z"/>
	<path class="st0" d="M23.2,51.1H23l-0.1,0.6h0.2c0,0.1,0,0.1,0,0.1c0.2,0,0.2-0.2,0.3-0.3C23.5,51.2,23.3,51.1,23.2,51.1z"/>
	<polygon class="st0" points="6.5,37.7 6.1,37.8 5.8,38 5.9,38.3 6.1,38.1 	"/>
	<path class="st0" d="M13,24.6c0.1,8.6,5.8,15.9,13.5,18.5h0.1c7.8-2.6,13.5-9.9,13.6-18.5v-0.2V11.5H26.7H13v12.9H13V24.6z
		 M15.8,19.9v-0.2h0.4v0.2c0,0.2,0.1,0.2,0.2,0.2h2.7v-0.5h0.4v0.5h2.6c0.2,0,0.2-0.1,0.2-0.2v-0.2h0.4v0.2c0,0.4-0.2,0.6-0.6,0.6
		c-2.4,0-3.3,0-5.6,0C16,20.5,15.8,20.3,15.8,19.9z M24.5,24.7c0.1,0,0.2,0,0.2,0c0.2-0.1,0.3-0.1,0.5-0.2s0.2-0.2,0.4-0.4
		c0,0.3-0.1,0.6,0,0.9c0.1,0.2,0.2,0.4,0.2,0.7c-0.2-0.2-0.5-0.3-0.6-0.7c-0.1,0-0.1-0.1-0.1-0.1c-0.1,0.4-0.1,0.6-0.3,0.9
		c-0.1-0.2-0.1-0.3-0.1-0.5c-0.1-0.2-0.1-0.3-0.2-0.4c-0.1,0.2-0.3,0.4-0.6,0.3c0.1-0.2,0.2-0.4,0.2-0.8c-0.5,0.3-1-0.2-0.7-0.7
		c0.2,0.2,0.3,0.2,0.6,0.2c0.2,0,0.4-0.1,0.6-0.3C24.5,24.1,24.7,24.2,24.5,24.7z M25.8,26c-0.2-0.1-0.4-0.2-0.6-0.2
		c-0.1,0-0.2,0-0.2,0c0.1-0.1,0.2-0.2,0.2-0.4l0.1,0.1C25.3,25.7,25.5,25.9,25.8,26z M23.7,24.9c-0.1,0.2-0.2,0.3-0.3,0.4
		c0.4,0.2,0.8,0.2,1,0c0,0.2,0.1,0.4,0.2,0.6c-0.5,0.1-0.9,0.2-1.2,0.2c-0.4,0.2-1.4,0.4-1.5,0.5c0.2-0.3,0.4-0.5,0.2-0.9
		c-0.1,0.1-0.4,0.4-0.7,0.4c0.2-0.2,0.4-0.6,0.3-0.8c-0.3,0.2-0.5,0.3-0.7,0.3c0.2-0.2,0.5-0.7,0.2-1c-0.1,0.2-0.2,0.5-0.5,0.6
		c0.2-0.8-0.3-0.9-0.3-1.3h0.9l0.1-0.8c-0.6-0.1-1.4,0.2-1.5-0.6v-1l-0.6-0.3c0.2-0.1,0.1-0.3,0-0.5c0.2-0.1,0.5,0,0.6,0.2
		c0.3,0.3,0.6,0.7,0.8,0.9c0.4,0.5,0.9,0.4,1.2,0.9c0.2,0.3,0.2,0.7,0.4,1.1C22.5,24.3,23.2,24.8,23.7,24.9z M19,22.1
		c0.3-0.2,0.3-0.4,0.1-0.6l0.5,0.1v1.2h-0.4C19.5,22.5,19.3,22.2,19,22.1z M19.2,22.5c-0.1,0.2-0.3,0.3-0.6,0.2
		c-0.2-0.1-0.4-0.2-0.3-0.4c0-0.2,0.2-0.2,0.5-0.2C19,22.2,19.2,22.3,19.2,22.5z M18.7,21.2c-0.2,0-0.4-0.2-0.3-0.4
		c0-0.2,0.2-0.2,0.5-0.2c0.2,0,0.4,0.2,0.4,0.4C19,21.2,18.8,21.3,18.7,21.2z M18.8,21.4c0.2,0.1,0.4,0.2,0.4,0.4
		c-0.1,0.2-0.3,0.3-0.6,0.2c-0.2-0.1-0.5-0.2-0.4-0.4C18.2,21.5,18.5,21.3,18.8,21.4z M18.3,23.3c0-0.2,0.2-0.4,0.3-0.4h0.9
		c0.2,0,0.3,0.2,0.3,0.4h1v0.4h-3.6v-0.4H18.3z M26.8,34.8c-0.4,0.2-0.7,0.1-1-0.2c0.2,0.4,0.3,0.5,0.6,0.6
		c-0.9,0.8-0.1,1.2-0.1,2.1c0,0.2-0.2,0.5-0.1,0.8c-0.2,0-0.3-0.1-0.5-0.3c-0.1,0.3-0.1,0.6,0,1c-0.2-0.1-0.4-0.2-0.5-0.3
		c-0.1,0.1-0.1,0.4,0,0.6C25,39,25,38.9,24.8,38.8c0.2,0.6,0,1.2-0.1,1.3c-0.5,0.2-1.4-0.1-1.9,0.6c-0.6-0.3-0.3-0.6,0.2-0.9
		c-0.3,0-0.6,0-0.8,0.4c-0.6-0.3-0.1-0.8,0.2-0.9c-0.3-0.1-0.6,0.1-0.6,0.4c-0.6-0.2-0.2-1.3,0.6-1c0.5,0.1,0.6,0.4,1,0.3
		c0.7-0.1,0.1-1,0.7-1.6c0.2-0.2,0.4-0.3,0.8-0.6c-0.2-0.1-0.5,0-0.6,0.1c0-0.3,0.2-0.5,0.3-0.6c-0.2,0-0.6,0.1-0.7,0.4
		c-0.2-0.7,0.4-0.7,0.3-1c-0.3,0.2-0.6,0.2-0.8,0.2c0.2-0.3,0.4-0.6,0.4-0.6c-0.2,0-0.5,0-0.7,0.1c0.2-0.6,0.5-0.5,0.9-0.8
		c-0.6,0.1-0.8,0.1-1.1,0c0.9-0.3,0.5-1.5,1.4-1.8c1-0.4,1.9-0.6,2.7-1.6c0.2,0.1,0.9,0.3,0.8,0.9c-0.1-0.1-0.3-0.3-0.6-0.3
		c0.3,0.4-0.4,1.2,0.2,1.9c-0.2,0.2-0.3,0.4-0.3,0.7c-0.4,0-0.7-0.2-0.9-0.3C26.3,34.4,26.5,34.7,26.8,34.8z M27.5,32.1
		c0.2,0.1,0.3,0.2,0.5,0.3c0,0.4-0.1,0.8-0.3,1.1C27.2,33.1,27.5,32.6,27.5,32.1z M31,23.2c0.8-0.5,1.8-0.6,2.5,0.1
		c0.3,0.2,0.5,0.6,0.5,1.1c0,1.1-1,2.1-1.1,2.9c0.3-0.5,0.6-0.5,0.8-0.9c0.2,0.6-0.2,1-0.6,1.3c0.2-0.2,0.4-0.1,0.6-0.3
		c0,0.6-0.7,0.9-0.7,1.2c0.2-0.1,0.5-0.2,0.6-0.4c0.1,0.6-0.5,0.9-0.3,1.5c0,0,0.2-0.4,0.5-0.3c-0.2,0.4-0.2,1.1-0.2,1.7
		c0.2,1,0.2,2.2-1.3,2.4c-0.6-0.1-1.3-0.4-1.7-1c0-0.1,0.2-0.9,0-1c-0.2,1-0.7,1-0.1,2.3c-0.4,0.2-0.6-0.2-0.7-0.2
		c-0.1,0.6,0.6,1.1,1.2,1.3c0.5,0.2,1.1,0.4,0.8,1.3c0.2,0,0.2,0.1,0.4,0c-0.1,0.2-0.3,0.4-0.5,0.5c0.1,0.2,0.3,0.3,0.6,0.3
		c-0.2,0.3-0.7,0.2-0.9,0.2c0.2,0.2,0.6,0.4,0.6,0.9c0,0-0.4-0.2-0.6-0.2c0.2,0.1,0.6,0.4,0.6,0.8c-0.1-0.1-0.3-0.2-0.4-0.2
		c0.1,0.2,0.2,0.7,0.1,1.3c-0.6,0.6-1.5,0.7-1.9,0.6c-0.1-0.2,0-0.6,0.2-0.7c-0.5-0.2-0.5,0.4-0.6,0.6c-0.5-0.2-0.4-0.7,0-0.9
		c-0.2-0.1-0.6,0.1-0.6,0.6c-0.5-0.2-0.3-0.7-0.1-1c0.3-0.2,0.7-0.2,1,0c0.2,0.2,0.6,0.6,0.8,0.3c-0.2-0.3-0.7-1.6-0.4-2.7
		c-0.2-0.2-0.4-0.3-0.5-0.6c-0.2,0.1-0.4,0.2-0.6,0.6c-0.4-0.4-0.5-0.9-0.5-0.9c-0.2,0.2-0.5,0.4-0.5,0.8c-0.2-0.2-0.2-0.5-0.2-1
		c-0.2,0.2-0.4,0.6-0.7,0.6c0.2-0.4-0.1-0.8-0.2-1.1c-0.2-0.6-0.1-0.9,0.4-1.2c0.2-0.2,0.3-0.4,0.3-0.9c0.1-1.1,0.1-1.2-0.9-2
		c-0.9-0.6-1.4-1-1.3-2.2c-0.2,0.2-0.6,0.6-0.6,0.8c-0.2-0.5-0.2-0.7-0.2-1.1c-0.3,0.2-0.4,0.6-0.5,0.9c-0.2-0.2-0.3-0.5-0.4-0.9
		c-0.2,0.4-0.2,0.6-0.2,1.2c-0.2-0.1-0.4-0.2-0.5-0.6c-0.2,0.3-0.2,0.5-0.5,0.6c0.2-0.4,0.1-0.7-0.2-1.1c-0.7,0.1-1.7-0.1-2.7-0.4
		c-0.3,0.5-1,0.2-1.2-0.2c0.2,0,0.5,0,0.6-0.1c0.2-0.2,0.1-0.4-0.2-0.4c-0.2,0-0.5,0.2-0.6,0.3c-0.4,0.2-0.8,0.1-1-0.2
		C17,27.3,17,27.1,16.7,27c0.2-0.2,0.3-0.2,0.5-0.2c0.2-0.1,0.6,0.2,0.9,0.5c-0.1-0.6-0.8-0.9-1.2-0.7c0.2-0.7,0.9-0.5,1.2-0.1
		c0-0.5-0.4-0.6-0.9-0.6c0.2-0.7,0.9-0.6,1.3-0.1c0.6,0.9,1.4,1.2,2.6,1.1c1.3-0.1,2.4-0.7,3.9-0.6c0.4,0.2,0.5,0.4,0.5,0.9
		c0.3-0.1,0.6-0.4,0.6-0.6c0.1,0.1,0.2,0.3,0.4,0.6c0.5-0.6,0.6-0.8,0.6-1.2c0.2,0.2,0.3,0.3,0.5,0.6c0.4-0.3,0.5-0.6,0.6-1
		c0.6,0.5,0.5,0.9,0.4,1.4c-0.2,0.9,0.2,1.9,0.7,2.7c0.4,0.6,0.9,1,1.2,1.7c0.3,0.8,0.6,1.7,1.4,1.6c1.5-0.1,0.7-2.3,0.5-3.1
		c-0.2-0.5-0.6-1.2-0.6-1.7c-0.1-0.6,0.1-1.1,0.4-1.6c0.2-0.5,1-1.3,0.9-2.2c-0.1-1.4-2-1.2-1.6-0.2c0.1,0.2,0.2,0.4,0.5,0.4
		c-0.2,0.2-0.6,0.3-0.8,0.1c-0.1-0.1-0.2-0.3-0.2-0.6c-0.2,0.7,0.1,0.7,0.4,1c0.1,0.1,0.1,0.2,0.2,0.2c0.3,0.3,0.6,0.8,0.1,1.3
		c0-0.6-0.2-0.7-0.6-1.2c0.3,0.6,0.5,1,0.2,1.3c0.1-0.3-0.2-0.5-0.4-0.7c-0.2-0.3-0.4-0.6-0.5-0.9s0-0.8,0.2-1.1
		c-0.3,0.2-0.4,0.9-0.4,1.2c0.1,0.3,0.3,0.6,0.6,1.1c0.2,0.4,0.2,1.1-0.4,1.3c0.4-0.9-0.3-1.4-0.6-2.1C29.8,24.5,30.3,23.6,31,23.2z
		 M26,25.3c0.3,0,0.7,0.2,0.9,0.4c0.2-0.4,0.2-0.8,0.2-1.1l0.2,0.1c0.2,0.2,0.3,0.2,0.5,0.4c0.3-0.6,0.2-0.9,0.2-1.1
		c0.4,0.2,0.4,0.3,0.6,0.6c0.1-0.3,0.2-0.5,0.2-0.6c0.1-0.1,0.2-0.1,0.2-0.2c0.2,0.3,0.2,0.7,0.6,1.2c-0.3,0-0.6-0.2-0.9-0.4
		c0,0.1,0,0.1,0,0.1c0.2,0.4,0.6,0.5,0.5,1.1c-0.1-0.1-0.2-0.2-0.5-0.4c-0.1-0.1-0.2-0.2-0.4-0.2c0.2,0.4,0.1,0.8-0.2,1
		c-0.2-0.2-0.2-0.5-0.7-0.7c0,0.2-0.1,0.4-0.2,0.6c-0.1,0.2-0.2,0.5-0.2,0.5c-0.2-0.3-0.3-0.3-0.6-0.6c-0.1,0.3-0.2,0.5-0.3,0.6
		c-0.1-0.2-0.2-0.3-0.4-0.5C26.2,25.8,26.2,25.5,26,25.3z M30,26.9c0.2-0.4,0-0.9,0.2-1.2c0.1,0.2,0.2,0.3,0.3,0.6
		C30.5,26.5,30.3,26.8,30,26.9z M29.3,23.3c0.1-0.5,0-0.9-0.4-1.2c0,0.4,0.4,0.8,0,1.4c0-0.1-0.1-0.1-0.2-0.1
		c-0.2-0.2-0.2-0.3-0.3-0.6c-0.2,0.6,0.5,0.6,0.1,1.3c-0.2-0.4-0.4-0.5-0.9-0.6c0.2,0.4,0.2,0.8,0.1,1.2c-0.2-0.2-0.2-0.2-0.4-0.2
		c-0.1-0.1-0.3-0.2-0.5-0.2c0.1,0.3,0.2,0.6,0,1c-0.2-0.2-0.5-0.2-0.7-0.2c0.1-0.4,0.6-0.6,0.3-1.2c0.3,0.1,0.6,0,1,0
		c-0.1-0.4-0.2-0.6-0.1-0.9h0.1c0.2,0.2,0.4,0.3,0.7,0.2c-0.1-0.3,0.1-0.6,0.1-0.7c0.2,0.1,0.5,0.3,0.6,0.2
		c-0.2-0.2-0.5-0.4-0.7-0.6c-0.1,0.4-0.2,0.4-0.3,0.9c-0.2-0.1-0.1-0.1-0.4-0.3l-0.1-0.1c0,0-0.4,0.5-0.3,1.1c-0.3,0.1-1-0.1-1-0.1
		c0.4,0.5,0,0.9-0.1,1.6v0.1c-0.2-0.3-0.2-0.6-0.2-0.8c0.1-0.3,0-0.8,0-0.8c-0.1,0.2-0.3,0.4-0.6,0.6c-0.2,0.1-0.3,0.2-0.5,0.2
		c0-0.5,0-0.7,0.2-1c0.1-0.1,0.2-0.2,0.3-0.2s0.2-0.1,0.4-0.1c-0.3,0.2-0.3,0.5-0.2,0.7c0,0,0.2-0.4,0.6-0.6l0.1-0.1
		c0.2,0.1,0.3,0.1,0.5,0.2c-0.2-0.5-0.1-0.8,0.1-1c0.2,0.1,0.2,0.3,0.2,0.6c0.2-0.6,0.2-0.8,0.5-1.1c0,0.1,0.1,0.1,0.2,0.2
		c0.1,0.1,0.1,0.2,0.2,0.3c0,0,0.3-0.5,0.3-0.9c0.2,0.2,0.3,0.4,0.6,0.6c0.2-0.2,0.2-0.4,0.2-0.6c0,0,0.1,0,0.1,0.1
		c0.4,0.2,0.6,0.4,0.9,0.9c0.2,0.6,0.3,0.8,0.6,1.1C30,23.5,29.5,23.4,29.3,23.3z M28.8,19.9c0.2,0.2,0.5,0.4,0.8,0.4
		c-0.3,0.2-0.5,0.2-0.7,0.2h-0.1c-0.2-0.1-0.4-0.2-0.7-0.3C28.3,19.9,28.5,19.9,28.8,19.9L28.8,19.9z M24,19.6
		c0.2-0.1,0.5-0.2,0.7-0.2c0.1,0,0.2-0.1,0.4-0.1h0.1c0.2-0.1,0.5-0.2,0.7-0.2c0.3-0.1,0.6-0.1,0.9,0.1c0.2-0.1,0.4-0.2,0.6-0.2
		c0.2,0,0.4,0,0.6,0.2c0.3,0.2,0.3,0.6,0.1,0.9c-0.4,0.2-0.5,0.6-0.6,0.8c0,0.1,0,0.1-0.1,0.1h0.1c0.4-0.2,0.4-0.5,0.6-0.6
		c0.2,0.2,0.2,0.5,0.2,0.5c0.2-0.1,0.2-0.2,0.2-0.4c0.1,0.1,0.2,0.2,0.4,0.3c0.3,0.2,0.7,0.3,1,0.3c-0.3,0.4-0.7,0.2-1,0.1
		c-0.2-0.1-0.2-0.2-0.2-0.2c0,0.2-0.1,0.4-0.2,0.6C28.1,21.4,28,21,28,21c-0.2,0.4-0.1,0.5-0.2,0.9c-0.1-0.1-0.2-0.2-0.2-0.2
		c-0.1-0.1-0.2-0.2-0.2-0.2c-0.1,0.2-0.2,0.5-0.3,0.9c-0.1-0.1-0.2-0.2-0.3-0.2c-0.2,0.2-0.5,0.6-0.4,1c-0.1-0.1-0.2-0.1-0.2-0.2
		c-0.1,0-0.2-0.1-0.3-0.1c-0.2,0.1-0.3,0.1-0.4,0.2c-0.1,0.1-0.2,0.2-0.4,0.2h-0.1c-0.6-0.1-0.6-0.5-0.5-0.9
		c0.1,0.1,0.2,0.2,0.5,0.2c0.2,0,0.3,0.1,0.5,0.1s0.5,0,0.6-0.2c0.1-0.1,0.2-0.2,0.2-0.2c0.1-0.2,0.1-0.4,0-0.6
		c-0.2-0.2-0.4-0.5-0.7-0.6c-0.2,0-0.3,0-0.5,0s-0.3,0-0.4,0.1c-0.2-0.3-0.2-0.3-0.3-0.6C23.8,20.1,23.5,20,24,19.6z M24.5,21.5
		c0,0,0.1,0,0.2,0c0.2,0,0.3,0,0.5,0.1s0.3,0.2,0.4,0.5c-0.2-0.1-0.2-0.2-0.4-0.2c-0.1,0-0.2,0-0.2-0.1c-0.1,0-0.2,0-0.2,0
		c-0.5,0.1-0.8,0.4-1.2,0.6c-0.6,0.2-1.3,0-1.1-0.8c0.2,0.3,0.7,0.4,1,0.3C23.7,21.8,24.2,21.6,24.5,21.5z M22,13.9
		c0.1-0.3,0.3-0.6,0.4-0.6c0.2,0.2,0.4,0.5,0.5,0.7c0,0.3-0.1,0.6-0.4,0.6c0.1-0.2,0.2-0.5-0.1-0.8c-0.2,0.3-0.2,0.5-0.1,0.8
		C22,14.5,22,14.2,22,13.9z M22.7,14.8V16h-0.5v-1.2H22.7z M22.2,16.1h0.7c-0.2,1.1,0.3,1.4,0.2,2.7h-1.2
		C21.8,17.6,22.2,17.3,22.2,16.1z M23.2,19.1c0,0.2-0.2,0.3-0.4,0.3h-1c-0.2,0-0.3-0.2-0.3-0.3H23.2z M18.8,12.7
		c0.1-0.3,0.3-0.6,0.5-0.6c0.2,0.2,0.4,0.5,0.4,0.7c0.1,0.3,0,0.6-0.4,0.6c0.2-0.2,0.2-0.5-0.1-0.8c-0.2,0.3-0.2,0.6-0.1,0.8
		C18.8,13.4,18.8,13.1,18.8,12.7z M19.5,13.7v1.8h-0.6v-1.8H19.5z M18.8,15.7h0.8c-0.2,1.1,0.4,1.9,0.2,3.2h-1.2
		C18.5,17.6,19,16.8,18.8,15.7z M20.2,19.1c0,0.2-0.2,0.3-0.4,0.3h-1c-0.2,0-0.4-0.2-0.4-0.3H20.2z M16,13.2
		c0.2,0.2,0.3,0.5,0.4,0.7c0.1,0.3,0,0.6-0.4,0.6c0.2-0.2,0.2-0.5,0-0.8c-0.2,0.3-0.2,0.6-0.1,0.8c-0.4-0.1-0.4-0.4-0.4-0.7
		C15.7,13.5,15.8,13.3,16,13.2z M16.2,14.8V16h-0.6v-1.2H16.2z M15.7,16.1h0.7c-0.2,1.1,0.3,1.4,0.2,2.7h-1.2
		C15.2,17.6,15.8,17.3,15.7,16.1z M16.8,19.1c0,0.2-0.2,0.3-0.3,0.3h-0.9c-0.2,0-0.4-0.2-0.4-0.3H16.8z"/>
	<path class="st0" d="M14.5,46.6H16l2.8-0.1c-0.9-0.3-1.9-0.8-2.8-1.3c-2.4-1.3-4.3-2.9-5.9-4.9L9.9,40c-2.3-2.8-3.9-6.1-5.1-9.7
		c-0.5,0.8-0.9,1.6-1.3,2.4c-0.7-0.4-1.4-0.9-2.2-1.4c0.6,1.8,1.2,3.6,2,5.2c1.7,3.5,4,6.5,6.8,9c1.1,0.9,2.4,1.9,3.6,2.7L14.5,46.6
		z M3.9,36.2l1.5-0.8l0.3-0.2l0.2,0.6c0.2,0.4,0.2,0.7-0.2,1c-0.2,0.1-0.3,0.1-0.4,0.1c-0.2,0-0.4-0.2-0.6-0.4v-0.2L4,36.6L3.9,36.2
		z M5.4,38.9l0.3-0.3l-0.3-0.5L5,38.3l-0.2-0.4l0.6-0.2l0.8-0.2l0.5-0.1l0.2-0.1l0.3,0.4l-0.5,0.5l-0.5,0.6l-0.5,0.5L5.4,38.9z
		 M6.4,40.4L6.1,40l0.5-0.3l0.9-0.6l-0.3-0.4l0.3-0.2l0.2,0.2l0.6,0.8l-0.3,0.2l-0.2-0.3H7.8l-1.1,0.8L6.4,40.4z M8,42.4L7.8,42
		l0.5-0.7L8,41.1l-0.3,0.2l-0.3,0.3l-0.3-0.3l0.6-0.5l0.9-0.7L8.9,40l0.2,0.3l0.2,0.2c0.2,0.3,0.3,0.6-0.1,0.9c0,0,0,0-0.1,0.1
		c-0.2,0.1-0.2,0.1-0.4,0.1l-0.1-0.1L8,42.4z M8.9,43.4l-0.3-0.3L9,42.8l1.1-1.1l0.3,0.3v0.1L8.9,43.4L8.9,43.4z M10.6,45.1
		l-0.2-0.2l-0.1-0.1l0.1-0.2l0.2-0.2l-0.2-0.2L10.1,44l-0.3,0.2l-0.3-0.3l1-0.6l0.4-0.2l0.5-0.2l0.2,0.1l0.2,0.2l-0.2,0.3l-0.6,1.3
		L10.6,45.1z M13.3,45l-0.6-0.5l-0.3,0.4l0.5,0.4l-0.2,0.2l-0.5-0.4L12,45.5l0.6,0.5l-0.3,0.4l-0.8-0.6l-0.2-0.2l0.2-0.2l1.1-1.3
		l0.9,0.8L13.3,45z"/>
	<path class="st0" d="M15.7,48.8L15.5,49L15,50c0.2,0.1,0.3,0,0.4,0c0.2-0.1,0.2-0.2,0.3-0.5C16,49.2,16,49,15.7,48.8z"/>
	<path class="st0" d="M8.9,41.1c0.2-0.1,0.2-0.2,0-0.4l-0.1-0.1l-0.2,0.1l-0.3,0.2l0.2,0.2c0.1,0.1,0.1,0.2,0.2,0.2
		C8.6,41.2,8.8,41.2,8.9,41.1z"/>
	<path class="st0" d="M21.2,50.7c-0.1,0-0.1,0-0.2,0c-0.2,0.1-0.2,0.5-0.2,0.6c-0.1,0.2-0.2,0.6,0.1,0.7c0.1,0,0.2,0,0.2,0
		c0.2-0.2,0.3-0.5,0.3-0.6C21.5,51.3,21.5,50.8,21.2,50.7z"/>
	<polygon class="st0" points="10.4,43.8 10.8,44.1 10.8,43.9 11.1,43.3 10.8,43.5 	"/>
	<path class="st0" d="M15.7,47.1c0.2,0.1,0.2,0.1,0.4,0.2c0.9,0.4,1.8,0.8,2.7,1.1l0.3-1.3h-3H15.7z"/>
	<path class="st0" d="M26.3,20.7c0.2,0,0.3-0.2,0.2-0.3c-0.2-0.1-0.4-0.2-0.6-0.4c-0.2-0.2-0.3-0.3-0.5-0.5
		c-0.1,0.2-0.1,0.3,0.1,0.4c-0.1,0.1-0.1,0.3-0.1,0.5c-0.2,0.1-0.2,0.2-0.2,0.3c0.2-0.1,0.5-0.1,0.7-0.1
		C26,20.6,26.2,20.6,26.3,20.7z M25.8,20.1c0,0.1,0.1,0.1,0.2,0.2c0.1,0.1,0.2,0.1,0.2,0.2c-0.1,0-0.2,0-0.2,0
		c-0.1-0.2-0.3-0.2-0.3-0.2S25.7,20.2,25.8,20.1z"/>
	<path class="st0" d="M44.3,6.9c0.4,0.7,0.6,1.7,0.5,2.6c0,0.8-0.2,1.5-0.5,2.1c-0.4,0.6-0.8,1.1-1,1.3c0.3,0,0.6-0.2,1-0.6
		c0.5-0.6,0.9-1.7,0.9-2.8c0-1.2-0.3-2.5-0.9-3.2c-0.2-0.2-0.6-0.4-0.9-0.5C43.8,6.2,44.2,6.5,44.3,6.9z"/>
	<path class="st0" d="M27,2.1h-0.3h-0.3h-0.8h-0.9v4c0,0.2,0.1,0.5,0.2,0.6c0.2,0.2,0.4,0.2,0.6,0.4c0.2,0.2,0.6,0.3,0.8,0.5
		c0.2,0.1,0.2,0.2,0.3,0.2s0.2-0.1,0.3-0.2c0.2-0.1,0.6-0.3,0.9-0.5c0.2-0.2,0.4-0.2,0.6-0.4c0.2-0.1,0.2-0.2,0.2-0.6v-4h-0.8
		C27.8,2.1,27,2.1,27,2.1z M28.2,2.5v3.6h-0.4h-0.5c0,0.2-0.1,0.5-0.3,0.7C26.9,6.9,26.8,7,26.7,7s-0.2-0.1-0.3-0.2
		c-0.2-0.2-0.3-0.5-0.4-0.7h-0.4H25V2.5c0.2,0,0.3,0.1,0.5,0.2C25.8,3,26,3.7,26,4v0.6c-0.2,0.1-0.2,0.2-0.2,0.3
		c0,0.2,0.2,0.2,0.3,0.3c0.1-0.2,0.2-0.3,0.3-0.6c0.2-0.2,0.2-0.5,0.2-0.7c0-0.3-0.1-0.7-0.1-1c0-0.2,0-0.6,0.2-0.8
		c0.2,0.2,0.2,0.6,0.2,0.8c0,0.3-0.1,0.7-0.1,1c0,0.2,0.1,0.5,0.2,0.7C27,5,27.2,5.1,27.2,5.3c0.2-0.1,0.4-0.1,0.4-0.3
		c0-0.2-0.1-0.2-0.3-0.3V4.1c0-0.4,0.2-1,0.5-1.3C27.8,2.6,28,2.5,28.2,2.5z"/>
	<path class="st0" d="M25.5,5.1h-0.2v0.7h0.2h0.4c0-0.1,0-0.2,0-0.3c-0.2-0.1-0.3-0.2-0.4-0.2C25.5,5.2,25.5,5.1,25.5,5.1z"/>
	<path class="st0" d="M44.3,15.6c-0.2,0.2-0.4,0.3-0.6,0.5c-0.5,0.3-1.1,0.6-1.2,1.3c0.4-0.4,0.9-0.7,1.3-1c0.2-0.1,0.3-0.2,0.5-0.2
		c0.8-0.6,1.4-1.3,1.7-2.3c0.2-0.9,0.4-1.7,0.2-2.6c-0.1-0.6-0.2-1.3-0.5-1.4c0.1,0.5,0.1,1,0.2,1.4c0,0.8,0,1.6-0.2,2.3
		C45.4,14.4,44.9,15,44.3,15.6z"/>
	<path class="st0" d="M26.2,6.1c0,0.2,0,0.2,0.1,0.3s0.1,0.1,0.2,0.2l0.1-0.1V6.1H26.2L26.2,6.1z"/>
	<path class="st0" d="M25.5,4.8c0-0.1,0.1-0.2,0.2-0.2V4.2c0-0.3-0.1-0.7-0.2-1c-0.1-0.2-0.2-0.3-0.2-0.3v2h0.2
		C25.5,4.8,25.5,4.8,25.5,4.8z"/>
	<path class="st0" d="M26.8,5.7v0.2H27h0.2c0-0.1,0-0.2,0-0.3c-0.1,0-0.1,0.1-0.2,0.1C26.8,5.6,26.8,5.7,26.8,5.7z"/>
	<path class="st0" d="M27.8,5.3c-0.2,0.1-0.3,0.2-0.5,0.2c0,0.1,0.1,0.2,0.1,0.3h0.4H28V5.1H28C27.8,5.1,27.8,5.2,27.8,5.3z"/>
	<path class="st0" d="M27.5,4.2v0.3c0.1,0.1,0.2,0.1,0.2,0.2c0,0,0,0.1,0.1,0.2h0.1v-2c-0.1,0-0.1,0.2-0.2,0.3
		C27.7,3.5,27.5,3.9,27.5,4.2z"/>
	<path class="st0" d="M27,5.4C27,5.3,27,5.3,27,5.2c-0.1-0.2-0.2-0.3-0.2-0.5h-0.1c-0.1,0.2-0.2,0.3-0.3,0.5c0,0.1,0,0.1,0,0.2
		c0.2,0,0.2,0.1,0.3,0.2C26.7,5.5,26.8,5.4,27,5.4L27,5.4z"/>
	<path class="st0" d="M26.8,6.1v0.4l0.1,0.1c0-0.1,0.1-0.1,0.1-0.2C27,6.3,27,6.3,27,6.1H26.8L26.8,6.1z"/>
	<path class="st0" d="M26.2,5.5c-0.1,0.1-0.1,0.2-0.1,0.3h0.2h0.2V5.7C26.5,5.7,26.3,5.6,26.2,5.5L26.2,5.5z"/>
	<path class="st0" d="M27.5,20.3c0.2-0.3,0.6-0.5,0.4-0.9c-0.1,0-0.2,0-0.4,0s-0.3,0-0.5,0C26.8,19.7,27.2,20.1,27.5,20.3z
		 M27.5,19.6c0.1,0,0.2,0,0.2,0c0,0.2-0.2,0.2-0.2,0.3c-0.2-0.1-0.2-0.2-0.2-0.3C27.2,19.6,27.3,19.6,27.5,19.6z"/>
	<path class="st0" d="M37.7,47.1H36h-1.7l0.4,1.3c0.5-0.2,0.9-0.4,1.3-0.6C36.5,47.6,37,47.3,37.7,47.1z"/>
	<path class="st0" d="M35.8,48.4c-6.7,2.5-13.1,2.3-19.9-0.6c-0.4-0.2-0.8-0.3-1.2-0.6c-0.6,1-1,2-1.6,3c0.9,0.6,1.8,1,2.8,1.4
		c3.3,1.5,7,2.1,10.6,2.1c3.2,0,6.3-0.5,9.3-1.6c1.4-0.6,2.8-1.2,4.1-2c-0.6-1-1.1-2-1.6-3C37.5,47.7,36.8,48,35.8,48.4z M16.3,49.9
		c-0.2,0.3-0.4,0.6-0.8,0.6c-0.2,0-0.3,0-0.5-0.1l-0.5-0.2l0.9-1.8h0.1l0.3,0.2C16.5,48.8,16.5,49.2,16.3,49.9z M18,50.3l-0.2,0.3
		l-0.6-0.2L17,50.9l0.7,0.2l-0.1,0.3L16.4,51l0.7-1.9l1.2,0.4l0,0.4l-0.7-0.2l-0.2,0.4L18,50.3z M20,50.8l-0.4-0.1
		c0.1-0.2,0-0.5-0.2-0.5c-0.3-0.1-0.5,0.4-0.5,0.6c-0.1,0.2-0.2,0.6,0.1,0.7c0.2,0.1,0.3,0,0.4-0.3l0.4,0.2c-0.2,0.4-0.5,0.6-1,0.6
		c-0.6-0.2-0.6-0.8-0.4-1.3c0.2-0.5,0.5-0.9,1-0.8C19.8,50,20,50.3,20,50.8z M21.8,51.5c-0.2,0.6-0.4,0.9-0.8,1
		c-0.1,0-0.2,0-0.2-0.1c-0.6-0.1-0.6-0.7-0.5-1.2c0.2-0.6,0.4-0.9,0.7-0.9c0.1,0,0.2,0,0.2,0C21.8,50.5,22,51.1,21.8,51.5z
		 M23.5,51.9l0.2,1l-0.4-0.1l-0.1-0.4L23.1,52l-0.2-0.1l-0.2,0.8h-0.4l0.3-2.1l0.6,0.1h0.1c0.4,0.1,0.7,0.2,0.6,0.7
		C23.8,51.7,23.7,51.8,23.5,51.9z M24.8,53l-0.5-0.1l0.2-2.1l0.4,0.1L24.8,53z M27.7,52.6c0.1,0.2,0.2,0.2,0.2,0.2
		c0.2,0,0.2-0.2,0.2-0.4h0.4c0,0.2,0,0.4-0.2,0.6c-0.1,0.1-0.2,0.2-0.5,0.2c-0.2,0-0.5-0.1-0.6-0.2c-0.2-0.2-0.2-0.5-0.3-0.8
		c0-0.3,0.1-0.6,0.2-0.8c0.2-0.2,0.3-0.3,0.6-0.3c0.5,0,0.7,0.2,0.8,0.7l-0.4,0.1c-0.1-0.3-0.2-0.5-0.3-0.4c-0.2,0-0.2,0-0.2,0.2
		c-0.1,0.1-0.1,0.2-0.1,0.6C27.5,52.3,27.5,52.5,27.7,52.6z M29.2,53L29,50.9l0.5-0.1l0.2,2.1L29.2,53z M31.2,52.6l-0.5,0.1l-0.9-2
		l0.5-0.1l0.6,1.5l0.1-1.6l0.4-0.1L31.2,52.6z M32.2,52.4l-0.5-2l0.5-0.1l0.5,2.1H32.2z M34.2,51.9L34,52l-0.5,0.1l-0.6-2l0.6-0.2
		c0.2-0.1,0.2-0.1,0.4-0.1s0.3,0.2,0.4,0.4c0.1,0.2,0,0.4-0.2,0.5c0.2,0.1,0.4,0.2,0.5,0.4C34.8,51.6,34.5,51.8,34.2,51.9z
		 M36.2,51.3c-0.2,0.1-0.6,0.1-0.7-0.2c-0.1-0.1-0.2-0.2-0.2-0.5l-0.5-1.1l0.5-0.2l0.4,1.1c0.1,0.2,0.1,0.2,0.2,0.3
		c0.1,0.1,0.2,0.2,0.3,0.1c0.1-0.1,0.2-0.2,0.2-0.3c0,0-0.1-0.2-0.1-0.3l-0.5-1.1l0.4-0.1l0.4,1c0.1,0.2,0.2,0.4,0.2,0.6
		C36.5,51,36.3,51.1,36.2,51.3z M38,50.4c-0.3,0.2-0.7,0.2-0.9-0.2l0.2-0.3c0.2,0.2,0.3,0.2,0.5,0.2c0.1,0,0.2-0.2,0.2-0.3
		c-0.1-0.1-0.2-0.1-0.4-0.1s-0.3,0-0.5,0c-0.3-0.1-0.5-0.5-0.4-0.8c0.1-0.2,0.2-0.3,0.4-0.4c0.3-0.2,0.6-0.1,0.8,0.2L37.6,49
		c-0.1-0.2-0.2-0.2-0.3-0.2c-0.2,0.1-0.2,0.2-0.2,0.3c0.1,0.2,0.3,0.1,0.5,0.1c0.3,0,0.6,0,0.8,0.3C38.5,49.9,38.5,50.2,38,50.4z"/>
	<path class="st0" d="M33.8,51.1L33.8,51.1l-0.3,0.1l0.2,0.6l0.2-0.1H34c0.2-0.1,0.2-0.2,0.2-0.4C34.2,51.1,34,51.1,33.8,51.1z"/>
	<path class="st0" d="M33.8,50.6C33.8,50.5,33.8,50.5,33.8,50.6v-0.2c0-0.1-0.2-0.1-0.3-0.1h-0.2l0.2,0.5l0.2-0.1
		C33.8,50.7,33.8,50.7,33.8,50.6z"/>
	<path class="st0" d="M41.5,44.6c-0.2-0.1-0.2-0.2-0.3-0.2c-0.2-0.1-0.3-0.1-0.4,0.1h-0.1v0.1l0.8,0.9l0.1-0.1l0.1-0.1
		c0.1-0.1,0.1-0.2,0-0.3C41.5,44.8,41.5,44.7,41.5,44.6z"/>
	<polygon class="st0" points="44.9,40.1 45.3,40.6 45.6,40.8 45.8,40.5 45.3,40.3 	"/>
	<path class="st0" d="M47.9,36.9c-0.1-0.1-0.1-0.1-0.2-0.2c-0.2-0.1-0.3-0.2-0.4-0.2c-0.2,0-0.2,0-0.3,0.1c0,0.1-0.1,0.2-0.1,0.2
		l0.1,0.1l0.9,0.5l0.2,0.1c0.1-0.2,0.2-0.4,0-0.6C48.1,37,48.1,36.9,47.9,36.9z"/>
	<path class="st0" d="M49.8,32.7c-0.4-0.8-0.8-1.6-1.3-2.4c-1.2,3.6-2.8,7-5.1,9.7c-2,2.5-4.4,4.5-7.5,5.9c-0.5,0.2-1,0.4-1.4,0.6
		l1.4,0.1h2.7l0.9,1.7c4.6-2.8,8.2-6.9,10.5-11.7c0.8-1.7,1.4-3.4,1.9-5.2C51.2,31.8,50.6,32.3,49.8,32.7z M40.7,46.4l-0.2,0.2
		l-0.6,0.5l-1.2-1.6l1-0.7l0.2,0.2l-0.6,0.5l0.2,0.4l0.5-0.4l0.2,0.3l-0.5,0.3l0.3,0.4l0.5-0.4l0.1-0.1L40.7,46.4L40.7,46.4
		L40.7,46.4z M41.8,45.6C41.8,45.6,41.8,45.6,41.8,45.6l-0.2,0.2L41.2,46l-0.6-0.8l-0.2-0.4l-0.3-0.4l0.3-0.2l0.1-0.1
		c0.1,0,0.1-0.1,0.2-0.1c0.2-0.2,0.5-0.2,0.6-0.1c0.2,0.1,0.2,0.2,0.3,0.2s0.2,0.1,0.2,0.2l0.1,0.1c0.1,0.1,0.2,0.2,0.2,0.3
		C42.2,45.1,42,45.4,41.8,45.6z M43.5,44.2L43.5,44.2c-0.5,0.5-0.8,0.2-1.2-0.1l-0.5-0.6l-0.2-0.2v-0.1l0.2-0.2l0.1-0.1l0.7,0.9
		c0.2,0.2,0.4,0.4,0.6,0.2c0.2-0.2-0.1-0.4-0.2-0.6l-0.7-0.8l0.2-0.2l0.8,0.8c0,0.1,0.1,0.2,0.2,0.2C43.7,43.6,43.8,43.9,43.5,44.2z
		 M44.9,42.7c-0.1,0.1-0.1,0.1-0.2,0.2C44.7,43,44.6,43,44.3,43c-0.2,0-0.5-0.2-0.7-0.3c-0.1-0.2-0.2-0.2-0.2-0.3
		c-0.1-0.1-0.2-0.2-0.2-0.4c-0.1-0.2,0-0.4,0.2-0.6c0.3-0.3,0.6-0.3,1,0l-0.2,0.2c-0.2-0.2-0.4-0.2-0.6-0.1c0,0.1-0.1,0.2,0,0.2
		c0,0.1,0.2,0.2,0.3,0.5c0.2,0.2,0.3,0.2,0.5,0.2c0.1,0.1,0.2,0,0.2-0.1c0.1-0.1,0.1-0.2-0.2-0.5l0.2-0.2h0.1
		c0.2,0.2,0.2,0.3,0.2,0.5C45.2,42.3,45.2,42.5,44.9,42.7z M46.4,40.8l-0.3-0.2l-0.4,0.5l0.3,0.3l-0.3,0.3l-0.3-0.6l-0.6-0.7
		L44.5,40l0.3-0.4v0.1l0.6,0.2l0.7,0.3l0.6,0.2L46.4,40.8z M47.6,39.1L47.1,39l-1-0.2l1,0.7l0.2,0.1l-0.2,0.1L47,39.9l-0.9-0.6
		l-0.7-0.5l0.3-0.4l0.4,0.1l0.9,0.2l-0.9-0.6L45.9,38l0.2-0.2l0.1-0.2l0.9,0.7l0.7,0.4L47.6,39.1z M48.4,37.6l-0.2,0.5l-0.2-0.2
		l-0.9-0.5L46.6,37l0.2-0.4c0.1-0.2,0.2-0.3,0.4-0.4c0.2-0.1,0.2-0.1,0.3-0.1c0.2,0,0.4,0.1,0.6,0.2h0.1c0.2,0.1,0.2,0.2,0.3,0.3
		c0.2,0.1,0.2,0.2,0.2,0.3C48.7,37.2,48.7,37.4,48.4,37.6z M49.2,36.3l-0.5-0.2L48,35.7l-0.6-0.3l0.2-0.4l0.4,0.2l0.7,0.3l0.6,0.3
		L49.2,36.3z M49.2,35.1l0.1-0.4c0.2,0,0.3-0.1,0.4-0.2c0.1-0.2,0-0.3-0.2-0.3c-0.1,0.1-0.2,0.1-0.3,0.2c-0.2,0.2-0.3,0.4-0.5,0.4
		c-0.1,0-0.2,0-0.3-0.1c-0.3-0.1-0.4-0.5-0.3-0.8c0.2-0.3,0.3-0.4,0.6-0.4c0,0,0,0,0.1,0v0.4c-0.1,0-0.1,0-0.1,0
		c-0.2,0-0.2,0-0.3,0.2c0,0.2,0.1,0.3,0.2,0.2c0.1,0,0.1,0,0.1,0c0-0.1,0.1-0.1,0.2-0.2c0.2-0.2,0.5-0.4,0.8-0.2
		c0.4,0.2,0.5,0.6,0.3,0.9C49.8,35.1,49.6,35.1,49.2,35.1z"/>
	<path class="st1" d="M12.2,24.8c0.2,8.9,6.1,16.4,14.1,19l0.2,0.1h0.1l0.2-0.1c8.1-2.6,13.9-10.1,14.2-19v-14H26.7H12.2V24.8z
		 M13,11.5h13.7h13.6v12.9v0.2c-0.1,8.6-5.8,15.9-13.6,18.5h-0.1c-7.8-2.6-13.5-9.9-13.5-18.5v-0.2H13C13,24.4,13,11.5,13,11.5z"/>
	<path class="st1" d="M28.2,10.1c-0.2,0-0.3-0.3-0.3-0.6s0.1-0.6,0.2-0.7c0.2-0.2,0.3-0.3,0.6-0.4c0.1-0.1,0.1-0.1,0-0.2
		c-0.3,0.1-0.6,0.2-0.9,0.4c-0.2,0.2-0.4,0.6-0.4,0.9c0,0.5,0.2,0.8,0.7,0.8c0.4,0,0.6-0.2,0.6-0.6c0-0.3-0.2-0.6-0.5-0.6
		c-0.2,0-0.2,0.1-0.3,0.2c0.1,0,0.1,0,0.1,0c0.2,0,0.3,0.4,0.3,0.6C28.5,10,28.5,10.1,28.2,10.1z"/>
	<path class="st1" d="M25.2,10.1c-0.2,0-0.3-0.3-0.3-0.6s0.1-0.6,0.2-0.7c0.2-0.2,0.3-0.3,0.6-0.4c0-0.1,0-0.1,0-0.2
		c-0.3,0.1-0.7,0.2-1,0.4c-0.2,0.2-0.3,0.6-0.3,0.9c0,0.5,0.2,0.8,0.6,0.8c0.4,0,0.7-0.2,0.7-0.6c0-0.3-0.2-0.6-0.6-0.6
		c-0.1,0-0.2,0.1-0.3,0.2c0,0,0,0,0.1,0c0,0,0,0,0.1,0c0.2,0,0.3,0.4,0.3,0.6C25.3,10,25.2,10.1,25.2,10.1z"/>
	<path class="st1" d="M22.3,9.9V8.8c0-0.2,0-0.3,0-0.4h-0.1c0,0-0.1,0.1-0.2,0.1c-0.1,0.1-0.2,0.1-0.4,0.1c0,0,0,0.1,0.1,0.1
		l0.1,0.1C22,8.8,22,8.8,22,9v0.9c0,0.2,0,0.2-0.2,0.2h-0.2c0,0,0,0.1,0.1,0.1s0.2,0,0.4,0s0.4,0,0.5,0v-0.1h-0.1
		C22.3,10.1,22.3,10.1,22.3,9.9z"/>
	<path class="st1" d="M30.8,10.1L30.8,10.1C30.5,10.1,30.5,10.2,30.8,10.1c0,0.1,0.2,0.1,0.4,0.1s0.3,0,0.4,0c0.1,0,0.1-0.1,0-0.1
		h-0.1c-0.2,0-0.2,0-0.2-0.2V8.8c0-0.2,0-0.3,0-0.4c0,0,0,0-0.1,0c0,0-0.1,0.1-0.2,0.1c-0.1,0.1-0.2,0.1-0.3,0.1s-0.1,0.1,0,0.1
		l0.1,0.1C31,8.8,31,8.8,31,9v0.9C30.8,10.1,30.8,10.1,30.8,10.1z"/>
	<path class="st1" d="M27.3,4.1v0.6c0.2,0.1,0.3,0.2,0.3,0.3c0,0.2-0.2,0.2-0.4,0.3C27.1,5.1,27,5,26.9,4.7
		c-0.1-0.2-0.2-0.5-0.2-0.7c0-0.3,0.1-0.7,0.1-1c0-0.2,0-0.6-0.2-0.8c-0.2,0.2-0.2,0.6-0.2,0.8c0,0.3,0.1,0.7,0.1,1
		c0,0.2-0.1,0.5-0.2,0.7C26.2,5,26,5.1,26,5.3c-0.2-0.1-0.3-0.1-0.3-0.3c0-0.2,0-0.2,0.2-0.3V4.1c0-0.4-0.1-1-0.4-1.3
		c-0.2-0.2-0.3-0.2-0.5-0.2v3.6h0.5h0.4c0.1,0.2,0.2,0.5,0.4,0.7c0.1,0.1,0.2,0.2,0.3,0.2c0.2,0,0.2-0.1,0.3-0.2
		c0.3-0.3,0.4-0.6,0.5-0.8h0.5h0.4V2.5c-0.2,0-0.3,0.1-0.4,0.2C27.5,3.1,27.3,3.7,27.3,4.1z M25.2,2.9c0.1,0,0.2,0.2,0.2,0.3
		c0.1,0.2,0.2,0.6,0.2,1v0.3c-0.1,0.1-0.2,0.2-0.2,0.2c-0.1,0-0.1,0.1-0.1,0.2h-0.1V2.9z M26,5.9h-0.4h-0.3V5.1h0.2
		c0,0,0,0.1,0.1,0.2s0.2,0.2,0.4,0.2C26,5.6,26,5.8,26,5.9z M26.5,6.5L26.5,6.5c-0.2,0-0.2,0-0.2-0.1c-0.1-0.1-0.1-0.1-0.1-0.3h0.1
		h0.2V6.5z M26.5,5.9h-0.2h-0.2c0-0.1,0-0.2,0.1-0.3l0.1,0.1c0.1,0,0.2,0.1,0.2,0.1S26.5,5.9,26.5,5.9z M26.3,5.4c0-0.1,0-0.1,0-0.2
		c0.1-0.2,0.2-0.3,0.3-0.5h0.1c0,0.2,0.2,0.3,0.2,0.5c0,0.1,0.1,0.1,0.1,0.2h-0.1c-0.1,0-0.2,0.1-0.3,0.2
		C26.5,5.5,26.5,5.4,26.3,5.4z M27,6.4c0,0.1-0.1,0.1-0.1,0.2l-0.1-0.1V6.1H27h0.2C27,6.3,27,6.3,27,6.4z M27,5.9h-0.2h-0.2V5.7
		c0,0,0.1-0.1,0.2-0.1c0.1,0,0.1-0.1,0.2-0.1C27,5.6,27,5.8,27,5.9z M28,5.9h-0.2h-0.4c0-0.1-0.1-0.2-0.1-0.3
		c0.2-0.1,0.3-0.2,0.5-0.2c0-0.1,0-0.2,0.1-0.2h0.1C27.9,5.2,27.9,5.9,28,5.9z M28,4.9L28,4.9c-0.2-0.1-0.2-0.2-0.2-0.2
		c-0.1-0.2-0.2-0.2-0.2-0.2V4.2c0-0.3,0.1-0.7,0.2-1C27.8,3,27.8,2.9,28,2.9V4.9z"/>
	<path class="st1" d="M29,1.7h-1.1H27h-0.3h-0.3h-0.8h-1.2V6c0,0.3,0.2,0.6,0.4,0.9c0.2,0.2,0.5,0.3,0.8,0.5
		c0.2,0.2,0.6,0.3,0.8,0.5c0.2,0,0.2,0.1,0.3,0.2L27,7.9c0.3-0.2,0.6-0.3,0.9-0.5c0.2-0.2,0.5-0.3,0.7-0.5S29,6.4,29,6
		C29,6,29,1.7,29,1.7z M28.5,6c0,0.3-0.1,0.5-0.2,0.6C28.1,6.8,28,6.8,27.8,7c-0.3,0.2-0.6,0.4-0.9,0.5c-0.1,0.1-0.2,0.2-0.3,0.2
		s-0.2-0.1-0.3-0.2C26,7.3,25.7,7.2,25.5,7S25,6.8,24.9,6.6c-0.2-0.1-0.2-0.3-0.2-0.6V2h0.9h0.8h0.3H27h0.9h0.8v4H28.5z"/>
	<path class="st1" d="M26,45.3c0.1,0.4,0.3,0.7,0.6,1c0.2-0.2,0.5-0.6,0.6-1C27.3,44.6,26,44.6,26,45.3z"/>
	<path class="st1" d="M8.9,22.3C9,22.9,9,23.4,8.9,24c0,0.3-0.1,0.7-0.2,1.1c0.1,0,0.1,0,0.2,0c0.4-0.1,0.7-0.4,0.9-0.6
		c0.4-0.6,0-1.1,0.3-1.6c0.2,0.2,0.2,0.4,0.3,0.6c0.4-0.6,0.2-1-0.1-1.5c-0.3-0.6-0.6-1.3-0.3-1.9c0,0,0.2,1,0.5,1.6
		c0.2,0.2,0.6,0.6,0.9,0.8c0.3-1.3-0.8-1.7-0.6-2.5c0.2,0.2,0.5,0.3,0.6,0.4c-0.1-1.2-0.7-1.3-1.1-2.1c0.1,0,0.6,0.1,0.8,0.4
		c0.1-0.4-0.2-0.7-0.3-0.9c0.2,0,0.6,0.2,0.8,0.5c0.2-0.6,0.1-1.1-0.1-1.3c-0.2-0.5-0.8-0.6-0.9-1.2c0.2,0,0.3-0.1,0.6,0
		c-0.1-0.4-0.4-0.6-0.7-0.8c-0.5-0.2-1-0.4-1.4-0.8c0,0-0.1-0.1-0.1-0.2c-0.2-0.3-0.2-0.7,0.1-0.8h0.1c0.3-0.1,0.3,0.4,0.5,0.6
		c0.2,0.3,0.5,0.4,0.9,0.4c-0.2-0.3-0.3-0.5-0.2-0.9c0.4,0.1,0.5,0.9,1.4,0.7c0.1-1.3-1.3-1-1.2-1.8c0.2,0,0.4,0.1,0.8,0.3
		c0.2-1-0.7-0.9-0.8-1.3c0.2,0,0.8,0,1.2-0.2c-0.3-0.1-0.8-0.3-1-0.6c0.6-0.1,0.9-0.2,1.2-0.6c-0.9-0.1-1.7-0.9-1.8-1.7
		c-0.2-0.9,0-1.5,0.5-2.1c0.7-0.7,1.8-1,2.8-0.5c0.6,0.3,0.9,0.9,0.8,1.6c-0.5,0.8-1.2,1.2-1.9,1.2c-1.3-0.2-1-1.9-0.2-1.7
		c-0.5,0.4-0.2,1.3,0.6,1.3c0.6-0.1,0.8-0.6,0.7-1.1c-0.2-0.6-0.7-0.9-1.3-0.9c-0.9,0-1.4,0.8-1.4,1.6c0,0.9,0.8,1.6,1.7,1.7
		c1.3,0.2,2.2-0.9,2.3-2.1c0-1.5-1.5-2.5-2.9-2.4C10.7,4.7,9.7,5,9,5.6c-1.8,1.3-2.9,3.6-2.9,6v0.7c0,0.8,0.2,1.5,0.4,2.2
		C7.4,17.3,8.6,19.6,8.9,22.3z M8.9,6.3c0.2-0.2,0.6-0.4,0.8-0.5C9.4,6.1,9,6.4,8.9,6.8C8.5,7.5,8.2,8.5,8.4,9.4
		c0,0.8,0.2,1.5,0.5,2.1s0.7,1.1,0.9,1.3c-0.3,0-0.6-0.2-0.9-0.6C8.4,11.6,8,10.5,8,9.4C7.9,8.3,8.2,7,8.9,6.3z M7,11.2
		c0.1-0.6,0.2-1.3,0.5-1.4c-0.1,0.5-0.2,1-0.2,1.4c-0.1,0.8,0,1.6,0.2,2.3c0.2,0.9,0.8,1.6,1.4,2.1c0.2,0.2,0.4,0.3,0.6,0.5
		c0.5,0.3,1.1,0.6,1.2,1.3c-0.4-0.4-0.9-0.7-1.4-1c-0.1-0.1-0.2-0.2-0.4-0.2c-0.8-0.6-1.4-1.3-1.7-2.3C6.9,12.9,6.8,12,7,11.2z"/>
	<path class="st1" d="M44,34.8c1-2.8-0.2-3.9,0.4-5.2c-1.2,0.3-1,1.9-1,2.2c-0.3-0.1-0.6-0.5-0.7-0.7C42,32,43.2,33,43.2,33.8
		c0,0.6-1,0.8-0.8-0.1c0.1-0.3,0.2-0.7,0.1-1c-0.1,0.2-0.3,0.4-0.5,0.5c-0.1-0.3,0.1-0.8-0.2-1.2c-0.1,0.3-0.3,0.6-0.5,0.6
		c0.1-0.5-0.1-0.9-0.6-0.9c0.2,0.6,0,1.1-0.2,1.7c-0.2,1.2,0.2,1.5,0.3,2.3c0.1,0.9-1,0.9-1,0c0-0.4,0.3-0.8,0.1-1.3
		c-0.2,0.2-0.3,0.2-0.5,0.5c0-0.2-0.2-0.6-0.3-0.7c-0.3,0.5-0.2,1.3-0.1,1.7c-0.2-0.2-0.4-0.2-0.6-0.2c0.4,0.4,0.8,1.2,0.7,2.1
		c-0.2,0.9-0.8,1.3-1.5,1.5c0.7-0.6,0.9-0.9,0.8-1.5c-0.2,0.2-0.3,0.5-0.6,0.6c0.4-0.7,0.3-1.1,0.2-1.3c-0.3,0.8-1.3,1.3-1.8,1.9
		c-0.8,0.8-0.9,1.6-1.4,2.3c-1,1.1-2.1,1.6-3,3.6c-0.5-0.2-1-0.6-1.3-0.8c-0.2,0.5-0.3,1.1-0.8,1.6c-0.4-0.2-1-0.6-1.2-0.8
		c-0.3,0.9-1,2-1.8,2.2c-0.9-0.2-1.6-1.3-1.8-2.2c-0.2,0.2-0.8,0.6-1.3,0.8c-0.4-0.5-0.6-1.1-0.8-1.6c-0.2,0.2-0.8,0.6-1.3,0.8
		c-0.9-2-2.1-2.5-3-3.6c-0.6-0.7-0.7-1.5-1.4-2.3c-0.5-0.6-1.5-1.1-1.8-1.9c-0.2,0.2-0.2,0.6,0.2,1.3c-0.4-0.2-0.5-0.4-0.6-0.6
		c-0.1,0.6,0.1,0.9,0.8,1.5c-0.8-0.2-1.3-0.6-1.5-1.5c-0.1-0.9,0.3-1.7,0.7-2.1c-0.2,0-0.5,0.1-0.6,0.2c0.1-0.5,0.2-1.3-0.2-1.7
		c-0.1,0.2-0.2,0.5-0.2,0.7c-0.2-0.2-0.4-0.2-0.5-0.5c-0.2,0.5,0,0.9,0.1,1.3c0.1,0.9-1.1,0.9-0.9,0c0.2-0.8,0.6-1.1,0.3-2.3
		c-0.2-0.6-0.4-1.1-0.2-1.7c-0.5,0.1-0.6,0.5-0.6,0.9c-0.2-0.1-0.4-0.3-0.5-0.6c-0.4,0.4-0.2,0.9-0.2,1.2c-0.2-0.1-0.4-0.3-0.5-0.5
		c-0.2,0.2,0,0.6,0,1c0.2,0.9-0.7,0.7-0.8,0.1c0-0.8,1.2-1.8,0.6-2.7c-0.1,0.2-0.3,0.6-0.6,0.7c-0.1-0.3,0.2-1.9-1-2.2
		c0.6,1.3-0.6,2.5,0.4,5.2c0.5,1.3,1.1,2.1,2.1,2.8c-0.3-1.1-0.2-2.9,0.4-3.8c-0.3,1-0.3,3,0.2,4.4c0.5,0.5,1,0.9,1.6,1.3
		c-0.5-0.8-0.6-2.5,0.1-3c-0.3,1.1,0,2.4,0.7,3.5c2.1,1.3,5.9,2.3,6.8,5.7c0.5-0.2,1-0.5,1.3-0.7c0.2,0.5,0.5,0.9,0.9,1.4
		c0.5-0.2,0.9-0.4,1.2-0.6c0.4,1,1.3,1.7,2.1,2c0.8-0.3,1.7-0.9,2.1-2c0.3,0.2,0.8,0.5,1.3,0.6c0.4-0.6,0.6-0.9,0.9-1.4
		c0.3,0.2,0.9,0.6,1.3,0.7c0.9-3.4,4.6-4.4,6.7-5.7c0.8-1.1,1.1-2.4,0.8-3.5c0.6,0.6,0.6,2.2,0.1,3c0.6-0.3,1.1-0.8,1.6-1.3
		c0.5-1.4,0.4-3.4,0.2-4.4c0.6,0.9,0.7,2.7,0.4,3.8C42.8,36.8,43.5,36,44,34.8z"/>
	<path class="st1" d="M43,23.8C40.9,28.2,43,31,43,30.9c0-0.6,0.1-1,0.4-1.3c-0.8-1.7-0.4-3.3,0.2-4.7C43.2,24.7,43,24.5,43,23.8z"
		/>
	<path class="st1" d="M40.8,9c0.9-0.1,1.7-0.7,1.7-1.7c0-0.8-0.6-1.6-1.4-1.6c-0.6,0-1.2,0.3-1.3,0.9c-0.1,0.5,0.2,1,0.7,1.1
		c0.8,0,1-0.9,0.5-1.3c0.9,0,1.3,1.8-0.2,1.9c-0.6,0-1.3-0.4-1.4-1.1c-0.2-0.6,0.2-1.3,0.8-1.6C41,5,42.2,5.4,42.9,6.1
		c0.5,0.6,0.6,1.2,0.5,2.1c-0.2,0.8-0.9,1.6-1.8,1.7c0.2,0.4,0.6,0.5,1.2,0.6c-0.2,0.3-0.7,0.6-1,0.6c0.3,0.2,1,0.2,1.2,0.2
		c-0.1,0.4-0.9,0.3-0.8,1.3c0.4-0.2,0.6-0.3,0.8-0.3c0.1,0.9-1.3,0.6-1.2,1.8c1,0.2,1-0.6,1.4-0.7c0,0.4-0.1,0.6-0.2,0.9
		c0.4,0,0.7-0.1,0.8-0.4c0.2-0.2,0.2-0.7,0.6-0.6h0.1c0.3,0.1,0.3,0.5,0.1,0.8c0,0.1-0.1,0.2-0.1,0.2c-0.4,0.4-1,0.6-1.4,0.8
		s-0.6,0.4-0.8,0.8c0.3-0.1,0.5,0,0.6,0c-0.1,0.6-0.7,0.7-1,1.2c-0.2,0.2-0.2,0.7-0.1,1.3c0.3-0.3,0.6-0.5,0.9-0.5
		c-0.2,0.2-0.4,0.5-0.3,0.9c0.2-0.3,0.7-0.4,0.8-0.4c-0.4,0.7-1,0.9-1.1,2.1c0.2-0.1,0.4-0.2,0.6-0.4c0.2,0.8-0.9,1.2-0.6,2.5
		c0.3-0.2,0.6-0.6,0.8-0.8c0.4-0.6,0.6-1.6,0.6-1.6c0.2,0.6,0,1.3-0.3,1.9c-0.3,0.5-0.5,0.9-0.1,1.5c0.1-0.2,0.1-0.5,0.3-0.6
		c0.2,0.5-0.1,1,0.3,1.6c0.2,0.2,0.5,0.6,0.9,0.6c0,0,0.1,0,0.2,0c-0.1-0.4-0.2-0.8-0.2-1.2c-0.1-0.5-0.1-1,0-1.6
		c0.2-2.7,1.6-5.1,2.5-7.8c0.2-0.7,0.3-1.4,0.4-2.2v-0.8c-0.1-2.4-1.1-4.8-2.9-6c-0.8-0.6-1.7-0.9-2.8-0.9c-1.4-0.1-2.9,0.9-2.9,2.4
		C38.5,8.1,39.5,9.2,40.8,9z M45.8,9.7c0.3,0.2,0.4,0.9,0.5,1.4c0.2,0.9,0,1.7-0.2,2.6c-0.3,1-1,1.7-1.7,2.3
		c-0.2,0.1-0.3,0.2-0.5,0.2c-0.4,0.3-1,0.6-1.3,1c0.1-0.6,0.7-0.9,1.2-1.3c0.2-0.2,0.4-0.3,0.6-0.5c0.6-0.6,1.1-1.2,1.4-2.1
		c0.2-0.7,0.2-1.5,0.2-2.3C45.9,10.7,45.9,10.2,45.8,9.7z M44.3,6.3c0.6,0.7,0.9,2,0.9,3.1c-0.1,1.2-0.5,2.2-0.9,2.8
		c-0.3,0.3-0.6,0.6-1,0.6c0.2-0.2,0.6-0.6,1-1.3c0.2-0.6,0.5-1.3,0.5-2.1c0.1-0.9-0.1-1.9-0.5-2.6c-0.2-0.4-0.5-0.7-0.9-1
		C43.8,5.9,44.2,6.1,44.3,6.3z"/>
	<path class="st1" d="M43.3,43.1l-0.8-0.8l-0.3,0.3l0.7,0.8c0.2,0.2,0.4,0.4,0.2,0.6c-0.2,0.2-0.5,0-0.6-0.2l-0.7-0.9L41.8,43
		l-0.2,0.2v0.1l0.2,0.2l0.5,0.6c0.4,0.3,0.7,0.6,1.1,0.2l0.1-0.1c0.3-0.3,0.2-0.6,0-0.8C43.3,43.3,43.3,43.2,43.3,43.1z"/>
	<polygon class="st1" points="47.9,35.2 47.6,35 47.3,35.4 47.9,35.7 48.7,36.1 49.2,36.3 49.3,35.9 48.7,35.5 	"/>
	<path class="st1" d="M48.3,36.6c-0.1-0.2-0.2-0.2-0.3-0.3h-0.1c-0.2-0.1-0.4-0.2-0.6-0.2c-0.1,0-0.2,0-0.3,0.1
		c-0.2,0.1-0.3,0.2-0.4,0.4L46.4,37l0.6,0.4l0.9,0.5l0.2,0.2l0.2-0.5c0.2-0.2,0.2-0.4,0.2-0.6C48.6,36.9,48.6,36.7,48.3,36.6z
		 M48.2,37.5L48,37.4l-0.9-0.5L47,36.8c0-0.1,0.1-0.2,0.1-0.2c0.1-0.1,0.2-0.1,0.3-0.1c0.1,0,0.2,0.1,0.4,0.2
		c0.1,0.1,0.1,0.1,0.2,0.2c0.1,0,0.1,0.1,0.2,0.1C48.3,37.1,48.2,37.3,48.2,37.5z"/>
	<path class="st1" d="M44.8,41.7l-0.2,0.2c0.2,0.2,0.2,0.4,0.2,0.5c-0.1,0.1-0.2,0.2-0.2,0.1c-0.2,0-0.2-0.1-0.5-0.2
		c-0.2-0.2-0.3-0.4-0.3-0.5c-0.1-0.1,0-0.2,0-0.2c0.2-0.2,0.3-0.1,0.6,0.1l0.2-0.3c-0.4-0.3-0.7-0.3-1,0c-0.2,0.2-0.2,0.4-0.2,0.6
		c0,0.2,0.1,0.3,0.2,0.4c0.1,0.1,0.2,0.2,0.2,0.3c0.2,0.2,0.5,0.3,0.7,0.3s0.3,0,0.4-0.1s0.1-0.1,0.2-0.2c0.2-0.2,0.2-0.3,0.2-0.5
		C45.2,42,45.1,41.9,44.8,41.7L44.8,41.7z"/>
	<path class="st1" d="M45.3,39.9l-0.6-0.2v-0.1L44.4,40l0.3,0.4l0.6,0.7l0.3,0.6l0.3-0.3l-0.3-0.3l0.4-0.5l0.3,0.2l0.3-0.4l-0.6-0.2
		L45.3,39.9z M45.6,40.8l-0.2-0.2L45,40.1l0.4,0.2l0.4,0.2L45.6,40.8z"/>
	<path class="st1" d="M49.7,33.8c-0.3-0.2-0.6,0.1-0.8,0.2c-0.1,0.2-0.2,0.2-0.2,0.2s0,0-0.1,0c-0.2,0.1-0.2-0.1-0.2-0.2
		c0.1-0.2,0.2-0.2,0.3-0.2c0,0,0,0,0.1,0v-0.4c-0.1,0-0.1,0-0.1,0c-0.3,0-0.5,0.1-0.6,0.4c-0.1,0.3,0,0.7,0.3,0.8
		c0.2,0.1,0.2,0.1,0.3,0.1c0.2,0,0.3-0.2,0.5-0.4c0.1-0.1,0.2-0.1,0.2-0.2c0.2,0,0.3,0.2,0.2,0.3c-0.1,0.2-0.2,0.2-0.4,0.2L49.1,35
		c0.4,0,0.6-0.1,0.8-0.5C50.2,34.4,50.1,34,49.7,33.8z"/>
	<polygon class="st1" points="46.2,37.7 46.1,37.8 45.9,38 46.1,38.1 46.9,38.6 46.1,38.5 45.7,38.4 45.3,38.8 46.1,39.3 47.1,39.9 
		47.2,39.7 47.2,39.7 47.2,39.6 46.1,38.9 47.2,39 47.6,39.1 47.8,38.8 47.2,38.4 	"/>
	<path class="st1" d="M41.8,44.4L41.8,44.4c-0.1-0.2-0.2-0.2-0.2-0.2c-0.1-0.1-0.2-0.2-0.3-0.2c-0.2-0.1-0.4-0.1-0.6,0.1
		c-0.1,0-0.1,0.1-0.2,0.1l-0.1,0.1l-0.3,0.2l0.3,0.4l0.2,0.4l0.6,0.8l0.3-0.2l0.2-0.1c0-0.1,0-0.1,0.1-0.1c0.2-0.2,0.3-0.5,0.2-0.9
		C42,44.6,41.8,44.5,41.8,44.4z M41.5,45.3L41.5,45.3l-0.2,0.2l-0.8-0.9v-0.1h0.1c0.1-0.2,0.2-0.2,0.4-0.1c0.1,0.1,0.2,0.2,0.3,0.2
		c0.1,0.2,0.2,0.2,0.2,0.4C41.7,45.1,41.7,45.2,41.5,45.3z"/>
	<polygon class="st1" points="40.5,46.1 40.3,46.1 40,46.5 39.5,46.1 40,45.8 39.8,45.5 39.3,45.9 39.2,45.5 39.8,45 39.5,44.8 
		38.5,45.5 39.8,47.1 40.3,46.6 40.7,46.4 40.8,46.4 40.7,46.3 	"/>
	<polygon class="st1" points="7.8,39.4 8,39.7 8.4,39.5 7.6,38.7 7.5,38.5 7.2,38.7 7.5,39 6.5,39.7 6.1,40 6.4,40.4 6.5,40.2 
		7.6,39.4 	"/>
	<path class="st1" d="M11.6,43.2L11.4,43l-0.2-0.1l-0.5,0.2l-0.4,0.2l-1,0.6l0.3,0.3L9.9,44l0.3,0.2l0.2,0.2l-0.2,0.2l-0.1,0.2
		l0.1,0.1l0.2,0.2l0.2-0.2l0.6-1.3L11.6,43.2z M10.8,43.9l-0.1,0.2l-0.3-0.3l0.4-0.2l0.3-0.2L10.8,43.9z"/>
	<path class="st1" d="M9,41.6C9,41.5,9,41.5,9,41.6c0.5-0.4,0.4-0.7,0.2-1L9,40.4l-0.2-0.3l-0.2,0.1l-0.9,0.7l-0.5,0.4l0.2,0.4
		l0.3-0.3l0.3-0.2l0.2,0.2l-0.5,0.7l0.3,0.4l0.5-0.9l0.1,0.1C8.8,41.6,8.9,41.6,9,41.6z M8.5,41.1l-0.2-0.2l0.3-0.2l0.2-0.1l0.1,0.1
		c0.2,0.2,0.2,0.3,0,0.4c-0.1,0.1-0.2,0.2-0.2,0.2C8.5,41.2,8.5,41.2,8.5,41.1z"/>
	<path class="st1" d="M4.8,36.4C5,36.6,5,36.8,5.4,36.8c0.1,0,0.2,0,0.4-0.1c0.4-0.2,0.4-0.6,0.2-1l-0.2-0.6l-0.3,0.2L4,36.1
		l0.2,0.4l0.6-0.3L4.8,36.4z M5.4,35.9l0.2-0.2l0.1,0.2c0.1,0.2,0,0.3-0.2,0.4c-0.1,0-0.1,0-0.2,0c-0.1,0.1-0.2,0-0.2-0.2L4.9,36
		L5.4,35.9z"/>
	<path class="st1" d="M6.5,38.2L7,37.7l-0.3-0.4l-0.2,0.1L6,37.5l-0.8,0.2l-0.6,0.2l0.2,0.4l0.4-0.2l0.3,0.5l-0.3,0.3l0.3,0.4
		L6,38.7L6.5,38.2z M5.9,38.3L5.6,38L6,37.8l0.4-0.2L6,38L5.9,38.3z"/>
	<polygon class="st1" points="10.4,42 10,41.6 9,42.7 8.5,43.1 8.9,43.4 9,43.4 	"/>
	<polygon class="st1" points="11.5,45.4 11.2,45.6 11.5,45.8 12.2,46.4 12.5,46.1 11.9,45.6 12.1,45.2 12.7,45.6 12.8,45.4 12.3,45 
		12.7,44.6 13.3,45 13.5,44.8 12.5,44 	"/>
	<polygon class="st1" points="24.3,53 24.8,53 25,51 24.5,50.9 	"/>
	<path class="st1" d="M15.8,48.5l-0.3-0.2h-0.1l-0.9,1.8l0.5,0.2c0.2,0.1,0.3,0.1,0.5,0.1c0.4,0,0.6-0.3,0.8-0.6
		C16.5,49.2,16.5,48.8,15.8,48.5z M15.8,49.6c-0.1,0.2-0.2,0.4-0.3,0.5c-0.1,0-0.2,0.1-0.4,0l0.4-1l0.2-0.2C16,49,16,49.2,15.8,49.6
		z"/>
	<path class="st1" d="M19.5,49.9c-0.6-0.2-0.9,0.3-1,0.8c-0.2,0.5-0.2,1.1,0.4,1.3c0.5,0.1,0.8-0.2,1-0.6l-0.4-0.2
		c-0.1,0.3-0.2,0.4-0.4,0.3c-0.3-0.1-0.2-0.5-0.1-0.7c0-0.2,0.2-0.6,0.5-0.6c0.2,0,0.2,0.2,0.2,0.5l0.4,0.1
		C20,50.3,19.8,50,19.5,49.9z"/>
	<polygon class="st1" points="18.2,49.9 18.3,49.6 17.2,49.2 16.5,51.1 17.7,51.5 17.8,51.1 17,50.9 17.2,50.4 17.8,50.6 18,50.3 
		17.3,50 17.5,49.6 	"/>
	<path class="st1" d="M21.3,50.3c-0.1,0-0.2,0-0.2,0c-0.3,0-0.6,0.3-0.7,0.9c-0.2,0.5-0.2,1.1,0.4,1.2c0.1,0.1,0.2,0.1,0.2,0.1
		c0.4-0.1,0.6-0.3,0.8-1C22,51.1,21.8,50.5,21.3,50.3z M21.3,51.5c0,0.2-0.1,0.5-0.3,0.6c0,0-0.1,0-0.2,0c-0.2-0.1-0.2-0.6-0.1-0.7
		c0-0.2,0.1-0.6,0.2-0.6c0.1,0,0.1,0,0.2,0C21.5,50.8,21.5,51.3,21.3,51.5z"/>
	<path class="st1" d="M23.2,50.7L23.2,50.7l-0.6-0.1l-0.4,2.1h0.5l0.2-0.8l0.2,0.1l0.1,0.4l0.1,0.4l0.5,0.1l-0.2-1
		c0.2-0.1,0.4-0.2,0.4-0.5C24,51,23.7,50.8,23.2,50.7z M23.2,51.7L23.2,51.7L23,51.6L23,51h0.2c0.2,0.1,0.3,0.2,0.3,0.3
		C23.3,51.5,23.2,51.7,23.2,51.7z"/>
	<path class="st1" d="M34.2,50.7c0.2-0.1,0.2-0.2,0.2-0.5c-0.1-0.2-0.2-0.4-0.4-0.4s-0.2,0-0.4,0.1L33,50.1l0.6,2L34,52l0.2-0.1
		c0.3-0.2,0.6-0.3,0.5-0.8C34.5,50.9,34.3,50.8,34.2,50.7z M33.3,50.3l0.2-0.1c0.2,0,0.3,0,0.4,0.2v0.1c0,0,0,0,0,0.1
		s-0.2,0.2-0.2,0.2l-0.2,0.1L33.3,50.3z M34,51.6L34,51.6l-0.2,0.1l-0.2-0.6l0.2-0.1c0,0,0,0,0.1,0c0.2,0,0.2,0,0.2,0.2
		C34.2,51.4,34.2,51.5,34,51.6z"/>
	<path class="st1" d="M37.7,49.2c-0.2,0-0.4,0.1-0.5-0.1c0-0.2,0-0.2,0.2-0.3c0.1,0,0.2,0,0.3,0.2l0.3-0.3c-0.2-0.2-0.5-0.3-0.8-0.2
		c-0.2,0.1-0.3,0.2-0.4,0.4c-0.1,0.3,0.1,0.7,0.4,0.8c0.2,0,0.3,0,0.5,0s0.3,0,0.4,0.1c0.1,0.2-0.1,0.3-0.2,0.3
		c-0.2,0.1-0.3,0.1-0.5-0.2l-0.2,0.4c0.2,0.3,0.6,0.4,0.9,0.2c0.3-0.2,0.4-0.6,0.3-0.9C38.2,49.2,38,49.2,37.7,49.2z"/>
	<polygon class="st1" points="31.8,50.4 32.2,52.4 32.8,52.3 32.2,50.3 	"/>
	<path class="st1" d="M36,49.1l-0.4,0.1l0.5,1.1c0,0.2,0.1,0.3,0.1,0.3c0,0.2-0.1,0.2-0.2,0.3c-0.2,0.1-0.2,0-0.3-0.1
		s-0.1-0.2-0.2-0.3l-0.4-1.1l-0.5,0.2l0.5,1.1c0.1,0.2,0.2,0.4,0.2,0.5c0.2,0.2,0.5,0.2,0.7,0.2c0.2-0.2,0.5-0.3,0.5-0.6
		c0-0.2-0.1-0.3-0.2-0.6L36,49.1z"/>
	<polygon class="st1" points="30.8,52.2 30.3,50.7 29.8,50.7 30.8,52.7 31.2,52.6 31.3,50.5 31,50.6 	"/>
	<polygon class="st1" points="29,50.9 29.2,53 29.8,52.9 29.5,50.8 	"/>
	<path class="st1" d="M27.8,51.4c0.2-0.1,0.2,0.1,0.3,0.4l0.4-0.1c-0.1-0.5-0.3-0.7-0.8-0.7c-0.2,0-0.4,0.2-0.6,0.3
		c-0.1,0.2-0.2,0.5-0.2,0.8c0.1,0.3,0.2,0.6,0.3,0.8s0.3,0.2,0.6,0.2c0.2-0.1,0.4-0.2,0.5-0.2c0.2-0.2,0.2-0.4,0.2-0.6h-0.4
		c0,0.2-0.1,0.4-0.2,0.4c-0.1,0-0.2,0-0.2-0.2c-0.1-0.1-0.1-0.2-0.2-0.5c0-0.3,0-0.5,0.1-0.6C27.7,51.4,27.7,51.4,27.8,51.4z"/>
	<path class="st1" d="M50.1,32c-0.5-1-1-1.8-1.7-2.7c-1.2,3.7-2.8,7.4-5.3,10.4c-2,2.5-4.4,4.4-7.1,5.6c-0.8,0.4-1.6,0.7-2.4,1
		c0.2,0.7,0.3,1.4,0.6,2.1c-4.6,1.6-10.3,1.6-14.9,0c0.2-0.6,0.4-1.3,0.6-2.1c-1.3-0.5-2.5-1-3.7-1.7c-2.2-1.3-4.1-2.9-5.8-5
		l-0.2-0.2c-2.5-3.1-4-6.6-5.2-10.3c-0.6,0.9-1.2,1.7-1.7,2.7c-0.9-0.6-1.8-1.2-2.7-1.8c0.6,2.3,1.3,4.5,2.3,6.6
		c1.7,3.6,4.2,6.8,7.3,9.4c1,0.9,2.2,1.7,3.4,2.5c-0.3,0.6-0.7,1.4-0.9,1.7c1.1,0.8,2.3,1.3,3.5,1.9c3.3,1.3,7.1,2,10.6,2
		c3,0,6.3-0.5,9.3-1.5c1.7-0.6,3.3-1.3,4.7-2.4c-0.2-0.3-0.6-1.1-0.9-1.7c4.7-2.8,8.4-7,10.7-11.9c1-2.1,1.7-4.4,2.3-6.6
		C51.8,30.8,50.9,31.3,50.1,32z M10,45.6c-2.8-2.5-5.1-5.5-6.8-9c-0.8-1.7-1.4-3.4-2-5.2c0.7,0.5,1.4,0.9,2.1,1.3
		c0.4-0.8,0.8-1.6,1.3-2.4c1.3,3.6,2.8,7,5.1,9.7l0.2,0.3c1.7,2,3.6,3.6,5.9,4.9c0.9,0.5,1.8,1,2.8,1.3l-2.8,0.1h-1.4l-0.7,1.7
		C12.5,47.5,11.1,46.5,10,45.6z M19,47.1l-0.3,1.3c-0.9-0.3-1.8-0.7-2.7-1.1c-0.2-0.1-0.2-0.1-0.4-0.2H16H19z M40,50.3
		c-1.3,0.8-2.7,1.4-4.1,2c-2.9,1.1-6.1,1.6-9.3,1.6c-3.6,0-7.3-0.6-10.6-2.1c-0.9-0.5-1.8-1-2.7-1.5c0.6-1,1-2,1.6-3
		c0.4,0.2,0.8,0.4,1.2,0.6c6.7,2.8,13.1,3,19.9,0.6c0.9-0.3,1.7-0.7,2.5-1.1C38.8,48.3,39.5,49.2,40,50.3z M34.2,47.1h1.7h1.7
		c-0.6,0.2-1.2,0.5-1.7,0.7s-0.9,0.4-1.3,0.6L34.2,47.1z M49.9,36.6c-2.3,4.8-5.9,8.9-10.5,11.7l-0.9-1.7h-2.7l-1.4-0.1
		c0.5-0.2,0.9-0.4,1.4-0.6c3.1-1.4,5.5-3.5,7.5-5.9c2.2-2.8,3.9-6.1,5.1-9.7c0.6,0.8,1,1.6,1.3,2.4c0.7-0.4,1.4-0.9,2.1-1.3
		C51.3,33.2,50.8,34.9,49.9,36.6z"/>
	<path class="st1" d="M19,4.3c0.2-0.2,1-0.2,1.7-0.2c-0.2-0.2-0.5-0.5-0.7-0.5c0.2-0.1,0.7-0.1,1.2,0C21.2,3.3,21,3,20.8,3
		C21,2.9,21.3,2.8,22,3c-0.1-0.2-0.3-0.4-0.5-0.6c0.1-0.1,0.6-0.2,0.9-0.3c-0.2-0.1-0.2-0.2-0.2-0.3c-1.4,0.3-3.5,2.1-4.3,3.3
		c0.6-0.3,1.4-0.4,2-0.5C19.8,4.4,19.5,4.4,19,4.3z"/>
	<path class="st1" d="M31.2,3c0.6-0.2,1.2-0.1,1.3,0C32.3,3,32,3.2,32,3.6c0.5-0.1,1-0.1,1.3,0.1c-0.2,0-0.6,0.2-0.7,0.5
		c0.6,0,1.3,0,1.6,0.2c-0.5,0.1-0.6,0.2-0.9,0.4c0.5,0.1,1.3,0.2,1.9,0.5c-0.7-1.2-2.8-3-4.3-3.3c0,0.1,0,0.2-0.2,0.3
		c0.3,0.1,0.9,0.2,0.9,0.3C31.5,2.6,31.2,2.9,31.2,3z"/>
	<path class="st1" d="M33,7.3c0.4,1.3,1.9,1.4,3,1.3C37,8.5,37.8,8.3,38.3,8c-0.2-0.4-0.2-0.7-0.2-1c-0.5,0.4-1.3,0.7-2.2,0.9
		c-1,0.2-2.1,0.1-2.4-0.7c-0.2-0.4,0.1-0.8,0.4-1c0.2-0.2,0.6-0.2,0.9,0C35.3,6.5,35,7.1,34.8,7c0.2-0.7-0.3-0.8-0.5-0.7
		S34,6.6,34,6.8c0,0.5,0.4,0.7,0.8,0.7c0.6,0.1,1-0.4,0.9-1.1c-0.1-0.6-0.7-0.9-1.3-0.9C33.5,5.4,32.8,6.3,33,7.3z"/>
	<path class="st1" d="M17.2,8.6c1.2,0.2,2.7,0,3-1.3c0.3-1-0.4-1.9-1.3-1.9c-0.6,0-1.2,0.3-1.3,0.9C17.5,7,18,7.5,18.5,7.4
		c0.4,0,0.8-0.2,0.8-0.7c0.1-0.1,0-0.4-0.2-0.4c-0.3-0.1-0.8,0.1-0.6,0.6C18.2,7,18,6.3,18.3,6c0.3-0.2,0.7-0.2,1,0s0.5,0.6,0.3,1
		c-0.3,0.8-1.3,0.9-2.4,0.7c-0.9-0.2-1.7-0.5-2.2-0.9c0.1,0.3,0,0.6-0.2,1C15.5,8.2,16.5,8.5,17.2,8.6z"/>
	<path class="st1" d="M23,2.1c0.2,0,0.5-0.2,0.5-0.5S23.3,1,23,1c-0.2,0-0.4,0.2-0.4,0.6C22.7,1.9,22.8,2.1,23,2.1z"/>
	<path class="st1" d="M30.2,2.1c0.2,0,0.5-0.2,0.5-0.5S30.5,1,30.2,1c-0.2,0-0.4,0.2-0.4,0.6C29.8,1.9,30,2.1,30.2,2.1z"/>
	<path class="st1" d="M24.5,1.2c1-0.6,3.2-0.6,4.3,0C29,1.3,29.3,1.4,29.8,1c-1.7-0.9-4.7-0.9-6.4,0C23.8,1.4,24.2,1.3,24.5,1.2z"/>
	<path class="st1" d="M22.5,21.6c-0.2,0.8,0.5,1,1.1,0.8c0.4-0.2,0.7-0.5,1.2-0.6c0.1,0,0.2,0,0.2,0c0.1,0.1,0.2,0.1,0.2,0.1
		c0.2,0,0.2,0.1,0.4,0.2c-0.1-0.2-0.2-0.4-0.4-0.5s-0.3-0.1-0.5-0.1c-0.1,0-0.2,0-0.2,0c-0.4,0.1-0.9,0.3-1.1,0.4
		C23.2,22,22.7,21.9,22.5,21.6z"/>
	<path class="st1" d="M26.3,26.6c0.2-0.2,0.2-0.3,0.3-0.6c0.2,0.2,0.4,0.2,0.6,0.6c0,0,0.2-0.2,0.2-0.5c0.1-0.2,0.2-0.4,0.2-0.6
		c0.5,0.2,0.5,0.5,0.7,0.7c0.2-0.2,0.3-0.6,0.2-1c0.2,0,0.3,0.1,0.4,0.2c0.2,0.2,0.4,0.3,0.5,0.4c0.2-0.6-0.3-0.7-0.5-1.1
		c0,0,0,0,0-0.1c0.3,0.2,0.6,0.4,0.9,0.4c-0.4-0.5-0.4-0.9-0.6-1.2c-0.1,0.1-0.2,0.1-0.2,0.2c-0.1,0.2-0.2,0.3-0.2,0.6
		c-0.2-0.2-0.2-0.4-0.6-0.6c0.1,0.2,0.2,0.6-0.2,1.1c-0.2-0.2-0.3-0.2-0.5-0.4c-0.1,0-0.2-0.1-0.2-0.1c0.1,0.3,0,0.7-0.2,1.1
		c-0.2-0.2-0.6-0.4-0.9-0.4c0.1,0.2,0.2,0.5-0.2,0.8C26.2,26.3,26.2,26.4,26.3,26.6z"/>
	<path class="st1" d="M27.5,19.9c0.1-0.1,0.2-0.2,0.2-0.3c-0.1,0-0.2,0-0.2,0c-0.1,0-0.2,0-0.2,0C27.2,19.7,27.2,19.9,27.5,19.9z"/>
	<path class="st1" d="M28.8,20.5L28.8,20.5c0.3,0.1,0.5,0.1,0.8-0.2c-0.3,0-0.6-0.2-0.8-0.4c0,0,0,0-0.1,0c-0.2-0.1-0.4,0-0.6,0.2
		C28.5,20.3,28.7,20.4,28.8,20.5z"/>
	<path class="st1" d="M26.2,20.4C26,20.3,26,20.3,26,20.3c-0.1-0.1-0.2-0.1-0.2-0.2c-0.1,0.1-0.1,0.2-0.1,0.2s0.2,0,0.2,0.1
		C26,20.4,26,20.4,26.2,20.4z"/>
	<path class="st1" d="M24.3,21.1c0.1-0.1,0.2-0.1,0.4-0.1s0.3,0,0.5,0c0.3,0.1,0.6,0.3,0.7,0.6c0.1,0.2,0.1,0.4,0,0.6
		c0,0.1-0.1,0.2-0.2,0.2c-0.1,0.2-0.3,0.2-0.6,0.2c-0.2,0-0.3-0.1-0.5-0.1c-0.2-0.1-0.4-0.2-0.5-0.2c-0.2,0.5-0.1,0.9,0.5,0.9h0.1
		c0.2,0,0.3-0.1,0.4-0.2c0.1-0.1,0.2-0.1,0.4-0.2c0.1,0,0.2,0.1,0.3,0.1c0.1,0.1,0.2,0.1,0.2,0.2c-0.1-0.5,0.2-0.9,0.4-1
		c0.1,0,0.2,0.2,0.3,0.2c0.1-0.4,0.2-0.7,0.3-0.9c0.1,0.1,0.2,0.2,0.2,0.2c0.1,0.1,0.2,0.2,0.2,0.2c0.2-0.4,0-0.5,0.2-0.9
		c0,0.1,0.2,0.5,0.6,0.6c0.1-0.2,0.2-0.4,0.2-0.6c0,0,0.1,0.2,0.2,0.2c0.3,0.2,0.7,0.3,1-0.1c-0.3,0-0.7-0.2-1-0.3
		c-0.2-0.2-0.3-0.2-0.4-0.3c-0.1,0.2-0.1,0.3-0.2,0.4c0,0,0.1-0.2-0.2-0.5c-0.2,0.1-0.2,0.4-0.6,0.6h-0.1c0.1,0,0.1,0,0.1-0.1
		c0.2-0.2,0.2-0.6,0.6-0.8c0.2-0.3,0.2-0.7-0.1-0.9c-0.2-0.2-0.4-0.2-0.6-0.2c-0.2,0.1-0.4,0.2-0.6,0.2c-0.2-0.2-0.6-0.2-0.9-0.1
		c-0.2,0.1-0.5,0.2-0.7,0.2h-0.1c-0.2,0-0.3,0.1-0.4,0.1c-0.2,0-0.5,0.1-0.7,0.2c-0.5,0.4-0.2,0.5,0,0.9
		C24.2,20.7,24.2,20.7,24.3,21.1z M27.5,19.4c0.2,0,0.3,0,0.4,0c0.2,0.4-0.2,0.6-0.4,0.9c-0.2-0.2-0.6-0.6-0.5-0.9
		C27,19.4,27.2,19.4,27.5,19.4z M25.5,20.3c0-0.2,0-0.4,0.1-0.5c-0.2-0.1-0.2-0.2-0.1-0.4c0.2,0.2,0.3,0.3,0.5,0.5s0.3,0.3,0.6,0.4
		c0.2,0.1,0,0.3-0.2,0.3c-0.1-0.1-0.2-0.1-0.4-0.1s-0.6,0-0.7,0.1C25.2,20.5,25.2,20.4,25.5,20.3z"/>
	<path class="st1" d="M28.8,21.5C28.8,21.4,28.8,21.4,28.8,21.5c-0.1,0.1-0.2,0.2-0.3,0.5c-0.3-0.2-0.5-0.3-0.6-0.6
		c0,0.5-0.3,0.9-0.3,0.9c-0.1-0.1-0.1-0.2-0.2-0.3c-0.1-0.1-0.2-0.1-0.2-0.2c-0.2,0.3-0.3,0.6-0.5,1.1c0-0.3-0.1-0.6-0.2-0.6
		c-0.2,0.2-0.2,0.6-0.1,1c-0.2-0.1-0.3-0.1-0.5-0.2v0.2c-0.3,0.2-0.6,0.6-0.6,0.6c-0.1-0.2-0.1-0.5,0.2-0.7c-0.2,0-0.3,0.1-0.4,0.1
		c-0.2,0.1-0.2,0.2-0.3,0.2c-0.2,0.3-0.2,0.6-0.2,1c0.2-0.1,0.3-0.2,0.5-0.2c0.2-0.2,0.5-0.4,0.6-0.6c0,0,0.1,0.5,0,0.8
		c0,0.2,0,0.5,0.2,0.8v-0.1c0.1-0.7,0.5-1.1,0.1-1.6c0,0,0.7,0.2,1,0.1c-0.1-0.6,0.3-1.1,0.3-1.1l0.1,0.1c0.3,0.2,0.2,0.2,0.4,0.3
		c0.1-0.6,0.2-0.6,0.3-0.9c0.2,0.2,0.5,0.5,0.7,0.6c-0.2,0.2-0.5-0.1-0.6-0.2c0,0.2-0.2,0.4-0.1,0.7c-0.3,0.1-0.5-0.1-0.7-0.2h-0.1
		c-0.1,0.3,0,0.6,0.1,0.9c-0.3,0-0.6,0.1-1,0c0.3,0.6-0.2,0.8-0.3,1.2c0.2,0,0.6,0.1,0.7,0.2c0.2-0.4,0.1-0.7,0-1
		c0.2,0,0.4,0.1,0.6,0.2c0.2,0.1,0.2,0.1,0.4,0.2c0.2-0.4,0.1-0.8-0.1-1.2c0.5,0.2,0.6,0.2,0.9,0.6c0.4-0.6-0.3-0.7-0.1-1.3
		c0.1,0.2,0.2,0.4,0.3,0.6c0.1,0,0.2,0,0.2,0.1c0.4-0.6,0-1,0-1.4c0.4,0.3,0.5,0.7,0.4,1.2c0.2,0.2,0.6,0.2,0.9,0.2
		c-0.3-0.3-0.4-0.6-0.6-1.1C29.5,21.8,29.2,21.6,28.8,21.5z"/>
	<path class="st1" d="M25.2,25.5c0,0.2-0.1,0.3-0.2,0.4c0.1,0,0.2,0,0.2,0c0.2,0,0.4,0.1,0.6,0.2C25.5,25.9,25.3,25.7,25.2,25.5
		L25.2,25.5z"/>
	<path class="st1" d="M24,24c-0.2,0-0.4,0-0.6-0.2c-0.3,0.5,0.2,1,0.7,0.7c0,0.4-0.2,0.6-0.2,0.8c0.3,0.1,0.6-0.1,0.6-0.3
		c0.2,0.1,0.2,0.2,0.2,0.4c0,0.2,0,0.3,0.1,0.5C25,25.7,25,25.4,25,25c0,0,0,0.1,0.1,0.1c0.2,0.4,0.4,0.5,0.6,0.7
		c0-0.3-0.2-0.5-0.2-0.7c-0.1-0.3,0-0.6,0-0.9c-0.2,0.2-0.2,0.3-0.4,0.4s-0.3,0.1-0.5,0.2c-0.1,0-0.2,0-0.2,0c0.2-0.5,0-0.6,0.1-1
		C24.3,23.9,24.2,24,24,24z"/>
	<path class="st1" d="M27.5,33.6c0.2-0.3,0.3-0.7,0.3-1.1c-0.2-0.2-0.3-0.2-0.5-0.3C27.5,32.6,27.2,33.1,27.5,33.6z"/>
	<path class="st1" d="M30.2,25.7c-0.2,0.3,0,0.8-0.2,1.2c0.3-0.2,0.5-0.4,0.5-0.6C30.3,26,30.2,26,30.2,25.7z"/>
	<path class="st1" d="M30.2,25.3c0.2,0.7,0.9,1.2,0.6,2.1c0.6-0.2,0.6-0.9,0.4-1.3c-0.2-0.5-0.5-0.8-0.6-1.1c0-0.3,0.1-1,0.4-1.2
		c-0.2,0.3-0.2,0.8-0.2,1.1c0.1,0.3,0.2,0.6,0.5,0.9c0.2,0.2,0.5,0.4,0.4,0.7c0.3-0.4,0.2-0.8-0.2-1.3c0.5,0.5,0.6,0.6,0.6,1.2
		c0.5-0.5,0.2-0.9-0.1-1.3c-0.1,0-0.1-0.1-0.2-0.2c-0.3-0.2-0.6-0.2-0.4-1c0.1,0.2,0.2,0.5,0.2,0.6c0.2,0.2,0.6,0.2,0.8-0.1
		c-0.2,0-0.4-0.2-0.5-0.4c-0.4-1,1.5-1.3,1.6,0.2c0.1,0.9-0.7,1.7-0.9,2.2c-0.3,0.5-0.5,0.9-0.4,1.6c0.1,0.6,0.4,1.3,0.6,1.7
		c0.2,0.8,1,3-0.5,3.1c-0.9,0.1-1.1-0.8-1.4-1.6c-0.3-0.8-0.8-1.2-1.2-1.7c-0.6-0.8-0.9-1.8-0.7-2.7c0.1-0.6,0.2-0.9-0.4-1.4
		c-0.1,0.5-0.2,0.7-0.6,1c-0.2-0.3-0.3-0.5-0.5-0.6c-0.1,0.4-0.2,0.6-0.6,1.2c-0.2-0.3-0.3-0.6-0.4-0.6c-0.1,0.2-0.3,0.6-0.6,0.6
		c0-0.5-0.1-0.7-0.5-0.9c-1.5-0.2-2.5,0.5-3.9,0.6c-1.2,0.1-2-0.2-2.6-1.1c-0.4-0.5-1-0.6-1.3,0.1c0.5-0.1,0.9,0.1,0.9,0.6
		c-0.3-0.4-1-0.6-1.2,0.1c0.4-0.2,1.1,0.2,1.2,0.7c-0.3-0.3-0.6-0.6-0.9-0.5c-0.2,0-0.3,0.1-0.5,0.2c0.3,0.1,0.3,0.3,0.5,0.5
		c0.2,0.3,0.6,0.4,1,0.2c0.2-0.2,0.4-0.3,0.6-0.3c0.2,0,0.4,0.2,0.2,0.4c-0.2,0.1-0.4,0.1-0.6,0.1c0.2,0.4,0.9,0.7,1.2,0.2
		c1,0.3,2,0.5,2.7,0.4c0.2,0.4,0.3,0.7,0.2,1.1c0.2-0.1,0.3-0.2,0.5-0.6c0.1,0.4,0.3,0.5,0.5,0.6c-0.1-0.6,0-0.8,0.2-1.2
		c0.1,0.5,0.2,0.7,0.4,0.9c0.1-0.4,0.2-0.7,0.5-0.9c0,0.4,0,0.6,0.2,1.1c0.1-0.2,0.4-0.6,0.6-0.8c-0.1,1.2,0.4,1.6,1.3,2.2
		c0.9,0.8,0.9,0.9,0.9,2c0,0.6-0.2,0.8-0.3,0.9c-0.5,0.3-0.6,0.6-0.4,1.2c0.2,0.3,0.5,0.7,0.2,1.1c0.3,0,0.6-0.4,0.7-0.6
		c0,0.5,0.1,0.7,0.2,1c0-0.4,0.2-0.6,0.5-0.8c0,0,0.1,0.6,0.5,0.9c0.2-0.3,0.3-0.5,0.6-0.6c0.1,0.3,0.2,0.5,0.5,0.6
		c-0.3,1.1,0.2,2.4,0.4,2.7c-0.2,0.3-0.6-0.1-0.8-0.3c-0.3-0.2-0.7-0.2-1,0c-0.2,0.2-0.4,0.7,0.1,1c0-0.5,0.3-0.6,0.6-0.6
		c-0.4,0.2-0.5,0.7,0,0.9c0.1-0.2,0.1-0.8,0.6-0.6c-0.2,0.1-0.3,0.5-0.2,0.7c0.4,0.1,1.3-0.1,1.9-0.6c0.1-0.6,0-1-0.1-1.3
		c0.1,0,0.3,0.1,0.4,0.2c-0.1-0.4-0.4-0.7-0.6-0.8c0.2-0.1,0.6,0.2,0.6,0.2c-0.1-0.5-0.5-0.7-0.6-0.9c0.2,0.1,0.7,0.2,0.9-0.2
		c-0.3,0-0.6-0.1-0.6-0.3c0.2-0.1,0.4-0.2,0.5-0.5c-0.2,0.1-0.2,0-0.4,0c0.3-0.9-0.3-1.2-0.8-1.3c-0.6-0.2-1.3-0.6-1.2-1.3
		c0.1,0.1,0.3,0.4,0.7,0.2c-0.6-1.3-0.1-1.3,0.1-2.3c0.2,0.2,0,1,0,1c0.3,0.6,1,0.9,1.7,1c1.4-0.2,1.4-1.4,1.3-2.4
		c-0.1-0.6-0.1-1.3,0.2-1.7c-0.2-0.1-0.5,0.3-0.5,0.3c-0.2-0.6,0.4-0.9,0.3-1.5c-0.1,0.2-0.4,0.3-0.6,0.4c0-0.2,0.7-0.6,0.7-1.2
		c-0.2,0.2-0.4,0.2-0.6,0.3c0.3-0.3,0.7-0.7,0.6-1.3c-0.2,0.4-0.5,0.4-0.8,0.9c0.1-0.8,1.1-1.8,1.1-2.9c0-0.5-0.2-0.9-0.5-1.1
		c-0.7-0.6-1.7-0.6-2.5-0.1C30.3,23.6,29.8,24.5,30.2,25.3z"/>
	<path class="st1" d="M27.3,33.7c-0.6-0.7,0.2-1.5-0.2-1.9c0.3,0,0.6,0.2,0.6,0.3c0.1-0.6-0.6-0.8-0.8-0.9c-0.8,1-1.7,1.2-2.7,1.6
		c-0.9,0.3-0.5,1.5-1.4,1.8c0.3,0.1,0.6,0.1,1.1,0c-0.4,0.3-0.6,0.2-0.9,0.8c0.2-0.1,0.5-0.1,0.7-0.1c0,0.1-0.2,0.3-0.4,0.6
		c0.2,0,0.5,0,0.8-0.2c0.1,0.3-0.5,0.3-0.3,1c0.2-0.3,0.5-0.4,0.7-0.4c-0.2,0.1-0.3,0.2-0.3,0.6c0.2-0.1,0.5-0.2,0.6-0.1
		c-0.4,0.2-0.6,0.3-0.8,0.6c-0.6,0.6,0,1.5-0.7,1.6c-0.4,0.1-0.6-0.2-1-0.3c-0.9-0.2-1.2,0.8-0.6,1c0-0.3,0.3-0.5,0.6-0.4
		c-0.2,0.1-0.8,0.6-0.2,0.9c0.2-0.4,0.5-0.4,0.8-0.4c-0.5,0.2-0.7,0.6-0.2,0.9c0.5-0.7,1.4-0.5,1.9-0.6c0.1-0.2,0.2-0.7,0.1-1.3
		c0.2,0.2,0.3,0.2,0.5,0.3c-0.1-0.2-0.1-0.5,0-0.6c0.1,0.2,0.2,0.2,0.5,0.3c-0.1-0.4-0.1-0.7,0-1c0.2,0.2,0.2,0.3,0.5,0.3
		c-0.2-0.3,0.1-0.6,0.1-0.8c0-0.9-0.9-1.3,0.1-2.1c-0.2-0.1-0.4-0.2-0.6-0.6c0.2,0.2,0.6,0.3,1,0.2c-0.4-0.2-0.6-0.4-0.7-0.7
		c0.2,0.1,0.5,0.3,0.9,0.3C27,34.1,27,33.9,27.3,33.7z"/>
	<path class="st1" d="M10.2,31c0,0.1,2.1-2.8,0.1-7.1c0,0.7-0.2,0.9-0.6,1.2c0.6,1.3,0.9,3,0.2,4.7C10.1,30,10.2,30.4,10.2,31z"/>
	<path class="st1" d="M18.2,21.6c-0.1,0.2,0.2,0.3,0.4,0.4s0.5-0.1,0.6-0.2c0-0.2-0.2-0.3-0.4-0.4C18.5,21.3,18.2,21.5,18.2,21.6z"
		/>
	<path class="st1" d="M18.8,22.1c-0.2,0-0.5,0.1-0.5,0.2c-0.1,0.2,0.1,0.3,0.3,0.4s0.5,0,0.6-0.2C19.2,22.3,19,22.2,18.8,22.1z"/>
	<path class="st1" d="M18.8,20.7c-0.2-0.1-0.5,0-0.5,0.2c-0.1,0.2,0.1,0.4,0.3,0.4c0.2,0.1,0.5,0,0.6-0.2
		C19.2,20.9,19,20.7,18.8,20.7z"/>
	<path class="st1" d="M19.7,22.7v-1.2l-0.5-0.1c0.2,0.2,0.2,0.5-0.1,0.6c0.2,0.2,0.4,0.4,0.2,0.6h0.4V22.7z"/>
	<path class="st1" d="M22.2,23.8C22,23.4,22,23,21.8,22.7c-0.3-0.5-0.8-0.4-1.2-0.9c-0.2-0.2-0.5-0.6-0.8-0.9
		c-0.1-0.2-0.3-0.2-0.6-0.2c0.1,0.2,0.2,0.4,0,0.5l0.6,0.2v1c0.1,0.8,0.9,0.6,1.5,0.6v0.8h-0.9c0,0.5,0.6,0.6,0.3,1.3
		c0.2-0.1,0.4-0.4,0.5-0.6c0.3,0.3,0,0.8-0.2,1c0.2,0,0.4-0.1,0.7-0.3c0.1,0.2-0.2,0.6-0.3,0.8c0.3,0,0.6-0.3,0.7-0.4
		c0.2,0.4-0.1,0.6-0.2,0.9c0.1-0.1,1.1-0.3,1.5-0.5c0.3-0.1,0.7-0.2,1.2-0.2c-0.1-0.2-0.2-0.3-0.2-0.6c-0.2,0.2-0.6,0.2-1,0
		c0.2-0.1,0.2-0.2,0.3-0.4C23.2,24.8,22.5,24.3,22.2,23.8z"/>
	<path class="st1" d="M17.3,23.7h3.6v-0.4h-1c0-0.2-0.2-0.4-0.3-0.4h-0.9c-0.2,0-0.3,0.2-0.3,0.4h-0.9v0.4H17.3z"/>
	<path class="st1" d="M18.8,19.4h1c0.2,0,0.4-0.2,0.4-0.3h-1.8C18.3,19.2,18.5,19.4,18.8,19.4z"/>
	<path class="st1" d="M19.8,18.8c0.2-1.3-0.4-2.1-0.2-3.2h-0.8c0.2,1.1-0.3,1.9-0.2,3.2H19.8z"/>
	<rect x="19" y="13.7" class="st1" width="0.6" height="1.8"/>
	<path class="st1" d="M19,13.5C19,13.3,19,13,19.1,12.7c0.2,0.3,0.2,0.6,0.1,0.8c0.4-0.1,0.5-0.3,0.4-0.6c0-0.2-0.2-0.6-0.4-0.7
		c-0.2,0.1-0.4,0.3-0.5,0.6C18.8,13.1,18.8,13.4,19,13.5z"/>
	<path class="st1" d="M15.5,19.4h0.9c0.2,0,0.3-0.2,0.3-0.3H15C15.2,19.2,15.2,19.4,15.5,19.4z"/>
	<path class="st1" d="M16.5,18.8c0.1-1.3-0.4-1.6-0.2-2.7h-0.7c0.2,1.1-0.3,1.4-0.2,2.7H16.5z"/>
	<rect x="15.7" y="14.8" class="st1" width="0.6" height="1.2"/>
	<path class="st1" d="M16,14.6c-0.2-0.2-0.2-0.5,0.1-0.8C16.2,14.1,16.2,14.4,16,14.6c0.5-0.1,0.6-0.3,0.5-0.6
		c-0.1-0.2-0.2-0.6-0.4-0.7c-0.2,0.1-0.4,0.3-0.5,0.6C15.5,14.2,15.5,14.5,16,14.6z"/>
	<path class="st1" d="M22,19.4h1c0.2,0,0.4-0.2,0.4-0.3h-1.7C21.7,19.2,21.8,19.4,22,19.4z"/>
	<path class="st1" d="M23,18.8c0.1-1.3-0.4-1.6-0.2-2.7h-0.7c0.2,1.1-0.3,1.4-0.2,2.7H23z"/>
	<rect x="22.2" y="14.8" class="st1" width="0.5" height="1.2"/>
	<path class="st1" d="M22.3,14.6c-0.1-0.3-0.1-0.5,0.1-0.8c0.2,0.3,0.2,0.6,0.1,0.8c0.3-0.1,0.4-0.3,0.4-0.6
		c-0.1-0.2-0.3-0.6-0.5-0.7c-0.1,0.1-0.3,0.3-0.4,0.6C22,14.2,22,14.5,22.3,14.6z"/>
	<path class="st1" d="M22.7,19.9v-0.2h-0.4v0.2c0,0.2-0.1,0.2-0.2,0.2h-2.6v-0.5H19v0.5h-2.7c-0.1,0-0.2-0.1-0.2-0.2v-0.2h-0.4v0.2
		c0,0.4,0.2,0.6,0.6,0.6c2.3,0,3.2,0,5.6,0C22.5,20.5,22.7,20.3,22.7,19.9z"/>
</g>
<path class="st1" d="M65.2,24.2c0.3-0.3,0.4-0.5,0.6-0.8c0.3-0.3,0.4-0.6,0.5-1c0.1-0.4,0.4-0.9,0.5-1.5c0.1-0.6,0.3-1.3,0.4-2.2
	s0.3-1.9,0.3-3.1c0.1-1.2,0.1-2.6,0.1-4.1l-2-0.5v-0.8c0.6,0,1.3,0,1.8,0s0.9,0,1.3,0c0.4,0,0.9,0,1.3,0s1,0,1.7,0
	c0.9,0,1.9,0,2.8,0c1,0,2.2,0,3.5-0.1V11l-2.2,0.5v12.7l2.2,0.5v0.9h-6v-0.8l2-0.6V11.5h-4.7c0,2.3-0.1,4.3-0.3,6.1
	c-0.1,1.8-0.5,3.3-0.9,4.5c-0.4,1.2-0.9,2.2-1.5,2.7c-0.6,0.6-1.4,0.9-2.3,0.9c-0.6,0-1-0.1-1.4-0.4c-0.4-0.3-0.5-0.6-0.5-1
	c0-0.3,0-0.5,0.1-0.8c0.1-0.3,0.3-0.4,0.4-0.6L65.2,24.2z"/>
<path class="st1" d="M86.3,16.1c0.5-0.1,1-0.1,1.5-0.3c0.5,0,1-0.1,1.5-0.1c0.9,0,1.7,0.1,2.4,0.4c0.8,0.3,1.4,0.5,1.9,1
	c0.5,0.4,0.9,0.9,1.2,1.5c0.3,0.6,0.4,1.3,0.4,2c0,0.6-0.1,1.3-0.4,1.9c-0.3,0.6-0.5,1.2-1,1.5c-0.4,0.4-0.9,0.8-1.5,1
	c-0.6,0.3-1.3,0.4-2,0.4s-1.5,0-2.4,0c-0.8,0-1.7,0-2.4,0c-0.5,0-1,0-1.5,0c-0.5,0-1,0-1.5,0l-0.1-0.8l2-0.6V11.7l-2-0.6v-0.8h6v0.9
	L86,11.7v4.5H86.3z M89,17.2c-0.5,0-0.9,0-1.3,0.1c-0.4,0-0.9,0.1-1.3,0.3v6.7c0.1,0,0.4,0.1,0.6,0.1s0.5,0.1,0.8,0.1
	c0.3,0,0.5,0,0.8,0.1c0.3,0,0.5,0,0.6,0c0.8,0,1.5-0.1,2-0.3c0.5-0.3,1-0.5,1.3-0.8c0.4-0.4,0.5-0.8,0.6-1.2
	c0.1-0.4,0.1-0.9,0.1-1.3c0-0.5-0.1-1-0.3-1.4c-0.1-0.4-0.4-0.9-0.8-1.2c-0.4-0.4-0.8-0.6-1.4-0.8C90.5,17.3,89.7,17.2,89,17.2z"/>
<path class="st1" d="M100.1,11l0.1-0.8c0.4,0,0.8,0,1.2,0s0.8,0,1.2,0c0.8,0,1.5,0,2.4,0c0.8,0,1.7,0,2.3,0c0.9,0,1.8,0.1,2.3,0.4
	c0.6,0.3,1,0.5,1.4,0.9c0.4,0.4,0.5,0.8,0.6,1.2c0.1,0.4,0.1,0.8,0.1,1c0,0.5-0.1,0.9-0.3,1.3c-0.1,0.4-0.4,0.6-0.6,0.9
	s-0.5,0.5-0.9,0.6c-0.4,0.1-0.6,0.3-1,0.4V17c1.3,0.1,2.2,0.6,2.8,1.4c0.6,0.8,1,1.7,1,2.8c0,0.6-0.1,1.3-0.4,1.8
	c-0.3,0.5-0.6,1-1,1.4c-0.4,0.4-0.9,0.8-1.5,0.9c-0.6,0.3-1.3,0.4-1.9,0.4c-0.8,0-1.5,0-2.4,0c-0.8,0-1.7,0-2.4,0c-0.5,0-1,0-1.5,0
	c-0.5,0-1,0-1.5,0L99.8,25l2-0.6V11.7L100.1,11z M105.6,16.5c0.9,0,1.7-0.1,2.3-0.4c0.5-0.3,1-0.5,1.3-0.8c0.3-0.3,0.5-0.5,0.6-0.8
	c0.1-0.3,0.1-0.5,0.1-0.6c0-0.9-0.4-1.5-1-1.9c-0.6-0.4-1.5-0.6-2.7-0.6c-0.1,0-0.3,0-0.4,0c-0.3,0-0.4,0-0.6,0s-0.5,0-0.8,0
	s-0.4,0-0.6,0.1v12.4c0.1,0,0.4,0.1,0.6,0.1s0.5,0.1,0.8,0.1s0.5,0,0.8,0.1c0.3,0,0.5,0,0.6,0c1.4,0,2.6-0.3,3.2-0.9s1-1.4,1-2.3
	c0-0.5-0.1-0.9-0.3-1.4c-0.1-0.4-0.5-0.8-0.9-1c-0.4-0.3-0.9-0.5-1.7-0.8c-0.6-0.1-1.5-0.3-2.6-0.3l-0.1-0.9L105.6,16.5z"/>
<path class="st1" d="M124.1,24.7v0.9h-6v-0.8l2-0.6V11.5l-2-0.6v-0.8h6V11l-2.2,0.5v12.7L124.1,24.7z"/>
<path class="st1" d="M129.4,11l0.1-0.9c0.4,0,0.8,0,1.2,0c0.4,0,0.8,0,1.2,0c0.8,0,1.5,0,2.4,0c0.8,0,1.7,0,2.3,0
	c0.9,0,1.8,0.1,2.3,0.4c0.6,0.3,1,0.5,1.4,0.9c0.4,0.4,0.5,0.8,0.6,1.2c0.1,0.4,0.1,0.8,0.1,1c0,0.5-0.1,0.9-0.3,1.3
	c-0.1,0.4-0.4,0.6-0.6,0.9c-0.3,0.3-0.5,0.5-0.9,0.6c-0.4,0.1-0.6,0.3-1,0.4v0.1c1.3,0.1,2.2,0.6,2.8,1.4c0.6,0.8,1,1.7,1,2.8
	c0,0.6-0.1,1.3-0.4,1.8c-0.3,0.5-0.6,1-1,1.4c-0.4,0.4-0.9,0.8-1.5,0.9c-0.6,0.3-1.3,0.4-1.9,0.4c-0.8,0-1.5,0-2.4,0
	c-0.8,0-1.7,0-2.4,0c-0.5,0-1,0-1.5,0s-1,0-1.5,0l-0.1-0.8l2-0.6V11.5L129.4,11z M134.9,16.5c0.9,0,1.7-0.1,2.3-0.4
	c0.5-0.3,1-0.5,1.3-0.8c0.3-0.3,0.5-0.5,0.6-0.8c0.1-0.3,0.1-0.5,0.1-0.6c0-0.9-0.4-1.5-1-1.9c-0.6-0.4-1.5-0.6-2.7-0.6
	c-0.1,0-0.3,0-0.4,0c-0.3,0-0.4,0-0.6,0c-0.3,0-0.5,0-0.8,0c-0.3,0-0.4,0-0.6,0.1v12.4c0.1,0,0.4,0.1,0.6,0.1c0.3,0,0.5,0.1,0.8,0.1
	c0.3,0,0.5,0,0.8,0.1c0.3,0,0.5,0,0.6,0c1.4,0,2.6-0.3,3.2-0.9s1-1.4,1-2.3c0-0.5-0.1-0.9-0.3-1.4c-0.1-0.4-0.5-0.8-0.9-1
	c-0.4-0.3-0.9-0.5-1.7-0.8c-0.6-0.1-1.5-0.3-2.6-0.3l-0.1-0.9L134.9,16.5z"/>
<path class="st1" d="M147.4,18.2c0-1,0.1-2,0.4-3.1c0.3-1,0.6-1.9,1.2-2.7s1.3-1.4,2-1.9c0.9-0.5,1.9-0.8,3.2-0.8
	c0.5,0,1.2,0,1.7,0.1c0.6,0.1,1.3,0.4,2,0.8l0.5-0.9h0.8l0.1,4.3l-0.9,0.1l-0.8-2.2c-0.4-0.3-0.9-0.5-1.4-0.6
	c-0.5-0.1-1.2-0.3-1.9-0.3c-0.9,0-1.7,0.1-2.3,0.5c-0.6,0.4-1.2,0.9-1.5,1.5c-0.4,0.6-0.6,1.4-0.8,2.2c-0.1,0.8-0.3,1.7-0.3,2.6
	c0,0.8,0,1.7,0.1,2.4c0.1,0.8,0.4,1.5,0.8,2c0.4,0.6,0.9,1.2,1.5,1.5c0.6,0.4,1.5,0.5,2.7,0.5c0.8,0,1.4,0,2.2-0.1
	c0.8-0.1,1.4-0.3,2.2-0.5l0.4,1c-0.8,0.4-1.5,0.6-2.4,0.8c-0.9,0.1-1.8,0.3-2.6,0.3c-2.2,0-4-0.6-5.1-1.9
	C147.9,22.7,147.4,20.7,147.4,18.2z"/>
<path class="st1" d="M167.2,16.1c0.5-0.1,1-0.1,1.5-0.3c0.5,0,1-0.1,1.5-0.1c0.9,0,1.7,0.1,2.4,0.4c0.8,0.3,1.4,0.5,1.9,1
	c0.5,0.4,0.9,0.9,1.2,1.5c0.3,0.6,0.4,1.3,0.4,2c0,0.6-0.1,1.3-0.4,1.9c-0.3,0.6-0.5,1.2-1,1.5c-0.4,0.4-0.9,0.8-1.5,1
	c-0.6,0.3-1.3,0.4-2,0.4s-1.5,0-2.4,0c-0.8,0-1.7,0-2.4,0c-0.5,0-1,0-1.5,0s-1,0-1.5,0l-0.1-0.8l2.2-0.6V11.7l-2-0.6v-0.8h6v0.9
	l-2.2,0.5v4.5H167.2z M169.8,17.2c-0.5,0-0.9,0-1.3,0.1c-0.4,0-0.9,0.1-1.3,0.3v6.7c0.1,0,0.4,0.1,0.6,0.1c0.3,0,0.5,0.1,0.8,0.1
	c0.3,0,0.5,0,0.8,0.1c0.3,0,0.5,0,0.6,0c0.8,0,1.5-0.1,2-0.3c0.5-0.3,1-0.5,1.3-0.8c0.4-0.4,0.5-0.8,0.6-1.2
	c0.1-0.4,0.1-0.9,0.1-1.3c0-0.5-0.1-1-0.3-1.4c-0.1-0.4-0.4-0.9-0.8-1.2c-0.4-0.4-0.8-0.6-1.4-0.8C171.3,17.3,170.7,17.2,169.8,17.2
	z"/>
<path class="st1" d="M186.8,24.7v0.9h-6v-0.8l2-0.6V11.5l-2-0.6v-0.8h6V11l-2.2,0.5v12.7L186.8,24.7z M185.4,17.7v-0.4l4.7-5.8
	l-1.4-0.5v-0.9h4.9v1c-0.5,0.3-1.2,0.5-1.7,0.9c-0.6,0.4-1.2,0.9-1.7,1.4l-3.2,3.7l7.5,7.9l-0.1,0.6l-1.8,0.4L185.4,17.7z"/>
<path class="st1" d="M204.9,24.7v0.9h-6v-0.8l2-0.6V11.5l-2-0.6v-0.8h6V11l-2.2,0.5v10l7.4-9.1v-0.8l-2-0.6v-0.8h6v0.9l-2.2,0.5
	v12.5l2.2,0.5v0.9h-6v-0.8l2-0.6v-9.9l-7.4,9.1l0,0v0.8L204.9,24.7z"/>
<path class="st1" d="M224.9,24.7v0.9h-6v-0.8l2-0.6V11.5l-2-0.6v-0.8h6V11l-2.2,0.5v10l7.4-9.1v-0.8l-2-0.6v-0.8h6v0.9l-2.2,0.5
	v12.5l2.2,0.5v0.9h-6v-0.8l2-0.6v-9.9l-7.4,9.1l0,0v0.8L224.9,24.7z M223.4,6.5l1.2-0.8c0.1,0.3,0.4,0.5,0.5,0.8
	c0.3,0.3,0.4,0.4,0.6,0.6c0.3,0.1,0.4,0.3,0.6,0.4c0.1,0.1,0.4,0.1,0.5,0.1c0.1,0,0.3,0,0.5,0c0.1,0,0.4-0.1,0.6-0.3
	c0.3-0.1,0.5-0.3,0.8-0.5c0.3-0.3,0.6-0.5,0.9-0.9l0.6,0.5c-0.6,0.9-1.3,1.5-1.8,1.8c-0.6,0.4-1.2,0.5-1.8,0.5c-0.4,0-0.6,0-1-0.1
	c-0.4-0.1-0.6-0.3-0.9-0.5c-0.3-0.3-0.5-0.4-0.8-0.6s-0.4-0.5-0.6-0.8L223.4,6.5L223.4,6.5z"/>
<path class="st1" d="M68.7,42.9h-1l-4.3-9l-1.5-0.4l0.1-0.9h3.5c0,0.4,0.1,0.6,0.3,1.2c0.1,0.4,0.3,0.8,0.5,1.2l3.1,6.8h0.1
	c0.3-0.5,0.5-1.2,0.8-1.7c0.3-0.5,0.5-1.2,0.8-1.8s0.5-1.3,0.8-1.9c0.3-0.6,0.6-1.4,1-2.3l-2-0.5v-1h5.2v0.9c-0.5,0.3-1,0.5-1.4,1
	c-0.5,0.5-0.9,1.2-1.2,1.9l-3.8,8.6c-0.4,1-0.9,1.9-1.5,2.4c-0.6,0.6-1.3,0.9-2.2,0.9c-0.6,0-1.2-0.1-1.5-0.4
	c-0.4-0.3-0.5-0.6-0.5-1c0-0.3,0-0.5,0.1-0.6c0.1-0.3,0.4-0.4,0.6-0.6l2.2,1.2c0.3-0.1,0.6-0.4,0.9-0.8c0.3-0.4,0.5-0.8,0.8-1.3
	L68.7,42.9z"/>
<path class="st1" d="M84.7,47.2v0.9h-6v-0.9l2-0.6V33.9l-2-0.6v-0.8h6v0.9l-2.2,0.5v5.4H90v-5.4l-2-0.6v-0.8h6v0.9l-2.2,0.5v12.7
	l2.2,0.5V48h-6v-0.8l2-0.6v-6h-7.4v6L84.7,47.2z"/>
<path class="st1" d="M104.6,47.2v0.9h-6v-0.9l2-0.6V33.9l-2-0.6v-0.8h6v0.9l-2.2,0.5v12.7L104.6,47.2z"/>
<path class="st1" d="M109.2,33.4l0.1-0.8c0.4,0,0.8,0,1.2,0c0.4,0,0.8,0,1.2,0c0.8,0,1.5,0,2.4,0c0.8,0,1.7,0,2.3,0
	c0.9,0,1.8,0.1,2.3,0.4c0.6,0.3,1,0.5,1.4,0.9c0.4,0.4,0.5,0.8,0.6,1.2c0.1,0.4,0.1,0.8,0.1,1c0,0.5-0.1,0.9-0.3,1.3
	c-0.1,0.4-0.4,0.6-0.6,0.9s-0.5,0.5-0.9,0.6c-0.4,0.1-0.6,0.3-1,0.4v0.1c1.3,0.1,2.2,0.6,2.8,1.4s1,1.7,1,2.8c0,0.6-0.1,1.3-0.4,1.8
	c-0.3,0.5-0.6,1-1,1.4c-0.4,0.4-0.9,0.8-1.5,0.9c-0.6,0.3-1.3,0.4-1.9,0.4c-0.8,0-1.5,0-2.4,0c-0.8,0-1.7,0-2.4,0c-0.5,0-1,0-1.5,0
	c-0.5,0-1,0-1.5,0v-0.9l2-0.6V33.9L109.2,33.4z M114.7,38.9c0.9,0,1.7-0.1,2.3-0.4c0.5-0.3,1-0.5,1.3-0.8c0.3-0.3,0.5-0.5,0.6-0.8
	c0.1-0.3,0.1-0.5,0.1-0.6c0-0.9-0.4-1.5-1-1.9c-0.6-0.4-1.5-0.6-2.7-0.6c-0.1,0-0.3,0-0.4,0c-0.3,0-0.4,0-0.6,0s-0.5,0-0.8,0
	s-0.4,0-0.6,0.1v12.4c0.1,0,0.4,0.1,0.6,0.1s0.5,0.1,0.8,0.1s0.5,0,0.8,0.1s0.5,0,0.6,0c1.4,0,2.6-0.3,3.2-0.9c0.6-0.6,1-1.4,1-2.3
	c0-0.5-0.1-0.9-0.3-1.4c-0.1-0.4-0.5-0.8-0.9-1c-0.4-0.3-0.9-0.5-1.7-0.8c-0.6-0.1-1.5-0.3-2.6-0.3l-0.1-0.9L114.7,38.9z"/>
<path class="st1" d="M138.2,43.6l-0.5,4.2l-0.3,0.3c-0.5,0-1,0-1.4,0c-0.4,0-0.8,0-1.3,0c-0.4,0-0.9,0-1.3,0c-0.5,0-1,0-1.7,0
	c-0.4,0-0.8,0-1.3,0s-1,0-1.5,0s-1,0-1.5,0s-1,0-1.4,0l-0.1-0.8l2-0.6V34l-1.8-0.5l0.1-0.8c0.4,0,0.8,0,1.4,0c0.5,0,1,0,1.7,0
	c0.5,0,1,0,1.5,0s0.9,0,1.2,0c0.5,0,0.9,0,1.3,0s0.8,0,1.2,0c0.4,0,0.8,0,1.2,0s0.9,0,1.4,0l0.3,0.1l0.1,4.2l-0.9,0.1l-0.8-3.1
	c-0.3,0-0.6,0-1.2,0s-1.2,0-1.7,0c-0.6,0-1.2,0-1.7,0s-0.9,0-1.2,0v5.5l6.1-0.1v1.5l-6.1-0.1v6.1c0.3,0,0.6,0,1.3,0
	c0.5,0,1.2,0,1.8,0c0.6,0,1.3,0,1.8,0s1,0,1.3,0l1.4-3.2L138.2,43.6z"/>
<path class="st1" d="M142.3,32.6c0.3,0,0.4,0,0.5,0c0.1,0,0.3,0,0.5,0c0.1,0,0.4,0,0.6,0c0.3,0,0.5,0,0.9,0c0.6,0,1.3,0,2,0
	s1.4,0,2,0c0.8,0,1.4,0.1,2,0.3c0.6,0.1,1.2,0.4,1.7,0.8c0.5,0.4,0.8,0.8,1.2,1.4c0.3,0.5,0.4,1.2,0.4,1.9c0,0.6-0.1,1.3-0.4,1.8
	c-0.3,0.6-0.6,1-1.2,1.5c-0.5,0.4-1,0.8-1.8,1c-0.8,0.3-1.5,0.4-2.4,0.4c-0.3,0-0.6,0-1,0c-0.5,0-0.9-0.1-1.5-0.3v5.2l2.2,0.5v0.9
	h-6v-0.9l1.9-0.6V33.9l-1.8-0.5L142.3,32.6z M152.2,37.1c0-0.6-0.1-1.2-0.3-1.5c-0.3-0.4-0.5-0.8-0.9-1c-0.4-0.3-0.9-0.5-1.4-0.6
	c-0.5-0.1-1.2-0.1-1.8-0.1c-0.6,0-1.4,0.1-1.9,0.3v6.3c0.4,0.1,0.8,0.1,1.2,0.1c0.4,0,0.6,0,0.8,0c0.9,0,1.7-0.1,2.2-0.3
	c0.5-0.3,1-0.5,1.4-0.8c0.4-0.3,0.5-0.6,0.6-1S152.2,37.6,152.2,37.1z"/>
<path class="st1" d="M158.4,40.7c0-1,0.1-2,0.4-3.1c0.3-1,0.6-1.9,1.2-2.7s1.3-1.4,2-1.9c0.9-0.5,1.9-0.8,3.2-0.8
	c0.5,0,1.2,0,1.7,0.1c0.6,0.1,1.3,0.4,2,0.8l0.5-0.9h0.8l0.1,4.3l-0.9,0.1l-0.8-2.2c-0.4-0.3-0.9-0.5-1.4-0.6
	c-0.5-0.1-1.2-0.3-1.9-0.3c-0.9,0-1.7,0.1-2.3,0.5c-0.6,0.4-1.2,0.9-1.5,1.5c-0.4,0.6-0.6,1.4-0.8,2.2c-0.1,0.8-0.3,1.7-0.3,2.6
	c0,0.8,0,1.7,0.1,2.4c0.1,0.8,0.4,1.5,0.8,2c0.4,0.6,0.9,1.2,1.5,1.5c0.6,0.4,1.5,0.5,2.7,0.5c0.8,0,1.4,0,2.2-0.1
	c0.8-0.1,1.4-0.3,2.2-0.5l0.4,1c-0.8,0.4-1.5,0.6-2.4,0.8s-1.8,0.3-2.6,0.3c-2.2,0-4-0.6-5.1-1.9C158.9,45.2,158.4,43.3,158.4,40.7z
	"/>
<path class="st1" d="M179.8,47.2v0.9h-6v-0.9l2-0.6V33.9l-2-0.6v-0.8h6v0.9l-2.2,0.5v10l7.4-9.1V34l-2-0.6v-0.8h6v0.9l-2.2,0.5v12.7
	l2.2,0.5v0.9h-6v-0.9l2-0.6v-9.9l-7.4,9.1l0,0v0.8L179.8,47.2z"/>
<path class="st1" d="M200,46.7l2.2,0.5v0.9h-6v-0.9l2-0.6V33.8h-3.8l-0.8,3.1l-0.9-0.1l0.1-4.2l0.3-0.1c0.5,0,1,0,1.5,0s0.9,0,1.4,0
	c0.5,0,1,0,1.5,0s1.2,0,1.8,0c0.5,0,1.2,0,1.7,0c0.5,0,1,0,1.5,0s1,0,1.5,0s1,0,1.7,0l0.3,0.1l0.1,4.2l-0.9,0.1l-0.8-3.1h-3.8v12.9
	H200z"/>
<path class="st1" d="M221.1,43.6l-0.5,4.2l-0.3,0.3c-0.5,0-1,0-1.4,0s-0.8,0-1.3,0c-0.4,0-0.9,0-1.3,0c-0.5,0-1,0-1.7,0
	c-0.4,0-0.8,0-1.3,0s-1,0-1.5,0s-1,0-1.5,0s-1,0-1.4,0l-0.1-0.8l2-0.6V34l-1.8-0.5l0.1-0.8c0.4,0,0.8,0,1.4,0c0.5,0,1,0,1.7,0
	c0.5,0,1,0,1.5,0s0.9,0,1.2,0c0.5,0,0.9,0,1.3,0s0.8,0,1.2,0c0.4,0,0.8,0,1.2,0c0.4,0,0.9,0,1.4,0l0.3,0.1l0.1,4.2l-0.9,0.1
	l-0.8-3.1c-0.3,0-0.6,0-1.2,0s-1.2,0-1.7,0c-0.6,0-1.2,0-1.7,0c-0.5,0-0.9,0-1.2,0v5.5l6.1-0.1v1.5L213,41v6.1c0.3,0,0.6,0,1.3,0
	s1.2,0,1.8,0s1.3,0,1.8,0s1,0,1.3,0l1.2-3.7L221.1,43.6z"/>
<path class="st1" d="M231.8,46.7l2.2,0.5v0.9h-6v-0.9l2-0.6V33.8h-3.8l-0.8,3.1l-0.9-0.1l0.1-4.2l0.3-0.1c0.5,0,1,0,1.5,0
	s0.9,0,1.4,0c0.5,0,1,0,1.5,0s1.2,0,1.8,0c0.5,0,1.2,0,1.7,0c0.5,0,1,0,1.5,0s1,0,1.5,0s1,0,1.7,0l0.3,0.1l0.1,4.2l-0.9,0.1
	l-0.8-3.1h-3.8v12.9H231.8z"/>
</svg>
